<?xml version="1.0" encoding="utf-8"?>
<!-- Generator: Adobe Illustrator 22.1.0, SVG Export Plug-In . SVG Version: 6.00 Build 0)  -->
<svg version="1.1" id="Camada_1" xmlns="http://www.w3.org/2000/svg" xmlns:xlink="http://www.w3.org/1999/xlink" x="0px" y="0px"
	 viewBox="0 0 750 500" style="enable-background:new 0 0 750 500;" xml:space="preserve">
<style type="text/css">
	.st0{fill:#E0E0E0;}
	.st1{fill:#FFFFFF;}
	.st2{opacity:0.5;}
	.st3{fill:#EBEBEB;}
	.st4{fill:#263238;}
	.st5{clip-path:url(#SVGID_2_);}
	.st6{fill:#9088E5;}
	.st7{fill:#FAFAFA;}
	.st8{opacity:0.2;}
	.st9{fill:#59C4CA;}
	.st10{opacity:0.4;}
	.st11{fill:#B78876;}
	.st12{fill:#455A64;}
	.st13{opacity:0.3;}
	.st14{fill:#995037;}
	.st15{clip-path:url(#SVGID_4_);}
	.st16{clip-path:url(#SVGID_6_);}
	.st17{opacity:0.8;}
	.st18{opacity:0.7;}
</style>
<g id="freepik--background-complete--inject-27">
	<path class="st0" d="M654,170.3l-159.6-28.5c-4.1-0.7-6.8-4.6-6.1-8.7c0,0,0,0,0,0l17.6-98.6c0.7-4.1,4.7-6.8,8.8-6.1l159.6,28.4
		c4.1,0.7,6.8,4.6,6.1,8.7c0,0,0,0,0,0l-17.6,98.6C662,168.3,658.1,171,654,170.3C654,170.3,654,170.3,654,170.3z"/>
	<path class="st1" d="M586.8,167.3c-1.2,6.6-7.5,11.1-14.2,9.9c-6.6-1.2-11.1-7.5-9.9-14.2c1.2-6.6,7.5-11.1,14.2-9.9
		C583.6,154.3,588,160.6,586.8,167.3C586.8,167.3,586.8,167.3,586.8,167.3z"/>
	<path class="st1" d="M589.3,180.5c-0.8,0-1.5-0.1-2.3-0.2c-6.9-1.2-11.5-7.8-10.3-14.7c1.2-6.9,7.8-11.5,14.7-10.3
		c6.9,1.2,11.5,7.8,10.3,14.7C600.7,176.1,595.5,180.5,589.3,180.5z M589.3,156c-6.5,0-11.7,5.2-11.7,11.7c0,6.5,5.2,11.7,11.7,11.7
		c5.7,0,10.6-4.1,11.6-9.7l0,0c1.1-6.4-3.1-12.5-9.5-13.6C590.7,156.1,590,156,589.3,156L589.3,156z"/>
	<path class="st1" d="M445.3,189.8l-1.7,9.7l-1-0.2l1.6-8.8l-2.3-0.4l0.1-0.9L445.3,189.8z"/>
	<path class="st1" d="M453.7,200.3l-0.1,0.9l-6.8-1.2l0.1-0.7l4.7-3.2c1.3-0.9,1.6-1.5,1.7-2.2c0.2-1.1-0.5-1.9-1.9-2.2
		c-1-0.2-2,0-2.8,0.6l-0.6-0.7c1-0.8,2.4-1.1,3.7-0.8c2,0.4,3,1.6,2.8,3.2c-0.2,0.9-0.6,1.7-2.1,2.8l-3.9,2.6L453.7,200.3z"/>
	<path class="st1" d="M464.2,200.5l-1.9-0.4l-0.5,2.6l-1-0.2l0.5-2.5l-5.5-1l0.1-0.7l6.3-5.5l1.1,0.2l-6.1,5.4l4.2,0.8l0.4-2.2
		l1,0.2l-0.4,2.2l1.9,0.3L464.2,200.5z"/>
	<path class="st1" d="M479,203.1l-1.9-0.3l-0.5,2.5l-1-0.2l0.5-2.6l-5.5-1l0.1-0.7l6.3-5.5l1.1,0.2l-6.1,5.4l4.2,0.8l0.4-2.2l1,0.2
		l-0.4,2.2l1.9,0.4L479,203.1z"/>
	<path class="st1" d="M487.5,204.3c-0.3,1.6-1.7,2.7-4,2.3c-1.3-0.2-2.4-0.9-3.3-1.9l0.6-0.7c0.7,0.9,1.7,1.5,2.8,1.6
		c1.6,0.3,2.7-0.4,2.9-1.5s-0.4-2.2-2.9-2.6l-2.1-0.4l1.4-4.8l5.3,0.9l-0.2,0.9l-4.4-0.8l-0.9,3l1.2,0.2
		C486.9,201.3,487.8,202.6,487.5,204.3z"/>
	<path class="st1" d="M497.1,206c-0.3,1.7-1.9,2.8-3.6,2.4c-0.1,0-0.2,0-0.3-0.1c-2.6-0.5-3.6-2.5-3.1-5.6c0.6-3.3,2.7-4.7,5.3-4.2
		c0.8,0.1,1.6,0.4,2.2,0.9l-0.5,0.7c-0.5-0.4-1.1-0.7-1.8-0.8c-2.1-0.4-3.7,0.7-4.1,3.4c0,0.2-0.1,0.5-0.1,0.8c0.8-1,2-1.4,3.3-1.1
		C496.3,202.9,497.4,204.2,497.1,206z M496.1,205.9c0.2-1.3-0.6-2.3-2.1-2.5c-1.2-0.4-2.5,0.3-2.8,1.5c0,0,0,0.1,0,0.1
		c-0.2,1.1,0.5,2.2,2.2,2.5c1.1,0.3,2.3-0.3,2.7-1.4C496.1,206,496.1,205.9,496.1,205.9L496.1,205.9z"/>
	<path class="st1" d="M504.4,239c0.2-1.3-0.6-2.3-2.1-2.5c-1.2-0.4-2.5,0.3-2.8,1.5c0,0.1,0,0.1,0,0.2c-0.2,1.1,0.5,2.2,2.2,2.5
		c1.1,0.4,2.3-0.3,2.7-1.4C504.4,239.2,504.4,239.1,504.4,239L504.4,239z"/>
	<path class="st1" d="M529.3,236.4l-0.1,0.7l-5.7,8.3l-1.1-0.2l5.6-8.1l-5-0.9l-0.3,1.8l-1-0.2l0.5-2.7L529.3,236.4z"/>
	<path class="st1" d="M537.6,245.1c-0.3,1.7-2,2.5-4.3,2.1s-3.5-1.7-3.2-3.4c0.2-1.1,1.1-2,2.3-2.1c-0.9-0.5-1.3-1.4-1.1-2.4
		c0.3-1.6,1.8-2.3,3.8-1.9s3.3,1.6,3,3.2c-0.2,1-0.9,1.7-1.9,1.9C537.2,242.8,537.8,244,537.6,245.1z M536.6,244.9
		c0.2-1.2-0.7-2.1-2.4-2.4s-2.9,0.3-3.1,1.5s0.7,2.1,2.4,2.4S536.4,246.1,536.6,244.9L536.6,244.9z M534.4,241.7
		c1.5,0.3,2.5-0.3,2.7-1.3s-0.6-1.9-2.1-2.2s-2.5,0.2-2.7,1.3S532.8,241.4,534.4,241.7L534.4,241.7z"/>
	<line class="st1" x1="591.7" y1="233.3" x2="590.9" y2="237.5"/>
	<line class="st1" x1="498.7" y1="252.7" x2="499.4" y2="248.5"/>
	<line class="st1" x1="590.2" y1="241.7" x2="589.4" y2="245.9"/>
	<line class="st1" x1="535" y1="267.8" x2="535.7" y2="263.6"/>
	<g class="st2">
		<path class="st3" d="M450.1,156.9l22.8,4.1c2.7,0.5,4.5,3.1,4,5.8l-2.6,14.6c-0.5,2.7-3.1,4.5-5.8,4l-22.8-4.1
			c-2.7-0.5-4.5-3.1-4-5.8l2.6-14.6C444.8,158.2,447.4,156.4,450.1,156.9z"/>
	</g>
	<path class="st0" d="M442.1,173.6l0.3-1.6l16.8,3c2,0.2,3.7-1.3,3.9-3.2c0.1-1.7-1-3.3-2.6-3.8l-16.8-3l0.3-1.6l16.8,3
		c2.8,0.5,4.7,3.2,4.2,6c-0.5,2.8-3.2,4.7-6,4.2L442.1,173.6z"/>
	
		<rect x="469" y="167.5" transform="matrix(0.1764 -0.9843 0.9843 0.1764 216.2889 605.1581)" class="st0" width="1.6" height="11.7"/>
	
		<rect x="490.2" y="105.2" transform="matrix(0.1755 -0.9845 0.9845 0.1755 261.6819 607.9942)" class="st1" width="7.3" height="85"/>
	<path class="st0" d="M164.1,60.4l120.7-29.3c4.7-1.1,9.4,1.7,10.6,6.4l30.4,125.1c1.1,4.7-1.7,9.4-40.5-87l-120.7,29.3
		c29.3,98.7,24.6,95.8,23.4,91.1L157.7,71C156.6,66.3,159.4,61.5,164.1,60.4z"/>
	<path class="st1" d="M276.2,137.7c0,0-0.1,0-0.3,0.1l-0.8,0.2l-3.1,0.8l-11.6,2.9l-39,9.6l-0.3,0.1l-0.1-0.3l-2.5-6.2
		c-7.2-18.3-13.6-34.6-17.8-45.2l0.2,0.1l-10.4,2.4l-2.8,0.6l-0.7,0.2c-0.1,0-0.2,0-0.2,0c0,0,0.1,0,0.2-0.1l0.7-0.2l2.7-0.7
		l10.4-2.6h0.2l0.1,0.2l18,45.2c0.9,2.1,1.7,4.3,2.5,6.2l-0.4-0.2l39-9.4l11.6-2.7l3.1-0.7l0.8-0.2L276.2,137.7z"/>
	<path class="st1" d="M217,140l0.3-0.1l0.8-0.2l3.1-0.8l11.7-2.9l40.4-9.9l-0.2,0.3c-0.5-7.1-1-14.8-1.5-22.7
		c-0.3-4.1-0.5-8.1-0.8-11.9l0.4,0.3l-47.7,11.5l-14.1,3.3l-3.8,0.9l-1,0.2c-0.1,0-0.2,0.1-0.3,0.1c0.1,0,0.2-0.1,0.3-0.1l1-0.3
		l3.8-1l14.1-3.5l47.6-11.7l0.4-0.1v0.4c0.2,3.8,0.5,7.8,0.8,11.9c0.5,7.9,1,15.6,1.4,22.7v0.3l-0.3,0.1l-40.5,9.8l-11.8,2.8
		l-3.1,0.7l-0.8,0.2C217.2,140,217.1,140,217,140z"/>
	<path class="st1" d="M238.7,162.5c-0.1,0-0.2-0.5-0.6-1.2c-0.6-1.1-1.6-1.9-2.7-2.4c-2.7-1.2-5.9,0.1-7.1,2.8
		c-1.2,2.7,0.1,5.9,2.8,7.1c2.2,0.9,4.7,0.3,6.2-1.5c0.8-1,1.3-2.1,1.3-3.4C238.7,163,238.6,162.5,238.7,162.5c0.1,0,0,0.1,0.1,0.4
		c0.1,0.3,0.1,0.7,0.1,1c0,1.3-0.4,2.6-1.2,3.6c-1.2,1.6-3.2,2.4-5.2,2.2c-3.2-0.3-5.6-3.2-5.3-6.5c0.2-1.8,1.2-3.4,2.7-4.4
		c1.7-1.1,3.8-1.3,5.6-0.4c1.2,0.5,2.2,1.5,2.7,2.7c0.2,0.3,0.3,0.7,0.4,1C238.7,162.4,238.7,162.5,238.7,162.5z"/>
	<path class="st1" d="M274,154c-0.1,0-0.2-0.5-0.6-1.2c-0.6-1.1-1.6-1.9-2.7-2.4c-2.7-1.2-5.9,0.1-7,2.8s0.1,5.9,2.8,7
		c2.2,0.9,4.7,0.3,6.2-1.5c0.8-0.9,1.2-2.1,1.3-3.4C274,154.5,273.9,154,274,154c0.1,0,0.1,0.1,0.1,0.3c0.1,0.3,0.1,0.7,0.1,1
		c0,1.3-0.4,2.6-1.3,3.7c-1.2,1.6-3.2,2.4-5.2,2.2c-3.2-0.3-5.6-3.2-5.3-6.5c0.2-1.8,1.2-3.4,2.7-4.4c1.7-1.1,3.8-1.3,5.6-0.4
		c1.2,0.5,2.2,1.5,2.8,2.7c0.2,0.3,0.3,0.7,0.3,1C274,153.8,274,154,274,154z"/>
	<path class="st1" d="M282.5,83c2.1,8.6-3.2,17.3-11.8,19.4c-8.6,2.1-17.3-3.2-19.4-11.8s3.2-17.3,11.8-19.4c0,0,0,0,0,0
		C271.7,69.1,280.4,74.4,282.5,83C282.5,83,282.5,83,282.5,83z"/>
	<path class="st0" d="M273.7,80.8c-0.4,1-0.9,2.1-1.5,3c-1,1.8-2.3,4.3-3.9,7l-1.7,2.9l-0.1,0.3l-0.3-0.1c-2-1.1-3.8-2-5-2.7
		c-0.7-0.3-1.3-0.7-1.9-1.2c0.7,0.2,1.4,0.5,2.1,0.9c1.3,0.6,3.1,1.5,5.1,2.5l-0.4,0.1c0.5-0.9,1.1-1.9,1.6-2.9
		c1.5-2.7,3-5.2,4.1-6.9C272.4,82.6,273,81.7,273.7,80.8z"/>
</g>
<g id="freepik--Floor--inject-27">
	<path class="st4" d="M691.3,466.6c0,0.1-143.6,0.3-320.6,0.3S50,466.7,50,466.6s143.5-0.3,320.7-0.3S691.3,466.4,691.3,466.6z"/>
</g>
<g id="freepik--Device--inject-27">
	<path class="st4" d="M450.7,119.3c-1.1,0.1-2.2,0.2-3.3,0.2c-2.1,0-4.9,0.1-8.2,0.1H439v-0.2c-0.1-0.4-0.1-0.9-0.2-1.4
		c-0.6-4-1-7.5-1.3-9.8l0.2,0.1c-1,0-2,0-3-0.2c1-0.1,2-0.2,3-0.2h0.1v0.1c0.4,2.3,0.9,5.8,1.5,9.8c0.1,0.5,0.1,0.9,0.2,1.3
		l-0.3-0.2c3.2,0,6.1,0,8.2,0.1C448.5,119.1,449.6,119.2,450.7,119.3z"/>
	<path class="st4" d="M438.9,116.9c0.3-0.1,0.6-0.1,0.9-0.1l2.5-0.1c2.1,0,5.1-0.1,8.5-0.1l-0.3,0.2l0.8-4.6
		c0.1-0.8,0.3-1.6,0.4-2.4l0.3,0.3c-4,0-7.5,0-10-0.1l-3-0.1c-0.4,0-0.7,0-1.1-0.1c0.4-0.1,0.7-0.1,1.1-0.1l3-0.1
		c2.5,0,6-0.1,10-0.1h0.3v0.3c-0.1,0.8-0.3,1.6-0.4,2.4c-0.3,1.6-0.6,3.1-0.8,4.6v0.2h-0.2c-3.4,0-6.4,0-8.5-0.1l-2.5-0.1
		C439.5,117,439.2,117,438.9,116.9z"/>
	<path class="st4" d="M442.1,122.4c-0.1,0-0.1-0.4-0.6-0.8c-0.3-0.2-0.6-0.2-0.9-0.1c-0.5,0.2-0.7,0.7-0.5,1.2
		c0.1,0.2,0.3,0.4,0.5,0.5c0.3,0.1,0.6,0.1,0.9-0.1C442,122.9,442,122.4,442.1,122.4c0.1,0,0.1,0.1,0.1,0.3c0,0.3-0.2,0.6-0.4,0.8
		c-0.4,0.3-0.8,0.4-1.3,0.2c-0.7-0.2-1.1-1-0.9-1.8c0.1-0.4,0.5-0.7,0.9-0.9c0.4-0.1,0.9-0.1,1.3,0.2c0.2,0.2,0.4,0.5,0.4,0.8
		C442.2,122.3,442.1,122.4,442.1,122.4z"/>
	<path class="st4" d="M449.5,122.4c-0.1,0-0.1-0.4-0.6-0.8c-0.3-0.2-0.6-0.2-0.9-0.1c-0.5,0.2-0.7,0.7-0.5,1.2
		c0.1,0.2,0.3,0.4,0.5,0.5c0.3,0.1,0.6,0.1,0.9-0.1C449.4,122.9,449.4,122.4,449.5,122.4c0.1,0,0.1,0.1,0.1,0.3
		c0,0.3-0.2,0.6-0.4,0.8c-0.4,0.3-0.8,0.4-1.3,0.2c-0.6-0.2-0.9-0.7-0.9-1.3c0-0.6,0.4-1.1,0.9-1.3c0.4-0.1,0.9-0.1,1.3,0.2
		c0.2,0.2,0.4,0.5,0.4,0.8C449.6,122.3,449.5,122.4,449.5,122.4z"/>
	<path class="st4" d="M332.6,120.5c-3.3,0.3-6.6,0.3-9.9,0.3c-3.3,0.1-6.6,0-9.9-0.3c3.3-0.3,6.6-0.4,9.9-0.3
		C326,120.2,329.3,120.3,332.6,120.5z"/>
	<path class="st4" d="M332.6,116.8c-3.3,0.3-6.6,0.4-9.9,0.3c-3.3,0.1-6.6,0-9.9-0.3c3.3-0.3,6.6-0.3,9.9-0.3
		C326,116.4,329.3,116.5,332.6,116.8z"/>
	<path class="st4" d="M332.6,113c-3.3,0.3-6.6,0.3-9.9,0.3c-3.3,0.1-6.6,0-9.9-0.3c3.3-0.3,6.6-0.3,9.9-0.3
		C326,112.7,329.3,112.7,332.6,113z"/>
	<g>
		<defs>
			<path id="SVGID_1_" d="M365.6,173.8c0,0-13.3-0.2-16.2,4.2s-15,31.4-15,31.4l18.9,9.8l4.1-11.6l6.6,24.3
				c-7.6,6-18.3,60.6-16.2,83.6l70.9,0.2c0,0,0.5-63.8-18.7-84.8l4.5-25.4l4.3,12.4l20-8.3l-15-27.1c-2.6-4.6-7.4-7.5-12.7-7.5h-4.9
				c0,0-2.1,18.1-15.2,17.8S365.6,173.8,365.6,173.8z"/>
		</defs>
		<clipPath id="SVGID_2_">
			<use xlink:href="#SVGID_1_"  style="overflow:visible;"/>
		</clipPath>
		<g class="st5">
			<path class="st6" d="M365.6,173.8c0,0-13.3-0.2-16.2,4.2s-15,31.4-15,31.4l18.9,9.8l4.1-11.6l6.6,24.3
				c-7.6,6-18.3,60.6-16.2,83.6l70.9,0.2c0,0,0.5-63.8-18.7-84.8l4.5-25.4l4.3,12.4l20-8.3l-15-27.1c-2.6-4.6-7.4-7.5-12.7-7.5h-4.9
				c0,0-2.1,18.1-15.2,17.8S365.6,173.8,365.6,173.8z"/>
			<path class="st7" d="M433.8,259.9c0-0.1,0-0.2,0-0.3c0-0.2,0-0.5-0.1-0.9c0-0.5-0.1-1-0.2-1.5c-0.1-0.7-0.2-1.3-0.4-2
				c-0.5-1.8-1.2-3.6-2.2-5.2c-4.8-8.1-14.7-11.6-23.6-8.3c-1.8,0.6-3.4,1.5-5,2.7c-0.8,0.6-1.5,1.2-2.2,1.9
				c-0.7,0.7-1.3,1.5-1.9,2.3c-2.5,3.4-3.8,7.4-3.8,11.6c0,2.1,0.4,4.2,1,6.2c0.6,1.9,1.6,3.8,2.8,5.4c1.1,1.6,2.5,3,4.1,4.2
				c1.5,1.1,3.2,2,5,2.7c8.8,3.2,18.7-0.3,23.6-8.4c1-1.6,1.7-3.4,2.2-5.2c0.2-0.7,0.3-1.3,0.4-2c0.1-0.5,0.2-1,0.2-1.5
				c0-0.4,0.1-0.7,0.1-0.9C433.8,260.2,433.8,260.1,433.8,259.9c0,0.2,0,0.3,0,0.4v1c0,0.5,0,1-0.1,1.5c-0.1,0.7-0.2,1.4-0.4,2.1
				c-0.4,1.9-1.2,3.7-2.2,5.3c-2.9,4.9-7.8,8.4-13.5,9.5c-3.5,0.7-7.2,0.4-10.5-0.8c-1.8-0.6-3.5-1.6-5.1-2.7
				c-0.8-0.6-1.6-1.2-2.3-1.9c-0.7-0.7-1.4-1.5-2-2.3c-1.2-1.7-2.2-3.5-2.9-5.5c-0.7-2.1-1-4.2-1-6.4c0-4.3,1.4-8.5,3.9-11.9
				c0.6-0.8,1.3-1.6,2-2.3c0.7-0.7,1.5-1.3,2.3-1.9c1.5-1.2,3.3-2.1,5.1-2.7c3.4-1.2,7-1.5,10.5-0.8c5.6,1.1,10.5,4.5,13.5,9.5
				c1,1.7,1.7,3.5,2.2,5.3c0.2,0.7,0.3,1.4,0.4,2.1c0.1,0.5,0.1,1,0.1,1.5v1C433.8,259.7,433.8,259.8,433.8,259.9z"/>
			<path class="st7" d="M371.4,215.3c-0.1-1.2-0.3-2.4-0.6-3.6c-2-7.8-9.9-12.4-17.6-10.4c-0.5,0.1-0.9,0.3-1.4,0.4
				c-2.7,1-5,2.7-6.7,5c-3.7,5.1-3.7,11.9,0,17c0.8,1.2,1.8,2.2,3,3.1c1.1,0.8,2.3,1.5,3.6,2c2.4,0.9,5,1.1,7.6,0.6
				c2.2-0.4,4.3-1.3,6.1-2.7c2.6-2,4.5-4.8,5.3-8C371,217.6,371.2,216.4,371.4,215.3c0,0,0,0.1,0,0.2c0,0.2,0,0.4,0,0.7
				c0,0.4,0,0.8-0.1,1.1c-0.1,0.5-0.1,1-0.3,1.5c-0.3,1.4-0.9,2.8-1.6,4c-2.2,3.7-5.8,6.2-10,7c-2.6,0.5-5.3,0.3-7.8-0.6
				c-1.4-0.5-2.6-1.1-3.8-2c-1.2-0.9-2.3-1.9-3.2-3.2c-3.9-5.2-3.9-12.4,0-17.6c0.9-1.2,1.9-2.3,3.2-3.2c1.1-0.9,2.4-1.5,3.8-2
				c6.7-2.4,14.2,0.3,17.8,6.4c0.7,1.2,1.3,2.6,1.6,3.9c0.1,0.5,0.2,1,0.3,1.5c0.1,0.4,0.1,0.8,0.1,1.1c0,0.3,0,0.5,0,0.7
				C371.3,215.1,371.4,215.2,371.4,215.3z"/>
			<path class="st7" d="M371.4,301.6c0,0,0-0.4-0.2-1.1c-0.3-0.9-0.9-1.8-1.6-2.4c-1.9-1.4-4.6-1-6,0.9c-1.4,1.9-1,4.6,0.9,6
				c1.5,1.1,3.6,1.1,5.1,0c0.8-0.6,1.4-1.4,1.6-2.4C371.3,302,371.3,301.6,371.4,301.6s0,0.1,0,0.3c0,0.3,0,0.6-0.1,0.8
				c-0.2,1-0.8,1.9-1.6,2.6c-1.3,1-2.9,1.3-4.5,0.7c-2.5-0.9-3.7-3.6-2.9-6c0.5-1.3,1.5-2.4,2.9-2.9c1.5-0.5,3.2-0.3,4.5,0.7
				c0.8,0.6,1.4,1.6,1.6,2.6c0.1,0.3,0.1,0.6,0.1,0.8C371.4,301.6,371.4,301.6,371.4,301.6z"/>
			<path class="st7" d="M363.6,186.5c0,0,0-0.4-0.2-1.1c-0.3-0.9-0.9-1.8-1.6-2.4c-1.9-1.4-4.6-1-6,0.9c-1.4,1.9-1,4.6,0.9,6
				c1.5,1.1,3.6,1.1,5.1,0c0.8-0.6,1.4-1.4,1.6-2.4C363.5,186.9,363.5,186.5,363.6,186.5c0,0.1,0,0.2,0,0.3c0,0.3,0,0.6-0.1,0.8
				c-0.2,1-0.8,2-1.6,2.6c-1.3,1-2.9,1.3-4.4,0.7c-2.5-0.9-3.7-3.6-2.9-6c0.5-1.3,1.5-2.4,2.9-2.9c1.5-0.5,3.2-0.3,4.4,0.7
				c0.8,0.6,1.4,1.6,1.6,2.6c0.1,0.3,0.1,0.6,0.1,0.8C363.6,186.3,363.6,186.4,363.6,186.5z"/>
			<path class="st7" d="M378.2,280.1c0-0.1-0.1-0.3-0.1-0.4c-0.1-0.3-0.1-0.7-0.2-1.2c-0.2-1.1-0.4-2.6-0.8-4.5l-2.6-15.9l0.3,0.2
				l-22.1,3.5l0.2-0.3l0,0v0.1v0.1v0.2l0.1,0.4l0.1,0.8c0.1,0.5,0.1,1,0.2,1.5c0.2,1,0.3,2,0.5,3c0.3,2,0.6,3.9,0.9,5.7
				c0.6,3.7,1.1,7.2,1.6,10.4l-0.3-0.2l16-2.4l4.5-0.6l1.2-0.2L378.2,280.1c-0.2,0.1-0.3,0.1-0.4,0.1l-1.2,0.2l-4.5,0.8l-16,2.6
				h-0.2v-0.2c-0.5-3.2-1.1-6.7-1.7-10.4c-0.3-1.9-0.6-3.8-0.9-5.7c-0.1-1-0.3-2-0.5-3l-0.2-1.5l-0.1-0.8l-0.1-0.4v-0.2v-0.2l0,0
				c-0.2,0.3,0.3-0.4,0.2-0.3l22.1-3.4h0.2v0.2c1,6.6,1.8,12.2,2.4,16.1c0.3,1.9,0.5,3.4,0.6,4.5c0.1,0.5,0.1,0.9,0.2,1.2
				C378.2,279.9,378.2,280,378.2,280.1z"/>
			<path class="st7" d="M405.2,222.4c0.1-0.2,0.2-0.3,0.3-0.4c0.2-0.3,0.5-0.7,0.8-1.2l2.9-4.5c2.5-3.9,6-9.4,10.3-16l0.1,0.3
				l-22.1-14.3l0.4-0.1l0,0l0,0l0,0l-0.1,0.1l-0.1,0.2l-0.2,0.4l-0.5,0.8l-1,1.5l-1.9,3l-3.7,5.7l-6.8,10.4l-0.1-0.3l15.9,10.5
				l4.5,3l1.2,0.8L405.2,222.4c-0.1-0.1-0.2-0.2-0.4-0.3l-1.2-0.7l-4.5-2.9L383,208.2l-0.2-0.1l0.1-0.2c2.1-3.2,4.4-6.7,6.8-10.4
				l3.7-5.7l1.9-2.9l1-1.5l0.5-0.8l0.3-0.4l0.1-0.2l0.1-0.1l0,0l0,0l0,0l0,0l0.4-0.1l22,14.4l0.2,0.1l-0.1,0.2l-10.5,16l-3,4.4
				l-0.8,1.1C405.3,222.2,405.2,222.3,405.2,222.4z"/>
			<path class="st7" d="M390.3,289.7l-0.1,0.2l-0.3,0.5l-1,1.8l-3.6,6.5c-3.1,5.5-7.5,13.2-12.8,22.3l-0.2-0.4h17.9h17.9l-0.2,0.4
				c-5.2-9.1-9.7-16.9-12.8-22.3l-3.6-6.5l-1-1.8c-0.1-0.2-0.2-0.3-0.3-0.5L390.3,289.7c0.1,0.2,0.2,0.4,0.3,0.5l1,1.7l3.8,6.4
				c3.3,5.5,7.8,13.3,13,22.3l0.2,0.4h-0.4h-17.9h-17.9h-0.4l0.2-0.4c5.3-9,9.7-16.8,13-22.3l3.8-6.4l1-1.7
				C390,290.1,390.1,289.9,390.3,289.7z"/>
			<path class="st7" d="M376.1,232.5c0,0,0,0.1,0.1,0.4s0.2,0.7,0.3,1.1l1.2,4c1,3.4,2.3,8.2,3.8,13.9l-0.4-0.1l7.1-7.1l7.1-7.1
				l0.1,0.4c-5.7-1.6-10.5-2.9-13.9-3.8l-4-1.2l-1.1-0.3C376.3,232.6,376.2,232.6,376.1,232.5l0.3,0.1l1,0.3l4,1
				c3.5,0.9,8.4,2.2,14.1,3.6l0.4,0.1l-0.3,0.3c-2.2,2.2-4.6,4.6-7.1,7.1l-7.1,7.1l-0.3,0.3L381,252c-1.5-5.7-2.8-10.5-3.7-14.1
				c-0.4-1.7-0.7-3-1-4l-0.3-1.1C376.1,232.8,376.1,232.6,376.1,232.5z"/>
		</g>
	</g>
	<path class="st4" d="M400.3,231c0,0.1-8,0.5-18,0.7s-18,0.3-18,0.2s8-0.5,18-0.7S400.3,230.9,400.3,231z"/>
	<path class="st4" d="M351.4,191.2c1.3,2.9,2.4,5.8,3.4,8.8c1.1,2.9,2.1,6,2.9,9c-1.3-2.9-2.4-5.8-3.4-8.8
		C353.1,197.2,352.2,194.2,351.4,191.2z"/>
	<path class="st4" d="M406.4,192.4c0,1,0,1.9-0.2,2.9c-0.2,1.8-0.5,4.2-0.9,6.9s-0.9,5.1-1.3,6.8c-0.1,1-0.4,1.9-0.7,2.8
		c0-1,0.2-1.9,0.4-2.9l1.1-6.9c0.4-2.6,0.8-4.9,1.1-6.9C405.9,194.3,406.1,193.3,406.4,192.4z"/>
	<path class="st4" d="M368.2,243.7c-0.2-0.6-0.4-1.2-0.4-1.9c-0.2-3.2,0.5-6.3,2.2-9c0.3-0.6,0.7-1.1,1.2-1.5
		C368.9,235,367.9,239.4,368.2,243.7L368.2,243.7z"/>
	<path class="st4" d="M373.6,238.1c-0.5-1-0.7-2.1-0.6-3.2c-0.1-1.1,0.2-2.2,0.6-3.2c0,1.1,0,2.2-0.1,3.2
		C373.5,236.7,373.8,238.1,373.6,238.1z"/>
	<path class="st4" d="M404.7,299c-0.2-0.1-0.4-0.1-0.6-0.3c-0.4-0.2-1-0.4-1.7-0.9c-2-1.1-3.9-2.5-5.6-4.1c-2.5-2.3-4.7-4.9-6.5-7.8
		c-2.2-3.5-4-7.3-5.3-11.3c-2.7-8.5-3.3-16.6-3.7-22.3c-0.2-2.9-0.3-5.2-0.3-6.9c0-0.8,0-1.4,0-1.9c0-0.2,0-0.4,0-0.6
		c0,0.2,0.1,0.4,0.1,0.6c0,0.5,0.1,1.1,0.1,1.9c0.1,1.7,0.3,4,0.5,6.8c0.5,5.7,1.2,13.8,3.9,22.2c1.3,3.9,3,7.7,5.2,11.2
		c1.8,2.9,3.9,5.5,6.4,7.8c1.7,1.6,3.5,3,5.4,4.1C403.9,298.5,404.7,299,404.7,299z"/>
	<g class="st8">
		<path d="M381.7,249.9c1.4,10.4,6.8,19.8,15,26.3c3,2.3,6.5,4.5,7.7,8.1c1,2.9,0.3,6.1-1,8.9c-0.4,1.2-1.3,2.2-2.4,2.6
			c-1.2,0.3-2.5-0.4-3.5-1.2c-6.6-5-10.8-12.5-13.2-20.4s-3-16.1-3.6-24.4"/>
	</g>
	<path class="st4" d="M421,354.5c0,0.1-16.9,0.3-37.7,0.3s-37.7-0.1-37.7-0.3s16.9-0.3,37.7-0.3S421,354.4,421,354.5z"/>
	<path class="st4" d="M421,146.5c0,0.1-16.9,0.3-37.7,0.3s-37.7-0.1-37.7-0.3s16.9-0.3,37.7-0.3S421,146.4,421,146.5z"/>
	<path class="st4" d="M421,360.8c0,0.1-16.9,0.3-37.7,0.3s-37.7-0.1-37.7-0.3s16.9-0.3,37.7-0.3S421,360.6,421,360.8z"/>
	<path d="M378.1,378.9v10.9h-2.5v-8.9h-2.2v-2L378.1,378.9z"/>
	<path d="M380,384.4c0-3.6,2-5.6,4.7-5.6s4.7,2,4.7,5.6s-2,5.6-4.7,5.6S380,387.9,380,384.4z M386.8,384.4c0-2.5-0.9-3.5-2.1-3.5
		s-2.1,1-2.1,3.5s0.9,3.5,2.1,3.5S386.8,386.8,386.8,384.4L386.8,384.4z"/>
	<path class="st4" d="M396.3,381.3c0.1,1.2-0.7,2.2-1.9,2.4c-0.1,0-0.2,0-0.3,0c-0.4,0-0.8-0.1-1.2-0.3l0.4-0.8
		c0.2,0.2,0.5,0.2,0.8,0.2c0.6,0,1.2-0.4,1.3-1.1c0-0.1,0-0.1,0-0.2c-0.3,0.3-0.7,0.4-1.1,0.4c-0.8,0.1-1.4-0.5-1.5-1.3
		c0,0,0-0.1,0-0.1c0-0.8,0.7-1.5,1.6-1.5c0,0,0.1,0,0.1,0C395.5,379.1,396.3,379.9,396.3,381.3z M395.1,380.5c0-0.4-0.3-0.7-0.8-0.7
		c-0.4,0-0.7,0.2-0.7,0.6c0,0,0,0,0,0.1c0,0.4,0.3,0.7,0.7,0.7c0,0,0.1,0,0.1,0C394.8,381.2,395.1,381,395.1,380.5
		C395.1,380.6,395.1,380.5,395.1,380.5z"/>
	<path class="st4" d="M400.3,381.3c0.1,1.2-0.7,2.2-1.9,2.4c-0.1,0-0.2,0-0.3,0c-0.4,0-0.8-0.1-1.2-0.3l0.4-0.8
		c0.2,0.2,0.5,0.2,0.8,0.2c0.6,0,1.2-0.4,1.2-1.1c0-0.1,0-0.1,0-0.2c-0.3,0.3-0.7,0.4-1.1,0.4c-0.8,0.1-1.4-0.5-1.5-1.3
		c0,0,0-0.1,0-0.1c0-0.8,0.7-1.5,1.6-1.5c0,0,0.1,0,0.1,0C399.6,379.1,400.3,379.9,400.3,381.3z M399.2,380.5
		c0.1-0.4-0.2-0.8-0.7-0.9c-0.4-0.1-0.8,0.2-0.9,0.7c-0.1,0.4,0.2,0.8,0.7,0.9c0,0,0.1,0,0.1,0C398.8,381.2,399.1,381,399.2,380.5
		C399.2,380.6,399.2,380.5,399.2,380.5z"/>
	<rect x="392.5" y="385.2" class="st4" width="7.8" height="1"/>
	<path class="st6" d="M404.9,346.6c0,0.1-9.4,0.3-20.9,0.3s-20.9-0.1-20.9-0.3s9.4-0.3,20.9-0.3S404.9,346.5,404.9,346.6z"/>
	<circle class="st6" cx="439.2" cy="383.6" r="15.1"/>
	<path class="st7" d="M435.4,392.1c0.2-0.3,0.5-0.5,0.8-0.7c0.6-0.5,1.4-1.1,2.4-1.9c2-1.6,4.8-3.7,8-6c0,0.8,0,0.2,0,0.4l0,0l0,0
		l0,0l-0.1-0.1l-0.1-0.1l-0.3-0.2l-0.6-0.4l-1.1-0.8l-2.1-1.6l-3.6-2.7l-2.4-1.9c-0.3-0.2-0.6-0.5-0.8-0.8c0.3,0.2,0.7,0.3,1,0.6
		l2.5,1.8l3.6,2.6l2.1,1.6l1.1,0.8l0.6,0.4l0.3,0.2l0.1,0.1l0.1,0.1l0,0l0,0c0,0.2,0-0.4,0,0.4c-3.1,2.3-6,4.4-8.1,5.9l-2.5,1.8
		C436,391.7,435.7,391.9,435.4,392.1z"/>
	<circle class="st6" cx="325" cy="383.6" r="15.1"/>
	<path class="st7" d="M328.8,375.1c-0.2,0.3-0.5,0.5-0.8,0.8c-0.5,0.5-1.4,1.1-2.4,1.9c-2,1.6-4.8,3.7-8,6v-0.4l0,0l0,0l0.1,0
		l0.1,0.1l0.3,0.2l0.6,0.4l1.1,0.8l2.1,1.6l3.6,2.7c1,0.8,1.8,1.4,2.4,1.9c0.3,0.2,0.6,0.5,0.8,0.7c-0.3-0.2-0.7-0.3-1-0.6l-2.5-1.8
		l-3.6-2.6l-2.1-1.6l-1.1-0.8l-0.6-0.4l-0.3-0.2l-0.1-0.1l-0.1,0l0,0l0,0l0,0v-0.4c3.1-2.3,6-4.4,8-5.9c1-0.7,1.8-1.3,2.5-1.8
		C328.1,375.5,328.5,375.3,328.8,375.1z"/>
	<rect x="314.5" y="409.3" class="st0" width="30.1" height="30.1"/>
	<rect x="352.7" y="409.3" class="st0" width="30.1" height="30.1"/>
	<rect x="390.9" y="409.3" class="st0" width="30.1" height="30.1"/>
	<rect x="429.1" y="409.3" class="st0" width="30.1" height="30.1"/>
	<rect x="354.5" y="136.1" class="st6" width="56.2" height="3.2"/>
</g>
<g id="freepik--Bag--inject-27">
	<path class="st4" d="M596.9,409.6c0-0.2-0.1-0.4,0-0.6c0-0.5,0-1,0-1.7c0-1.5,0-3.7-0.1-6.3c0-1.3,0-2.8,0-4.3c0-0.8,0-1.6,0-2.4
		c0-0.9,0-1.7,0.1-2.6c0.6-4.7,5-8,9.6-7.3c3.4,0.5,6.2,2.9,7.1,6.2c0.2,0.8,0.3,1.7,0.3,2.6c0,0.8,0,1.6,0,2.4c0,1.5,0,3,0,4.3
		c0,2.6-0.1,4.7-0.1,6.3c0,0.7,0,1.3,0,1.7c0,0.2,0,0.4,0,0.6c0-0.2,0-0.4,0-0.6c0-0.5,0-1,0-1.7c0-1.5,0-3.7-0.1-6.3
		c0-1.3,0-2.8,0-4.3c0.1-1.6,0-3.3-0.3-4.9c-1.2-4.3-5.7-6.8-10-5.5c-1.3,0.4-2.5,1.1-3.4,2c-1.3,1.3-2.1,2.9-2.4,4.7
		c-0.1,0.8-0.1,1.7-0.1,2.5c0,0.8,0,1.6,0,2.4c0,1.5,0,3,0,4.3c0,2.6-0.1,4.7-0.1,6.3v1.7C597.3,409.3,597.1,409.5,596.9,409.6z"/>
	<path class="st4" d="M607.3,409.6c0-0.2,0-0.4,0-0.6c0-0.5,0-1,0-1.7c0-1.5,0-3.7-0.1-6.3c0-1.3,0-2.8,0-4.3c0-0.8,0-1.6,0-2.4
		c0-0.9,0-1.7,0.1-2.6c0.5-4,3.8-7.1,7.9-7.4c4-0.3,7.7,2.3,8.8,6.2c0.2,0.8,0.3,1.7,0.3,2.6c0,0.8,0,1.6,0,2.4c0,1.5,0,3,0,4.3
		c0,2.6-0.1,4.7-0.1,6.3c0,0.7,0,1.3,0,1.7c0,0.2,0,0.4,0,0.6c0-0.2-0.1-0.4-0.1-0.6c0-0.5,0-1,0-1.7c0-1.5,0-3.7-0.1-6.3
		c0-1.3,0-2.8,0-4.3c0.1-1.6,0-3.3-0.3-4.9c-1.2-4.3-5.7-6.8-10-5.5c-3.1,0.9-5.3,3.5-5.8,6.6c-0.1,0.8-0.1,1.7-0.1,2.5
		c0,0.8,0,1.6,0,2.4c0,1.5,0,3,0,4.3c0,2.6-0.1,4.7-0.1,6.3l0,1.7C607.6,409.3,607.4,409.5,607.3,409.6z"/>
	<polygon class="st9" points="584.4,405.2 577.5,466.6 625.2,466.6 631.2,405.2 	"/>
	<polygon class="st9" points="631.2,405.2 641.2,405.2 649.6,466.6 625.2,466.6 	"/>
	<g class="st10">
		<polygon points="631.2,405.2 641.2,405.2 649.6,466.6 625.2,466.6 		"/>
	</g>
	<polygon class="st7" points="582.5,422.5 628.3,434.7 626,458.5 579.7,446.7 	"/>
</g>
<g id="freepik--Character--inject-27">
	<path class="st4" d="M510.1,311c-2.1,6.1-2.2,12.6-0.3,18.8c1.1,3.8,3,7.5,2.4,11.4c-0.5,3.2-2.5,5.9-2.9,9.1
		c-0.8,6.4,5.3,12.5,3.7,18.8c-0.9,2.9-3.1,5.2-5.9,6.4c-2.8,1.1-5.8,1.5-8.8,1.1c-4.4-0.4-9.1-2-11.2-6c-1.6-3.1-1.1-6.9-0.5-10.3
		c2.5-15.3,5.3-30.8,11.5-45"/>
	<path class="st4" d="M512.1,358.4c-0.2,0.1-0.3,0.1-0.5,0.2c-0.5,0.1-1,0.2-1.5,0.1c-0.8-0.1-1.6-0.3-2.4-0.7
		c-1-0.5-1.8-1.3-2.3-2.3c-0.6-1.2-0.8-2.6-0.5-3.9c0.2-0.7,0.5-1.4,0.9-2c0.5-0.6,1-1.2,1.7-1.6c1.4-0.9,2.7-1.9,4-3
		c1.2-1.3,2-2.9,2.2-4.6c0.2-1.7,0.1-3.5-0.4-5.2c-0.5-1.6-1-3.1-1.7-4.6c-1.3-2.5-2.3-5.1-3-7.9c-0.5-1.9-0.5-3.8,0-5.7
		c0.2-0.7,0.4-1.3,0.8-1.9c-0.3,0.6-0.5,1.3-0.7,1.9c-0.4,1.8-0.4,3.8,0.1,5.6c0.7,2.7,1.8,5.3,3.1,7.8c0.7,1.5,1.3,3.1,1.8,4.7
		c0.5,1.7,0.6,3.6,0.4,5.3c-0.2,1.8-1,3.5-2.3,4.8c-1.3,1.1-2.6,2.1-4,3c-1.2,0.8-2.1,2.1-2.5,3.5c-0.3,1.3-0.2,2.6,0.4,3.7
		c0.5,1,1.2,1.7,2.1,2.3c0.7,0.4,1.5,0.6,2.3,0.7C510.7,358.6,511.4,358.5,512.1,358.4z"/>
	<path class="st11" d="M451.6,457l-2.5,9.6l-25.8-0.2c0,0,1.9-4.5,16-4.3l1-5L451.6,457z"/>
	<path class="st12" d="M545.3,313.4c-0.3,0.5-6.8,34.1-6.8,34.1l15.4,0.7l6-28.9L545.3,313.4z"/>
	<polygon class="st4" points="538.5,347.5 536.8,346.7 543.5,313.6 545.5,313.4 	"/>
	<path class="st4" d="M551.5,320.7c-0.1,0.4,0.3,0.8,0.7,0.9s0.8-0.3,0.9-0.7c0.1-0.4-0.3-0.8-0.7-0.9c0,0,0,0,0,0
		C552,320,551.6,320.3,551.5,320.7C551.5,320.7,551.5,320.7,551.5,320.7z"/>
	<path class="st11" d="M554.7,344.3l0.2-4.4l-6.6-2.7l2.6-6.1c1.2-2.7,4.3-3.9,7-2.7c0.1,0.1,0.3,0.1,0.4,0.2l2.7,1.4
		c1.9,1,3.2,2.8,3.8,4.9c0.7,3.6,1.2,7.1,1.5,10.8"/>
	<path class="st6" d="M572.3,456.3c0,0,27.1,7.5,28.2,7.9c1.6,0.6,1.4,6.5-1.2,6.5c-1.2,0-20.8,0.7-23.3,0.6s-10-3.1-10-3.1
		L572.3,456.3z"/>
	<path class="st4" d="M583.6,466.6c0.3-1,0.7-2,1.2-2.9c0.6-0.9,1.2-1.7,1.9-2.5C584.8,462.3,583.6,464.4,583.6,466.6z"/>
	<path class="st4" d="M580.8,465.3c0.1,0,0.4-1.3,1.1-2.7s1.6-2.4,1.5-2.5c-0.8,0.6-1.5,1.4-1.9,2.3
		C581,463.3,580.7,464.3,580.8,465.3z"/>
	<path class="st4" d="M578.1,464.6c0.1-1,0.4-1.9,0.6-2.9c0.4-0.9,0.9-1.7,1.5-2.5C578.5,460.4,577.6,462.6,578.1,464.6z"/>
	<path class="st4" d="M578.6,461.1c0.2-0.6,0.3-1.3,0.3-2c0-0.7-0.1-1.5-0.3-2.2c-0.1-0.4-0.2-0.8-0.4-1.3c-0.1-0.3-0.2-0.5-0.4-0.7
		c-0.3-0.2-0.7-0.2-0.9,0c-0.2,0.2-0.3,0.5-0.4,0.8c0,0.2,0,0.5,0,0.7c0,0.4,0.1,0.9,0.2,1.3c0.2,0.7,0.5,1.4,0.8,2.1
		c0.3,0.6,0.7,1.2,1.2,1.6c0.1,0-0.4-0.7-0.9-1.8c-0.3-0.6-0.5-1.3-0.7-2c-0.1-0.4-0.1-0.8-0.1-1.2c0-0.4,0-0.9,0.3-1.1
		c0.1-0.1,0.3-0.1,0.4,0c0.1,0.1,0.2,0.3,0.3,0.5c0.2,0.4,0.3,0.8,0.4,1.2c0.2,0.7,0.3,1.4,0.3,2.1
		C578.7,460.4,578.5,461.1,578.6,461.1z"/>
	<path class="st4" d="M578.6,460.9c-0.6-0.2-1.2-0.3-1.8-0.3c-0.6,0-1.3,0.1-1.9,0.2c-0.4,0.1-0.8,0.2-1.1,0.4
		c-0.5,0.2-0.7,0.7-0.6,1.2c0.1,0.5,0.5,0.9,1,1c0.4,0.1,0.8,0.1,1.2,0c0.6-0.2,1.2-0.5,1.8-0.9c0.5-0.3,0.9-0.8,1.3-1.2
		c-0.5,0.3-1,0.6-1.4,1c-0.5,0.3-1.1,0.6-1.7,0.7c-0.3,0.1-0.7,0.1-1,0c-0.3-0.1-0.6-0.3-0.7-0.6c0-0.3,0.1-0.6,0.4-0.8
		c0.3-0.2,0.7-0.3,1-0.4c0.6-0.2,1.2-0.3,1.8-0.3C577.9,460.8,578.6,460.9,578.6,460.9z"/>
	<path class="st4" d="M587.8,466.9c0.1-0.8,0.3-1.6,0.5-2.4c0.4-0.7,0.8-1.5,1.3-2.1c0-0.1-1.2,0.5-1.8,1.9
		C587.5,465.1,587.4,466.1,587.8,466.9z"/>
	<path class="st4" d="M568.9,468.2c0.3,0.2,0.7,0.4,1,0.5c1,0.4,2,0.7,3,0.9c3.4,0.8,6.9,1.1,10.3,1c4.1,0,7.7-0.2,10.4-0.3l3.1-0.2
		c0.4,0,0.8,0,1.1-0.1c-0.4-0.1-0.8-0.1-1.2,0h-3.1l-10.4,0.2c-3.4,0.1-6.9-0.2-10.3-0.8C570.4,468.7,568.9,468.1,568.9,468.2z"/>
	<path class="st4" d="M568.1,468.8c0.7-0.3,1.3-0.6,2-0.9c1.6-0.8,3.4-1.1,5.1-0.9c1.7,0.4,3.3,1.3,4.4,2.6c0.5,0.6,1,1.1,1.6,1.6
		c-0.4-0.7-0.8-1.3-1.3-1.8c-0.5-0.6-1.1-1.2-1.8-1.7c-0.8-0.6-1.8-1-2.8-1.2c-1.8-0.2-3.7,0.1-5.3,1
		C569.3,467.9,568.6,468.3,568.1,468.8z"/>
	<path class="st6" d="M543.6,448.8c0,0-25.6,16.8-26.6,17.5c-1.4,1,0.2,6,2.6,5.1c1.1-0.4,22.6-6.4,24.9-7.3s8.5-6,8.5-6
		L543.6,448.8z"/>
	<path class="st4" d="M536,462.1c-0.2-1.1-0.9-2-1.7-2.7c-0.8-0.8-1.8-1.3-2.9-1.5c0.9,0.5,1.8,1.1,2.6,1.8
		C534.7,460.4,535.4,461.2,536,462.1z"/>
	<path class="st4" d="M538.3,460c-0.7-1.9-2.1-3.4-4-4.1c-0.1,0.1,1.1,0.8,2.2,1.9S538.2,460.1,538.3,460z"/>
	<path class="st4" d="M540.6,458.5c-0.2-2.1-1.6-3.9-3.7-4.5c0.8,0.6,1.5,1.3,2.2,2C539.7,456.8,540.2,457.7,540.6,458.5z"/>
	<path class="st4" d="M539.1,455.3c0.1,0-0.3-0.7-0.6-1.9c-0.2-0.7-0.3-1.4-0.3-2.1c0-0.4,0-0.8,0-1.3c0-0.2,0.1-0.4,0.1-0.5
		c0.1-0.1,0.2-0.2,0.3-0.1c0.3,0.1,0.5,0.6,0.6,1c0.1,0.4,0.2,0.8,0.3,1.2c0.1,0.7,0,1.4-0.1,2.1c-0.2,1.2-0.4,2-0.3,2
		c0.3-0.6,0.6-1.3,0.7-1.9c0.2-0.7,0.2-1.5,0.2-2.2c0-0.4-0.1-0.9-0.2-1.3c-0.1-0.2-0.2-0.5-0.3-0.7c-0.1-0.3-0.3-0.5-0.6-0.6
		c-0.3-0.1-0.7,0-0.9,0.2c-0.1,0.2-0.2,0.5-0.2,0.8c0,0.4,0,0.9,0,1.3c0.1,0.7,0.2,1.5,0.4,2.2C538.3,454.2,538.6,454.8,539.1,455.3
		z"/>
	<path class="st4" d="M539,455.1c0,0.1,0.6-0.2,1.7-0.5c0.6-0.1,1.2-0.2,1.8-0.3c0.4,0,0.7,0,1,0.1c0.3,0,0.6,0.3,0.6,0.6
		c0,0.3-0.2,0.6-0.4,0.8c-0.3,0.2-0.6,0.3-1,0.3c-0.6,0.1-1.2,0-1.8-0.2c-0.5-0.2-1.1-0.4-1.7-0.5c0.5,0.4,1,0.6,1.6,0.8
		c0.6,0.2,1.3,0.3,1.9,0.3c0.4,0,0.8-0.1,1.2-0.4c0.4-0.3,0.7-0.7,0.6-1.2c-0.1-0.5-0.5-0.9-1-1c-0.4-0.1-0.8-0.1-1.2-0.1
		c-0.6,0-1.3,0.2-1.9,0.4C539.9,454.4,539.4,454.7,539,455.1z"/>
	<path class="st4" d="M522.9,470.5c0,0,0.4-0.3,0.6-1c0.2-1,0-1.9-0.5-2.8c-0.3-0.4-0.5-0.9-0.9-1.3c-0.2-0.3-0.5-0.7-0.9-0.9
		c-0.2-0.2-0.5-0.3-0.8-0.4c-0.2,0-0.3,0-0.3,0.1c0.3,0.1,0.7,0.3,0.9,0.5c0.3,0.3,0.5,0.6,0.7,0.9c0.3,0.4,0.5,0.8,0.8,1.3
		c0.5,0.7,0.7,1.6,0.6,2.5C523.1,469.8,523,470.1,522.9,470.5z"/>
	<path class="st4" d="M532.1,463.6c0-1.9-1.3-3.4-3.2-3.8c0.7,0.5,1.3,1,1.9,1.6C531.3,462.1,531.7,462.9,532.1,463.6z"/>
	<path class="st4" d="M550.5,459.1c-0.4,0.2-0.8,0.5-1.1,0.8c-1,0.7-2.1,1.4-3.2,1.9c-1.6,0.9-3.3,1.6-5,2.2
		c-1.9,0.7-4.1,1.4-6.4,2.1c-4.6,1.3-8.8,2.5-11.8,3.4l-3.6,1.1c-0.4,0.1-0.9,0.3-1.3,0.5c0.5-0.1,0.9-0.2,1.3-0.3l3.6-1
		c3-0.8,7.2-2,11.8-3.3c2.3-0.7,4.5-1.4,6.4-2.1c1.7-0.7,3.4-1.4,5-2.3c1.1-0.6,2.1-1.3,3.1-2.1
		C549.8,459.7,550.2,459.4,550.5,459.1z"/>
	<path class="st4" d="M551.4,459.4c-0.7-0.3-1.4-0.5-2.2-0.6c-1.8-0.3-3.7-0.1-5.4,0.7c-0.9,0.5-1.7,1.2-2.3,2
		c-0.5,0.7-0.9,1.4-1.2,2.1c-0.3,0.7-0.6,1.4-0.7,2.1c0.4-0.6,0.7-1.3,1-2c0.7-1.6,1.9-3,3.4-3.9c1.6-0.7,3.4-1,5.1-0.7
		C550.6,459.3,551.4,459.5,551.4,459.4z"/>
	<path class="st6" d="M482.1,348.8l21,2l8.5,2.4c3.6,1,7,2.9,9.7,5.6l27.5,26.4l5-41l13.8,1.2l-2.3,52.8c-2.1,6.5-8.1,11-15,11
		c-4.1-0.1-8.1-1.7-11.1-4.5l-19.6-18.4l-0.6,26.3l13.6,11l-52.4,29.2c0,0-2.8-11.2-1.5-36c0.2-4.6-8.1-18.4-8.8-22.5
		c-2.5-15.6-2.1-38.5-2.1-38.5L482.1,348.8z"/>
	<path class="st6" d="M469.2,355.2c0,0-10.6,4-13.2,12.3c-2.3,7.4-9.9,48.9-9.9,48.9l-7.5,44l15.8,0.6l18.2-74.9L469.2,355.2z"/>
	<path class="st4" d="M468.5,403.8c0.1-0.3,0.2-0.6,0.3-0.9c0.2-0.6,0.4-1.4,0.7-2.5c0.6-2.1,1.3-5,2-8.3s1.3-6.2,1.7-8.3
		c0.2-1.1,0.3-1.9,0.4-2.5c0.1-0.3,0.1-0.6,0.1-1c-0.1,0.3-0.2,0.6-0.3,0.9c-0.1,0.7-0.3,1.5-0.6,2.5c-0.5,2.2-1.1,5.1-1.8,8.3
		l-1.9,8.3c-0.2,1-0.4,1.8-0.6,2.5C468.6,403.1,468.5,403.4,468.5,403.8z"/>
	<path class="st4" d="M565.3,349.3c0.3-0.7,0.4-1.4,0.4-2.1c0.1-0.7,0.1-1.4,0-2.1c-0.3,0.7-0.4,1.4-0.4,2.1
		C565.1,347.9,565.1,348.6,565.3,349.3z"/>
	<path class="st4" d="M561.2,349.5c0.3-0.7,0.4-1.5,0.3-2.2c0.1-0.7,0.1-1.5-0.1-2.2c-0.3,0.7-0.4,1.5-0.3,2.2
		C561,348,561.1,348.7,561.2,349.5z"/>
	<path class="st4" d="M557.2,349.2c0.3-0.8,0.4-1.6,0.4-2.5c0.1-0.8,0.1-1.7-0.1-2.5c-0.3,0.8-0.4,1.6-0.4,2.5
		C557,347.6,557.1,348.4,557.2,349.2z"/>
	<path class="st4" d="M549.5,391.5c0.1-1.2,0-2.4-0.2-3.6c0-1.2-0.2-2.4-0.6-3.6c-0.1,1.2,0,2.4,0.2,3.6
		C549,389.1,549.2,390.4,549.5,391.5z"/>
	<path class="st4" d="M451.8,456.4c-0.4,0.7-0.6,1.4-0.6,2.2c-0.2,0.7-0.3,1.5-0.2,2.3c0.4-0.7,0.6-1.4,0.6-2.2
		C451.8,457.9,451.9,457.1,451.8,456.4z"/>
	<path class="st4" d="M446.6,456.4c-0.3,0.6-0.5,1.3-0.6,2c-0.2,0.7-0.2,1.4-0.1,2.1c0.3-0.6,0.5-1.3,0.6-2
		C446.7,457.8,446.7,457.1,446.6,456.4z"/>
	<path class="st4" d="M441.7,455.9c-0.3,0.7-0.5,1.5-0.5,2.3c-0.2,0.7-0.3,1.5-0.3,2.3c0.4-0.7,0.6-1.4,0.7-2.2
		C441.8,457.4,441.8,456.6,441.7,455.9z"/>
	<path class="st4" d="M460.7,360.3c0,0.1,1.1,0,2.8,0.4c2.2,0.5,4.3,1.5,6,3c1.7,1.5,3,3.4,3.8,5.6c0.6,1.6,0.7,2.8,0.8,2.7
		c0-0.3,0-0.5,0-0.8c-0.1-0.7-0.2-1.4-0.4-2.1c-0.7-2.3-2-4.3-3.8-5.8c-1.8-1.6-3.9-2.6-6.3-3c-0.7-0.1-1.4-0.2-2.1-0.1
		C461.2,360.2,460.9,360.3,460.7,360.3z"/>
	<path class="st4" d="M517.5,397.4c-0.1,0,0.4-1.3,0.9-3.4c1.3-5.5,1-11.3-0.9-16.7c-0.7-2-1.3-3.3-1.3-3.3s0.2,0.3,0.5,0.8
		c0.4,0.8,0.8,1.6,1.1,2.4c2.1,5.4,2.4,11.3,0.9,16.9c-0.2,0.8-0.5,1.7-0.8,2.5C517.8,396.9,517.6,397.2,517.5,397.4z"/>
	<path class="st4" d="M518.8,411.9c-0.3,0.1-0.6,0.1-0.9,0.1c-0.6,0-1.4,0-2.5-0.1c-5.5-0.5-10.8-2-15.6-4.5
		c-0.9-0.5-1.7-0.9-2.2-1.2c-0.3-0.1-0.5-0.3-0.7-0.5c0-0.1,1.2,0.5,3.1,1.4c4.9,2.3,10.2,3.8,15.5,4.4
		C516.6,411.6,517.7,411.7,518.8,411.9z"/>
	<g class="st8">
		<path d="M495.6,404.6c1.6,1.5,4.2,1.7,6.4,1.6s4.4-0.5,6.6-0.4c2.2-0.1,4.4,0.7,6,2.3c0.5,0.5,0.8,1.1,0.9,1.8
			c0,0.7-0.4,1.3-1,1.6c-0.4,0.1-0.8,0.1-1.3,0C507,410.2,500.4,408.8,495.6,404.6"/>
	</g>
	<g class="st8">
		<path d="M475.4,406.6c1.6-0.5,1.9-2.4,2-4.1c0.7-7-0.7-14-3.9-20.3c-0.8,4.6-2,9.4-3,14.1L475.4,406.6z"/>
	</g>
	<path class="st7" d="M472.5,387.4c-0.4-0.3-0.9-0.5-1.3-0.6c-1.3-0.2-2.7,0.2-3.7,1.1c-1.3,1-2.1,3-2.5,5.3s-0.7,4.9-2.4,7.1
		c-0.8,1.1-2.1,1.8-3.4,2c-1.2,0.2-2.4,0.3-3.6,0.3c-2,0-3.9,0.8-5.4,2.2c-1,0.9-1.7,2.1-2.1,3.4c-0.3,0.9-0.3,1.5-0.4,1.5
		c0-0.1,0-0.3,0-0.4c0-0.4,0.1-0.7,0.2-1.1c0.6-2.3,2.2-4.2,4.4-5.3c1-0.5,2.1-0.7,3.2-0.8c1.2,0,2.4-0.1,3.5-0.3
		c1.2-0.2,2.3-0.9,3.1-1.9c0.7-1,1.3-2.2,1.6-3.4c0.3-1.2,0.5-2.4,0.7-3.5c0.4-2.2,1.2-4.4,2.7-5.5c1.1-0.9,2.6-1.3,4-1
		c0.4,0.1,0.7,0.3,1,0.5C472.4,387.3,472.5,387.4,472.5,387.4z"/>
	<path class="st7" d="M531.9,368.1c-0.3,0.7-0.8,1.4-1.3,2c-1.5,1.7-3.6,2.7-5.8,3.1c-1.5,0.3-3.1,0.1-4.6-0.4
		c-1.6-0.7-3.1-1.6-4.5-2.8c-1.4-1.3-2.9-2.4-4.6-3.3c-0.9-0.4-1.8-0.7-2.8-0.8c-1,0-2,0.1-3,0.4c-1.9,0.7-3.7,1.6-5.4,2.8
		c-1.6,1.1-3.2,2.1-5,3c-1.6,0.7-3.4,1.1-5.1,1.1c-1.5,0-3.1-0.3-4.5-0.8c-2.1-0.7-4-1.9-5.5-3.5c-0.4-0.4-0.8-0.9-1.1-1.4
		c-0.1-0.2-0.2-0.3-0.3-0.5c0,0,0.5,0.7,1.6,1.8c1.5,1.5,3.4,2.7,5.5,3.3c3.1,1,6.4,0.9,9.4-0.4c1.7-0.9,3.3-1.9,4.9-3
		c1.7-1.2,3.5-2.2,5.5-2.9c1-0.3,2.1-0.5,3.2-0.4c1,0.1,2.1,0.4,3,0.8c1.7,1,3.3,2.1,4.7,3.4c1.3,1.2,2.7,2.1,4.3,2.7
		c1.4,0.5,2.9,0.6,4.4,0.4c2.2-0.3,4.1-1.3,5.7-2.9C530.9,369.4,531.4,368.7,531.9,368.1z"/>
	<path class="st7" d="M557.8,407.7c-0.2-0.6-0.3-1.2-0.4-1.8c-0.3-1.7-0.7-3.3-1.4-4.9c-0.5-1.1-1.1-2.1-1.9-2.9
		c-0.9-1-2-1.7-3.3-2.2c-1.4-0.4-2.9-0.5-4.4-0.4c-1.6,0.1-3.3,0-4.9-0.4c-1.6-0.5-3.1-1.3-4.3-2.5c-1.2-1-2.2-2.2-3.2-3.2
		c-1.9-2.1-4-3.8-6-4.3c-1.6-0.4-3.4-0.2-4.8,0.7c-0.5,0.4-0.9,0.8-1.3,1.3c0.1-0.2,0.1-0.3,0.2-0.4c0.3-0.4,0.6-0.7,1-1
		c1.5-1,3.3-1.3,5-0.9c2.2,0.5,4.3,2.2,6.3,4.3c1,1,2,2.2,3.2,3.2c1.2,1.1,2.6,1.9,4.1,2.3c3.1,0.8,6.4-0.1,9.3,0.8
		c1.3,0.5,2.5,1.3,3.4,2.3c0.8,0.9,1.4,1.9,1.9,3.1c0.6,1.6,1.1,3.3,1.3,5c0.1,0.6,0.2,1.1,0.2,1.4
		C557.8,407.4,557.8,407.6,557.8,407.7z"/>
	<path class="st7" d="M518.8,392.6c-0.2,0-0.3,0.1-0.5,0.1c-0.5,0-1,0-1.5,0c-1.8-0.4-3.5-1-5.1-1.9c-1.1-0.5-2.3-1-3.5-1.3
		c-1.4-0.4-2.8-0.4-4.2-0.1c-2.9,0.6-5.8,2.5-8.3,4.8s-4.7,5-7.1,6.8c-2.1,1.7-4.7,2.9-7.4,3.3c-1.8,0.3-3.6,0.3-5.4-0.1
		c-0.5-0.1-1-0.2-1.4-0.4c-0.2,0-0.3-0.1-0.5-0.2c0,0,0.7,0.2,2,0.4c4.5,0.7,9-0.6,12.5-3.4c2.4-1.9,4.5-4.4,7.1-6.8
		s5.5-4.3,8.5-4.9c1.4-0.3,2.9-0.2,4.4,0.2c1.2,0.4,2.4,0.8,3.5,1.4c1.6,0.9,3.3,1.6,5,2C517.5,392.5,518.1,392.5,518.8,392.6z"/>
	<path class="st7" d="M509.6,410.2c-0.7,0.2-1.4,0.4-2,0.8c-1,0.7-1.2,1.7-1.3,1.7s-0.1-0.3,0-0.7c0.2-0.6,0.5-1.1,1-1.4
		c0.5-0.4,1-0.6,1.6-0.6C509.4,410,509.6,410.1,509.6,410.2z"/>
	<path class="st7" d="M518.2,406.1c-0.2,1.1-0.6,2.1-1.3,3c-0.5,1-1.3,1.8-2.3,2.4c0.6-0.9,1.2-1.8,1.9-2.6
		C517,407.9,517.5,407,518.2,406.1z"/>
	<path class="st7" d="M483.2,420.2c0,0.1-1.1-0.2-2.5-0.2s-2.4,0.3-2.5,0.1c0.7-0.5,1.6-0.7,2.5-0.6
		C481.6,419.5,482.5,419.7,483.2,420.2z"/>
	<path class="st7" d="M454.5,371.7c0,0,0.2,0.1,0.6,0.2c0.6,0.1,1.2,0.1,1.8-0.2c0.8-0.4,1.6-1,2.1-1.8c0.7-1,1.4-1.9,2.2-2.8
		c1.6-1.5,3.5-2.6,5.7-3.1c0.6-0.1,1.3-0.2,2-0.3c0.5,0,0.7,0,0.7,0.1s-1,0.1-2.6,0.5c-2,0.6-3.9,1.6-5.4,3.1
		c-0.8,0.9-1.5,1.8-2.2,2.7c-0.6,0.8-1.4,1.4-2.4,1.8c-0.6,0.2-1.4,0.2-2,0C454.7,371.9,454.5,371.7,454.5,371.7z"/>
	<path class="st7" d="M508,352c0,0-0.3,0.6-1.1,1.3c-1.1,0.9-2.4,1.6-3.7,1.9c-1.4,0.4-2.8,0.4-4.2,0.1c-0.6-0.1-1.1-0.3-1.6-0.6
		c0.6,0,1.1,0.1,1.7,0.2c1.3,0.1,2.7,0.1,4-0.3c1.3-0.3,2.5-0.9,3.6-1.7C507.1,352.6,507.5,352.3,508,352z"/>
	<path class="st7" d="M463.1,426.5c0,0-0.4,0-1.1,0.2c-1,0.3-2,0.7-2.8,1.4c-1.2,1-2.3,2.2-3,3.5c-0.9,1.5-1.6,3.4-2.6,5.2
		c-0.8,1.8-2.1,3.4-3.6,4.7c-1.3,1.1-2.9,1.6-4.5,1.5c-1.1,0-2.1-0.4-3-1.1c-0.2-0.2-0.4-0.4-0.6-0.6c-0.1-0.2-0.2-0.3-0.1-0.3
		s0.3,0.3,0.9,0.8c0.9,0.6,1.9,0.9,2.9,0.9c1.6,0,3.1-0.5,4.2-1.5c1.4-1.3,2.6-2.8,3.4-4.5c0.9-1.8,1.7-3.6,2.6-5.2
		c0.8-1.4,1.9-2.6,3.2-3.6c0.9-0.6,1.9-1.1,3-1.3c0.3,0,0.6,0,0.9,0C463,426.5,463.1,426.5,463.1,426.5z"/>
	<g class="st13">
		<path d="M548.5,384.7c-1.8,2.2-2.5,5.1-1.8,7.8c0.1,0.5,0.3,0.9,0.8,1.1c0.4,0.1,0.8-0.1,1-0.4c0.2-0.3,0.4-0.6,0.4-1
			c0.6-2.5,0.5-5.2-0.1-7.7"/>
	</g>
	<path class="st7" d="M567.2,361.6c-1,0.9-1.8,1.9-2.5,3c-0.7,1.2-1.3,2.5-1.8,3.9c-0.6,1.5-1.1,3.2-1.9,5c-0.7,1.7-1.8,3.2-3.1,4.4
		c-1.1,1-2.5,1.6-4,1.8c-1,0.1-2,0-2.9-0.4c-0.2-0.1-0.5-0.3-0.7-0.4c-0.2-0.1-0.2-0.2-0.2-0.2s0.3,0.2,1,0.4
		c0.9,0.3,1.9,0.4,2.8,0.2c1.4-0.2,2.7-0.9,3.8-1.8c1.3-1.2,2.3-2.6,3-4.2c0.8-1.7,1.3-3.4,2-4.9c0.5-1.4,1.2-2.7,2-3.9
		c0.5-0.8,1.2-1.6,1.9-2.2C566.7,361.9,566.9,361.7,567.2,361.6z"/>
	<path class="st7" d="M568,350.5c-0.5,0.6-1.1,1.1-1.8,1.5c-3.2,2.1-7.1,2.9-10.8,2.1c-0.8-0.1-1.5-0.4-2.2-0.8
		c0-0.1,0.9,0.2,2.3,0.4c3.7,0.5,7.4-0.2,10.6-2.1C567.3,351,568,350.4,568,350.5z"/>
	<path class="st4" d="M575.4,456c0,0-62.8-41.3-65.4-42.1s-8.8-4.9-15-3.2s-11.8,7.3-14.6,15.4s-3,26.4-3,26.4s4.9,14.4,14.6,17.4
		c0.8,0.3,1.7,0.5,2.5,0.6c11.8,2.2,23.8-3,30.3-13.1l1.4-2.1c0,0,41.1,15.1,41.8,14.9L575.4,456z"/>
	<path class="st4" d="M596.8,407.9c4.7,1.9,7.7,6.4,7.7,11.4c0.1,16.5-33.4,34.8-33.4,34.8l-44.5-29.5v-3.1
		C526.7,421.4,584,400.8,596.8,407.9z"/>
	<path class="st12" d="M497.7,444.6l0.4,0.2l1,0.4l4,1.5l14.8,5.6c6.3,2.3,13.8,5.1,22.3,8.2s17.8,6.5,27.8,9.8l0.2,0.1l0.1-0.2
		l4.9-9.4l2.5-4.8l0.1-0.2l-0.2-0.1l-47.9-30.4l-14.4-9.1l-3.9-2.4l-1-0.6l-0.4-0.2l0.3,0.2l1,0.7l3.9,2.5l14.3,9.2l47.9,30.5
		l-0.1-0.3l-2.5,4.8l-4.9,9.4l0.3-0.1c-10-3.4-19.4-6.7-27.8-9.8l-22.3-8.1l-14.9-5.4l-4-1.5l-1-0.4L497.7,444.6z"/>
	<path class="st12" d="M549.3,439.4c0.4-0.2,0.8-0.5,1.2-0.8c0.7-0.5,1.8-1.3,3-2.3c2.5-2,6-4.8,9.7-8s7-6.2,9.3-8.4
		c1.2-1.1,2.1-2,2.7-2.7c0.4-0.3,0.7-0.6,1-1c-0.4,0.3-0.7,0.6-1.1,0.9l-2.8,2.5c-2.4,2.2-5.7,5.1-9.4,8.3s-7.2,6-9.7,8.1l-3,2.4
		C549.9,438.7,549.6,439,549.3,439.4z"/>
	<path class="st12" d="M584.3,414.1c-1.4-0.2-2.9-0.1-4.3,0.4c-1.4,0.3-2.7,1-3.8,2c0.1,0.1,1.7-0.9,3.9-1.6
		S584.3,414.2,584.3,414.1z"/>
	<path class="st12" d="M580.5,411.5c-2.1,0.9-3.6,2.8-4,5c0.1,0,0.6-1.4,1.7-2.7S580.5,411.6,580.5,411.5z"/>
	<path class="st4" d="M599.3,463.7c0,0-0.5-0.2-1.2,0.4c-0.7,0.7-1.2,1.6-1.3,2.6c-0.1,1,0,2,0.4,2.9c0.3,0.7,0.7,1,0.7,1
		s-0.2-0.4-0.4-1.1c-0.3-0.9-0.4-1.8-0.3-2.7c0.1-0.9,0.5-1.7,1-2.4C598.8,463.8,599.3,463.8,599.3,463.7z"/>
	<path class="st4" d="M470.5,316.6c-2.5-2.4-6.5-2.4-8.9,0.1c-0.1,0.1-0.2,0.2-0.3,0.3c-1.2,1.6-2,3.6-2.1,5.6c-0.2,2-0.6,4-1.2,5.9
		c-0.6,2-2.2,3.5-4.2,4c-1.5,0.3-3.3-0.2-4.4,0.8c-0.9,1-1,2.5-0.3,3.6c0.8,1.1,1.8,1.9,3.1,2.3c0.5,0.2,1,0.5,1,1
		c0,0.7-0.9,0.9-1.5,1.2c-1.9,0.8-2.4,3.4-1.4,5.2c1.2,1.7,3.1,2.7,5.2,2.6c2-0.1,4-0.6,5.9-1.4c-0.7,0.8-0.7,2-0.1,2.9
		c0.7,0.8,1.8,1.2,2.8,1.1c1-0.2,2-0.7,2.8-1.4c1.5-1.5,2.4-3.4,2.7-5.5c0.3-2,0.4-4.1,0.4-6.2c0-7.4,0.6-14.7,1.6-22"/>
	<path class="st11" d="M491.8,302.4c8.1,0.4,14.5,7.1,14.5,15.2c0,6.3-0.1,13.1-0.5,17.2c-0.9,9.4-8,11-8,11s0.2,5.9,0.5,11.4
		c0.3,5.3-4,10-9.7,10.4l0,0c-5.6,0.5-10.4-3.4-10.8-8.6l-1.9-40.7c-0.4-8.4,6.1-15.5,14.5-15.9
		C490.8,302.4,491.3,302.4,491.8,302.4L491.8,302.4z"/>
	<path class="st4" d="M504.1,321.7c0.1,0.7-0.4,1.2-1.1,1.3c0,0,0,0,0,0c-0.6,0.1-1.2-0.3-1.3-1c0,0,0,0,0,0c0-0.7,0.4-1.2,1.1-1.3
		C503.4,320.6,504,321,504.1,321.7C504.1,321.7,504.1,321.7,504.1,321.7z"/>
	<path class="st4" d="M504.1,319.8c-0.1,0.2-1.1-0.5-2.4-0.4s-2.2,0.8-2.3,0.6s0.1-0.4,0.5-0.7c0.5-0.4,1.2-0.7,1.9-0.7
		c0.7,0,1.3,0.1,1.9,0.5C504,319.5,504.1,319.8,504.1,319.8z"/>
	<path class="st4" d="M490.7,322.4c0,0.6-0.4,1.2-1.1,1.3c-0.6,0.1-1.2-0.4-1.3-1c0,0,0,0,0,0c0-0.6,0.4-1.2,1.1-1.3
		C490,321.3,490.6,321.7,490.7,322.4C490.7,322.4,490.7,322.4,490.7,322.4z"/>
	<path class="st4" d="M490.6,321.1c-0.1,0.2-1.1-0.5-2.4-0.4s-2.2,0.8-2.4,0.6s0.1-0.4,0.5-0.7c0.5-0.4,1.2-0.7,1.9-0.7
		c0.7,0,1.3,0.1,1.9,0.5C490.5,320.7,490.7,321,490.6,321.1z"/>
	<path class="st4" d="M495.9,330.4c0.7-0.3,1.4-0.4,2.1-0.5c0.3,0,0.6-0.1,0.7-0.4c0-0.4-0.1-0.7-0.3-1l-1.1-2.5
		c-1-2.1-1.9-4.2-2.6-6.4c1.2,2,2.2,4.1,3.1,6.2c0.4,0.9,0.7,1.7,1.1,2.5c0.2,0.4,0.3,0.8,0.3,1.3c-0.1,0.2-0.3,0.4-0.5,0.5
		c-0.2,0.1-0.4,0.1-0.5,0.1C497.3,330.4,496.6,330.4,495.9,330.4z"/>
	<path class="st14" d="M497.8,345.8c-4.4,0.2-8.8-0.8-12.8-2.8c0,0,3.5,6.7,12.9,5.5L497.8,345.8z"/>
	<path class="st4" d="M486.4,317.5c0.1,0.2,1.1-0.2,2.3-0.4s2.2-0.3,2.2-0.6s-1.1-0.7-2.4-0.4S486.2,317.3,486.4,317.5z"/>
	<path class="st4" d="M499.2,315.2c0.1,0.3,1.1,0.2,2.4,0.3s2.3,0.1,2.4-0.2s-1-0.8-2.4-0.8S499.1,314.9,499.2,315.2z"/>
	<path class="st4" d="M478.3,354.1c-0.1-1.9,2.1-10.4,3-15.5s-2.5-6-3.1-9.1c-0.3-2,0.1-4.1,1-6c4.9,1.8,6.9-1.8,9.6-3.8
		c2.9-2.2,3.5-4.9,4.7-8.4s2.5-5.6,6.1-5.9c2.2,1.2,3.9,3.2,4.8,5.5c1.1,3.2,2,15.7,2,15.7c0.5-6,5.4-8.5,4-17.4
		c-0.6-3.8-3.7-9-8.6-9.8c-1.4-0.2-4.1-0.4-4.1-0.4c-2.9-2.6-4.3-2.5-7.1-3.8c-6-2.7-13.3,2.1-17.3,7.3c-3.1,4-4.6,9.5-5.4,14.6
		c-0.5,3.6-0.6,7.2-0.2,10.7c0.2,2.1-0.1,4.8-2.2,6.5c-3,2.3-3.8,6.8-1.7,12.7s-5.6,16-5.6,16c2.1-1.7,4.4-3.3,6.8-4.6
		C468.1,357,478.3,354.1,478.3,354.1z"/>
	<path class="st14" d="M494.3,333.5c-0.5-0.5-1.1-0.7-1.8-0.6c-0.5,0.1-0.9,0.4-1.2,0.8c-0.3,0.4-0.3,0.9,0,1.3
		c0.4,0.4,0.9,0.5,1.4,0.3c0.5-0.2,0.9-0.5,1.3-0.9c0.1-0.1,0.2-0.2,0.3-0.3C494.5,333.8,494.5,333.6,494.3,333.5"/>
	<path class="st4" d="M491.5,331.8c0.2,0,0.3,1.1,1.3,1.9s2.3,0.5,2.3,0.7s-0.3,0.3-0.8,0.3c-0.7,0.1-1.4-0.1-1.9-0.5
		c-0.5-0.4-0.9-1-1-1.6C491.3,332.1,491.4,331.8,491.5,331.8z"/>
	<path class="st4" d="M450.7,329.2c0,0.4,0,0.9,0.1,1.3c0.1,0.5,0.3,1,0.5,1.4c0.3,0.6,0.8,1.1,1.4,1.4c0.7,0.4,1.6,0.4,2.3,0.1
		c0.8-0.4,1.4-1.2,1.5-2.1c0.2-1,0.2-2.1,0.2-3.1c0-1.1-0.1-2.2-0.1-3.4c-0.1-2.2,0.3-4.4,1.3-6.4c0.8-1.7,2.2-2.9,4-3.4
		c1.2-0.3,2.4-0.2,3.6,0.3c0.4,0.2,0.7,0.5,1,0.8c-0.3-0.3-0.7-0.5-1.1-0.7c-1.1-0.5-2.3-0.5-3.5-0.2c-1.7,0.5-3.1,1.8-3.8,3.4
		c-0.9,2-1.3,4.1-1.2,6.3c0,1.2,0.1,2.3,0.1,3.4c0.1,1.1,0,2.1-0.2,3.2c-0.2,1-0.8,1.8-1.7,2.3c-0.8,0.3-1.7,0.3-2.5-0.1
		c-0.6-0.3-1.1-0.8-1.5-1.5c-0.2-0.5-0.4-1-0.5-1.5C450.6,330.1,450.6,329.6,450.7,329.2z"/>
	<path class="st12" d="M464.5,349.5c-0.2-0.1-0.4-0.3-0.5-0.5c-0.4-0.5-0.6-1.2-0.7-1.9c-0.1-1.1,0.1-2.1,0.5-3.1
		c0.7-1.2,1.5-2.3,2.6-3.3c1.3-1.1,2.4-2.3,3.4-3.7c1-1.6,1.4-3.6,1.2-5.5c-0.3-2.1-0.4-4.3-0.5-6.4c0-1.2,0.3-2.3,0.8-3.3
		c0.5-1.1,1.4-2,2.4-2.5c2.1-1.2,4.5-1.5,6.4-2.6c1.8-1.1,3.3-2.7,4.1-4.6c0.9-1.8,1.6-3.6,2.4-5.3c0.7-1.6,1.8-2.9,3.1-4
		c1.1-0.9,2.5-1.4,3.9-1.3c1.1,0.1,2.1,0.5,2.9,1.2c0.5,0.4,0.9,1,1.1,1.6c0.1,0.2,0.1,0.3,0.1,0.5c0,0.1,0,0.2,0,0.2s0-0.2-0.2-0.7
		c-0.2-0.6-0.6-1.2-1.1-1.6c-0.8-0.7-1.8-1-2.8-1.1c-1.4,0-2.7,0.5-3.8,1.4c-1.3,1.1-2.3,2.4-3.1,3.9c-0.8,1.6-1.5,3.4-2.4,5.3
		c-0.9,2-2.4,3.7-4.2,4.8c-2,1.1-4.3,1.4-6.4,2.6c-1,0.5-1.8,1.4-2.3,2.4c-0.5,1-0.7,2.1-0.8,3.2c0,2.1,0.2,4.3,0.5,6.4
		c0.2,2-0.2,3.9-1.2,5.6c-1,1.4-2.2,2.6-3.5,3.7c-1,0.9-1.9,2-2.6,3.2c-0.5,0.9-0.7,2-0.6,3C463.5,348,463.9,348.8,464.5,349.5z"/>
	<path class="st7" d="M467,321.1c-0.9-1.9-0.4-4.3,1.2-5.7c-0.4,0.9-0.7,1.8-1,2.8C467.1,319.1,467,320.1,467,321.1z"/>
	<path class="st4" d="M470.3,349.9c-0.7,5,0.3,10.1,2.9,14.5c0.9,1.6,2.1,2.9,3.6,3.9c1.5,1,3.4,1.3,5.1,0.7
		c1.7-0.6,2.8-2.3,2.6-4.2c-0.4-2.5-3.5-4.1-3.5-6.6c1.1,0.7,2.6,1.3,3.6,0.5c0.6-0.7,0.8-1.6,0.4-2.5c-0.4-0.8-0.9-1.5-1.5-2.2
		c-2.3-2.9-3.3-6.7-2.7-10.4c0.1-1,0.4-4.1,0.4-5.2s-0.3,0-1-0.7c-0.8-0.6-1.9-0.8-2.9-0.5c-1,0.3-1.8,0.9-2.5,1.6
		c-2.4,2.3-3.6,5.6-3.5,8.9"/>
</g>
<g id="freepik--Plant--inject-27">
	<path class="st0" d="M200.7,291.1c0-0.1,0-0.1-0.1-0.2c-0.1-0.2-0.2-0.4-0.3-0.6c-0.3-0.5-0.8-1.3-1.4-2.2
		c-1.8-2.6-4.2-4.8-6.9-6.5c-1.9-1.1-4-1.9-6.2-2.3c-2.5-0.4-5.1-0.1-7.5,0.8c-2.7,0.9-5,2.8-6.4,5.2c-1.5,2.6-2,5.6-2.8,8.5
		c-0.4,1.4-1,2.8-1.8,4c-0.8,1.2-1.8,2.2-3,3c-1.1,0.8-2.4,1.6-3.4,2.5c-1.1,0.9-2,1.9-2.8,3c-1.4,2.1-2.4,4.5-2.9,7
		c-0.4,2.2-0.5,4.4-0.4,6.6c0.3,3.2,0.8,6.3,1.7,9.3c0.3,1.1,0.5,1.9,0.7,2.5c0.1,0.3,0.2,0.6,0.3,0.9c0,0,0-0.3-0.2-0.9
		s-0.4-1.5-0.6-2.5c-0.8-3.1-1.3-6.2-1.5-9.3c-0.1-2.2,0-4.3,0.4-6.4c0.5-2.4,1.4-4.7,2.8-6.8c0.8-1.1,1.7-2.1,2.7-2.9
		c1.1-0.9,2.3-1.6,3.4-2.5c1.2-0.8,2.3-1.9,3.2-3.1c0.8-1.3,1.4-2.7,1.9-4.2c0.9-2.9,1.3-5.9,2.8-8.4c1.4-2.3,3.6-4.1,6.1-5.1
		c2.3-0.9,4.8-1.1,7.3-0.8c2.1,0.3,4.2,1.1,6,2.1c2.7,1.6,5,3.8,6.9,6.3c0.7,0.9,1.1,1.6,1.5,2.1
		C200.3,290.6,200.5,290.9,200.7,291.1z"/>
	<path class="st0" d="M162.9,301.7c0.8-0.7,1.2-0.2,2.3,0c1.1,0.2,2.1,0.7,2.9,1.4c3.7,3.1,5.3,8.1,3.9,12.7c-5.2,0.3-9.7-3.7-10-9
		c-0.1-1.8,0.3-3.7,1.3-5.3"/>
	<path class="st0" d="M195.6,286.8c0.4-1,1-0.7,2-1c1.1-0.3,2.2-0.2,3.2,0.1c4.7,1.2,8.2,5,9,9.8c-4.6,2.5-10.4,0.8-12.9-3.8
		c-0.9-1.6-1.3-3.5-1.1-5.3"/>
	<path class="st0" d="M155.8,321.8c4-4.6,11-5,15.5-1c0.6,0.6,1.2,1.2,1.7,1.9c-2.4,2.2-5.6,3.5-8.9,3.5c-3.3-0.1-6.5-1.4-9-3.6"/>
	<path class="st0" d="M158.4,306.8c-6.1,0.2-11.2-4.6-11.4-10.8c0-0.8,0-1.7,0.2-2.5c5.4-1.2,10.7,2.2,11.9,7.6
		c0.4,1.8,0.3,3.7-0.3,5.5"/>
	<path class="st0" d="M169.9,289.1c-5.7,2.2-12.1-0.6-14.4-6.3c-0.3-0.8-0.5-1.6-0.6-2.4c4.7-2.9,10.9-1.5,13.8,3.2
		c1,1.6,1.5,3.4,1.5,5.3"/>
	<path class="st0" d="M173.8,283.4c5.7-2.2,12.1,0.6,14.4,6.3c0.3,0.8,0.5,1.6,0.6,2.5c-4.7,2.9-10.9,1.5-13.8-3.2
		c-1-1.6-1.5-3.4-1.5-5.3"/>
	<path class="st0" d="M178.4,280.3c-5.8-2-8.9-8.2-7-14c0.3-0.8,0.6-1.5,1.1-2.3c5.5,0.8,9.3,5.8,8.5,11.3c-0.3,1.9-1,3.6-2.2,5"/>
	<path class="st0" d="M190.1,280.8c-2.1-5.8,0.9-12.1,6.6-14.2c0.8-0.3,1.6-0.5,2.4-0.6c2.8,4.7,1.3,10.9-3.5,13.7
		c-1.6,1-3.5,1.4-5.3,1.4"/>
	<polyline class="st4" points="142.7,360.4 136.4,321 184.5,321.6 179.7,359.8 	"/>
	<path class="st9" d="M163.4,313.8c2.4,1.6,5.4,1.9,8,0.7c2.5-1.4,4.2-4,4.4-6.9c-2.5-1.3-5.4-1.4-8-0.4c-2.5,1.1-4.5,3.3-5.3,5.9"
		/>
	<path class="st9" d="M185.4,322.3c2.4,1.6,5.4,1.9,8,0.7c2.5-1.4,4.2-4,4.4-6.9c-2.5-1.3-5.4-1.4-8-0.4c-2.5,1.1-4.5,3.3-5.3,5.9"
		/>
	<path class="st9" d="M173.1,303.4c1.1,2.6,3.5,4.5,6.3,5c2.9,0.2,5.7-1.1,7.4-3.4c-2.4-4.5-8-6.2-12.5-3.8
		c-0.6,0.3-1.1,0.7-1.6,1.1"/>
	<path class="st9" d="M181.1,313.2c-2.8-0.1-5.6,1.2-7.2,3.5c-1.4,2.5-1.5,5.6-0.2,8.1c5.1-0.2,9-4.5,8.8-9.6c0-0.7-0.1-1.3-0.3-1.9
		"/>
	<path class="st9" d="M188.8,328.7c-1.3,2.5-1.3,5.5,0.2,8c1.7,2.4,4.4,3.7,7.3,3.6c1-2.6,0.8-5.5-0.5-8c-1.3-2.3-3.5-3.4-6.4-4.1"
		/>
	<path class="st6" d="M201.6,330.5c-0.5-0.5-1.2-0.9-1.9-1.2c-0.8-0.3-1.7-0.4-2.6-0.5c-1.2,0-2.4,0.1-3.6,0.2
		c-1.5,0.2-3,0.1-4.4-0.4c-1.6-0.6-2.9-1.9-3.6-3.5c-0.8-1.7-1.3-3.5-1.6-5.3c-0.3-1.9-0.9-3.8-1.9-5.5c-1.1-1.6-2.5-3-4.1-4.1
		c-1.5-1.1-2.8-2.5-3.9-3.9c-1.7-2.7-2.4-5.9-1.9-9c0.3-2.1,1.1-4.1,2.4-5.8c0.3-0.5,0.7-0.9,1.1-1.3c0.1-0.1,0.3-0.3,0.5-0.4
		c-0.1,0.2-0.2,0.3-0.4,0.5c-0.4,0.4-0.7,0.9-1.1,1.3c-2.9,4.3-3,10-0.2,14.5c1.1,1.4,2.4,2.7,3.8,3.8c1.6,1.2,3,2.6,4.2,4.2
		c1,1.7,1.6,3.6,1.9,5.6c0.3,1.8,0.8,3.5,1.5,5.2c0.6,1.5,1.8,2.7,3.3,3.3c1.4,0.4,2.8,0.6,4.2,0.4c1.2-0.1,2.4-0.2,3.6-0.1
		c0.9,0,1.8,0.2,2.7,0.6c0.5,0.2,1,0.5,1.4,0.9C201.3,330.2,201.4,330.3,201.6,330.5C201.6,330.4,201.6,330.5,201.6,330.5z"/>
	<path class="st6" d="M201.6,330.5c-0.5-0.5-1.2-0.9-1.9-1.2c-0.8-0.3-1.7-0.4-2.6-0.5c-1.2,0-2.4,0.1-3.6,0.2
		c-1.5,0.2-3,0.1-4.4-0.4c-1.6-0.6-2.9-1.9-3.6-3.5c-0.8-1.7-1.3-3.5-1.6-5.3c-0.3-1.9-0.9-3.8-1.9-5.5c-1.1-1.6-2.5-3-4.1-4.1
		c-1.5-1.1-2.8-2.5-3.9-3.9c-1.7-2.7-2.4-5.9-1.9-9c0.3-2.1,1.1-4.1,2.4-5.8c0.3-0.5,0.7-0.9,1.1-1.3c0.1-0.1,0.3-0.3,0.5-0.4
		c-0.1,0.2-0.2,0.3-0.4,0.5c-0.4,0.4-0.7,0.9-1.1,1.3c-2.9,4.3-3,10-0.2,14.5c1.1,1.4,2.4,2.7,3.8,3.8c1.6,1.2,3,2.6,4.2,4.2
		c1,1.7,1.6,3.6,1.9,5.6c0.3,1.8,0.8,3.5,1.5,5.2c0.6,1.5,1.8,2.7,3.3,3.3c1.4,0.4,2.8,0.6,4.2,0.4c1.2-0.1,2.4-0.2,3.6-0.1
		c0.9,0,1.8,0.2,2.7,0.6c0.5,0.2,1,0.5,1.4,0.9C201.3,330.2,201.4,330.3,201.6,330.5C201.6,330.4,201.6,330.5,201.6,330.5z"/>
	<path class="st9" d="M109.9,334.5c0.4-6.7-4.8-12.4-11.5-12.8c-1.7-0.1-3.4,0.2-4.9,0.8c2.9,6.5,9,10.9,16,11.8"/>
	<path class="st9" d="M106.7,336.2c-2.3,2.6-2.2,6.7-0.5,9.8s4.6,5.2,7.5,7.2c2-6.8-0.7-14.1-6.8-17.9"/>
	<path class="st9" d="M118.1,324.1c0.8,7.7,7.6,13.3,15.3,12.6c0.2,0,0.4,0,0.6-0.1c-0.9-3.8-2.4-7.6-5.3-10.1s-7.5-3.5-10.7-1.4"/>
	<path class="st9" d="M118,320.3c-0.6-3.4-4-5.9-7.4-6.3s-6.9,1.2-9.7,3.3c4.4,5,11.9,5.8,17.2,1.7"/>
	<path class="st9" d="M100.1,349.5c-3.3,2.8-4.1,7.8-2.8,11.9s4.6,7.4,8.2,9.8c1.4-4.1,2.3-8.5,1.5-12.7s-3.3-8.3-7.2-10.1"/>
	<path class="st9" d="M117.5,310.6c3.2-4.6,9.5-5.8,14.1-2.6c0.7,0.5,1.4,1.1,1.9,1.7c-2,4.4-7.1,6.4-11.6,4.4
		c-1.8-0.8-3.3-2.2-4.2-4"/>
	<path class="st9" d="M121.5,300.7c-7,2.1-14.3-1.8-16.4-8.8c-0.2-0.5-0.3-1-0.4-1.5c2.6-0.3,5.3-0.3,7.9,0.1c2.6,0.4,5.1,1.6,7,3.5
		C121.4,295.7,122.1,298.3,121.5,300.7"/>
	<path class="st9" d="M129.1,298.1c-4.6-3.8-5.3-10.6-1.5-15.2c0.4-0.5,0.9-1,1.4-1.4c2.4,2.9,4,6.4,4.7,10c0.3,1.4,0.3,2.8,0,4.1
		c-0.4,1.4-1.5,2.4-2.9,2.7"/>
	<g class="st10">
		<path d="M109.9,334.5c0.4-6.7-4.8-12.4-11.5-12.8c-1.7-0.1-3.4,0.2-4.9,0.8c2.9,6.5,9,10.9,16,11.8"/>
	</g>
	<g class="st10">
		<path d="M106.7,336.2c-2.3,2.6-2.2,6.7-0.5,9.8s4.6,5.2,7.5,7.2c2-6.8-0.7-14.1-6.8-17.9"/>
	</g>
	<g class="st10">
		<path d="M118.1,324.1c0.8,7.7,7.6,13.3,15.3,12.6c0.2,0,0.4,0,0.6-0.1c-0.9-3.8-2.4-7.6-5.3-10.1s-7.5-3.5-10.7-1.4"/>
	</g>
	<g class="st10">
		<path d="M118,320.3c-0.6-3.4-4-5.9-7.4-6.3s-6.9,1.2-9.7,3.3c4.4,5,11.9,5.8,17.2,1.7"/>
	</g>
	<g class="st10">
		<path d="M100.1,349.5c-3.3,2.8-4.1,7.8-2.8,11.9s4.6,7.4,8.2,9.8c1.4-4.1,2.3-8.5,1.5-12.7s-3.3-8.3-7.2-10.1"/>
	</g>
	<g class="st10">
		<path d="M117.5,310.6c3.2-4.6,9.5-5.8,14.1-2.6c0.7,0.5,1.4,1.1,1.9,1.7c-2,4.4-7.1,6.4-11.6,4.4c-1.8-0.8-3.3-2.2-4.2-4"/>
	</g>
	<g class="st10">
		<path d="M121.5,300.7c-7,2.1-14.3-1.8-16.4-8.8c-0.2-0.5-0.3-1-0.4-1.5c2.6-0.3,5.3-0.3,7.9,0.1c2.6,0.4,5.1,1.6,7,3.5
			C121.4,295.7,122.1,298.3,121.5,300.7"/>
	</g>
	<g class="st10">
		<path d="M129.1,298.1c-4.6-3.8-5.3-10.6-1.5-15.2c0.4-0.5,0.9-1,1.4-1.4c2.4,2.9,4,6.4,4.7,10c0.3,1.4,0.3,2.8,0,4.1
			c-0.4,1.4-1.5,2.4-2.9,2.7"/>
	</g>
	<path class="st12" d="M142.3,322.3c0-0.1,0-0.2,0-0.3c0-0.2,0-0.5,0.1-0.8c0-0.7,0.1-1.7,0.1-3c0.2-3.7-0.4-7.4-1.8-10.9
		c-1-2.4-2.5-4.5-4.4-6.2c-2.2-1.9-5.1-3-8-2.9c-1.6,0-3.1,0.4-4.5,1.1c-1.4,0.8-2.6,1.9-3.5,3.3c-1.7,2.9-2.2,6.5-2,10
		s0.6,7.1,0.2,10.6c-0.2,1.7-0.6,3.3-1.3,4.9c-0.7,1.5-1.7,2.8-3,3.9c-1.3,0.9-2.6,1.6-4.1,2.1c-1.3,0.5-2.6,1-3.9,1.8
		c-2.2,1.4-3.9,3.3-5.1,5.5c-1,1.9-1.5,4-1.5,6.1c0,1.6,0.3,3.2,0.8,4.7c0.5,1.3,1.1,2.5,1.8,3.6c0,0-0.1-0.1-0.2-0.2
		c-0.2-0.2-0.3-0.4-0.5-0.6c-0.6-0.8-1-1.8-1.4-2.7c-0.6-1.5-0.9-3.1-0.9-4.8c0-2.2,0.5-4.3,1.4-6.2c1.2-2.4,3-4.3,5.2-5.8
		c2.4-1.6,5.5-2,7.9-3.9s3.7-5.1,4.1-8.5s-0.1-6.9-0.3-10.5s0.3-7.3,2.1-10.3c0.9-1.5,2.2-2.7,3.7-3.5c1.5-0.8,3.1-1.2,4.7-1.2
		c3.1,0,6,1.1,8.3,3.1c2,1.7,3.5,3.9,4.4,6.4c0.8,2,1.3,4.1,1.5,6.2c0.2,1.6,0.2,3.2,0.1,4.8c0,1.3-0.1,2.4-0.2,3
		c0,0.3-0.1,0.6-0.1,0.8C142.3,322.1,142.3,322.2,142.3,322.3z"/>
	<g class="st10">
		<path d="M142.3,322.3c0-0.1,0-0.2,0-0.3c0-0.2,0-0.5,0.1-0.8c0-0.7,0.1-1.7,0.1-3c0.2-3.7-0.4-7.4-1.8-10.9
			c-1-2.4-2.5-4.5-4.4-6.2c-2.2-1.9-5.1-3-8-2.9c-1.6,0-3.1,0.4-4.5,1.1c-1.4,0.8-2.6,1.9-3.5,3.3c-1.7,2.9-2.2,6.5-2,10
			s0.6,7.1,0.2,10.6c-0.2,1.7-0.6,3.3-1.3,4.9c-0.7,1.5-1.7,2.8-3,3.9c-1.3,0.9-2.6,1.6-4.1,2.1c-1.3,0.5-2.6,1-3.9,1.8
			c-2.2,1.4-3.9,3.3-5.1,5.5c-1,1.9-1.5,4-1.5,6.1c0,1.6,0.3,3.2,0.8,4.7c0.5,1.3,1.1,2.5,1.8,3.6c0,0-0.1-0.1-0.2-0.2
			c-0.2-0.2-0.3-0.4-0.5-0.6c-0.6-0.8-1-1.8-1.4-2.7c-0.6-1.5-0.9-3.1-0.9-4.8c0-2.2,0.5-4.3,1.4-6.2c1.2-2.4,3-4.3,5.2-5.8
			c2.4-1.6,5.5-2,7.9-3.9s3.7-5.1,4.1-8.5s-0.1-6.9-0.3-10.5s0.3-7.3,2.1-10.3c0.9-1.5,2.2-2.7,3.7-3.5c1.5-0.8,3.1-1.2,4.7-1.2
			c3.1,0,6,1.1,8.3,3.1c2,1.7,3.5,3.9,4.4,6.4c0.8,2,1.3,4.1,1.5,6.2c0.2,1.6,0.2,3.2,0.1,4.8c0,1.3-0.1,2.4-0.2,3
			c0,0.3-0.1,0.6-0.1,0.8C142.3,322.1,142.3,322.2,142.3,322.3z"/>
	</g>
	<path class="st12" d="M212.3,313.7c0.4-1.1,0.7-2.3,0.7-3.5c0-1.4-0.3-2.8-0.9-4.1c-0.9-1.7-2.2-3-3.9-3.8c-1-0.5-2-0.7-3.1-0.8
		c-1.2-0.1-2.3,0.1-3.4,0.4c-2.4,0.6-4.7,2-7.5,2.5c-1.4,0.3-2.9,0.3-4.3-0.1c-1.5-0.5-2.7-1.5-3.5-2.8c-1.7-2.6-2.1-5.9-4.2-8.3
		c-1-1.2-2.3-2-3.8-2.5c-1.4-0.5-2.9-0.6-4.4-0.5c-2.9,0.3-5.5,1.7-7.4,3.8c-1.7,2-3,4.3-3.7,6.8c-0.6,2.2-0.9,4.4-0.8,6.7
		c0.2,3.3,0.6,6.6,1.3,9.8l0.4,2.7c0,0.3,0.1,0.5,0.1,0.7c0,0.1,0,0.2,0,0.2c0,0,0-0.1-0.1-0.2l-0.2-0.7c-0.1-0.6-0.3-1.5-0.6-2.6
		c-0.7-3.2-1.2-6.5-1.4-9.8c-0.1-2.3,0.1-4.6,0.8-6.8c0.7-2.6,2-5,3.7-7c1-1.1,2.1-2,3.4-2.7c2.7-1.5,6-1.8,8.9-0.9
		c1.6,0.5,2.9,1.4,4,2.6c2.1,2.6,2.6,5.9,4.2,8.3c0.7,1.2,1.9,2.2,3.3,2.6c1.3,0.4,2.7,0.4,4.1,0.1c2.7-0.5,5-1.8,7.4-2.5
		c1.2-0.3,2.4-0.5,3.6-0.4c1.1,0.1,2.2,0.4,3.2,0.9c3.1,1.5,5,4.7,4.9,8.2c0,0.9-0.2,1.8-0.5,2.7
		C212.5,313.1,212.4,313.4,212.3,313.7z"/>
	<path class="st9" d="M184.2,296.3c2.6,1.6,5.8,1.8,8.6,0.6c2.5-1.4,4.1-4,4.4-6.9c-2.5-1.3-5.4-1.4-8-0.4c-2.5,1.1-4.5,3.3-5.3,5.9
		"/>
	<path class="st9" d="M193.3,304.5c0,3,1.5,5.9,4,7.6c2.5,1.4,5.6,1.5,8.2,0.1c-0.2-2.8-1.6-5.3-3.8-7c-2.3-1.6-5.1-2.1-7.8-1.4"/>
	<path class="st9" d="M209.1,302.7c2.7,1.3,5.9,1.1,8.6-0.4c2.3-1.7,3.7-4.4,3.6-7.3c-4.7-1.9-10.1,0.3-12,5
		c-0.3,0.6-0.4,1.3-0.6,1.9"/>
	<path class="st9" d="M170.9,290.8c-2.3-2-3.9-5.5-3.4-8.1c0.6-2.8,2.6-5.2,5.3-6.2c1.9,2,2.9,4.7,2.7,7.5c-0.3,2.7-1.8,5.2-4.1,6.8
		"/>
	<path class="st12" d="M109.2,279.5c0-0.1,0-0.1,0.1-0.2l0.3-0.6c0.3-0.5,0.7-1.3,1.4-2.2c1.8-2.6,4.2-4.8,6.9-6.5
		c1.9-1.1,4-1.9,6.2-2.3c2.5-0.4,5.1-0.1,7.5,0.8c2.7,0.9,4.9,2.8,6.4,5.2c1.5,2.6,1.9,5.6,2.8,8.5c0.4,1.4,1,2.8,1.8,4
		c0.8,1.2,1.9,2.2,3.1,3c1.1,0.8,2.3,1.6,3.4,2.5c1.1,0.9,2,1.9,2.8,3c1.4,2.1,2.4,4.5,2.9,7c0.4,2.2,0.5,4.4,0.4,6.6
		c-0.3,3.2-0.8,6.3-1.7,9.3c-0.3,1.1-0.5,1.9-0.7,2.5c-0.1,0.3-0.2,0.6-0.3,0.9c0-0.3,0.1-0.6,0.2-0.9c0.1-0.6,0.3-1.5,0.6-2.5
		c0.8-3.1,1.3-6.2,1.5-9.3c0.1-2.2,0-4.3-0.4-6.4c-0.5-2.4-1.4-4.7-2.8-6.8c-0.8-1.1-1.7-2.1-2.7-2.9c-1.1-0.9-2.3-1.6-3.4-2.5
		c-1.2-0.8-2.3-1.9-3.2-3.1c-0.8-1.3-1.4-2.7-1.9-4.2c-0.9-2.9-1.4-5.9-2.8-8.4c-1.4-2.3-3.6-4.1-6.1-5.1c-2.3-0.9-4.8-1.1-7.3-0.8
		c-2.1,0.3-4.2,1-6,2.1c-2.7,1.6-5,3.8-6.9,6.3c-0.7,0.9-1.1,1.6-1.5,2.1C109.6,279,109.4,279.2,109.2,279.5z"/>
	<path class="st9" d="M147,290.1c-0.8-0.7-1.2-0.2-2.3,0c-1.1,0.2-2.1,0.7-2.9,1.4c-3.7,3.1-5.3,8.1-3.9,12.8c5.2,0.3,9.7-3.8,9.9-9
		c0.1-1.8-0.4-3.7-1.3-5.3"/>
	<path class="st9" d="M114.3,275.2c-0.4-1-1-0.7-2-1c-1.1-0.2-2.2-0.2-3.2,0.1c-4.7,1.2-8.2,5-9,9.8c4.6,2.4,10.4,0.7,12.8-4
		c0.8-1.6,1.2-3.3,1.1-5.1"/>
	<path class="st9" d="M154.1,310.2c-4-4.6-11-5-15.5-1c-0.6,0.6-1.2,1.2-1.7,1.8c2.4,2.2,5.6,3.5,8.9,3.5c3.3-0.1,6.5-1.4,9-3.6"/>
	<path class="st9" d="M151.5,295.2c6.1,0.2,11.2-4.6,11.4-10.7c0-0.8,0-1.7-0.2-2.5c-5.4-1.2-10.7,2.2-11.9,7.6
		c-0.4,1.8-0.3,3.7,0.3,5.5"/>
	<path class="st9" d="M140,277.5c5.7,2.2,12.1-0.6,14.4-6.3c0.3-0.8,0.5-1.6,0.6-2.4c-4.6-2.9-10.8-1.6-13.7,3.1
		c-1,1.6-1.6,3.5-1.5,5.4"/>
	<path class="st9" d="M136.1,271.8c-5.7-2.2-12.1,0.6-14.4,6.3c-0.3,0.8-0.5,1.6-0.6,2.4c4.7,2.9,10.8,1.5,13.8-3.1
		c1-1.6,1.5-3.5,1.5-5.4"/>
	<path class="st9" d="M131.5,268.6c5.8-2,8.9-8.3,6.9-14.1c-0.3-0.8-0.6-1.5-1-2.2c-5.5,0.8-9.3,5.8-8.5,11.3c0.3,1.9,1,3.6,2.2,5.1
		"/>
	<path class="st9" d="M119.8,269.2c2.1-5.8-0.9-12.1-6.6-14.2c-0.8-0.3-1.6-0.5-2.4-0.6c-2.8,4.7-1.3,10.8,3.4,13.7
		c1.6,1,3.5,1.5,5.5,1.4"/>
	<polygon class="st4" points="135.8,355.8 139.5,360.4 184.7,360.4 187.8,355.8 	"/>
	<path class="st12" d="M186.8,355.8c0,0.1-11.1,0.3-24.8,0.3s-24.8-0.1-24.8-0.3s11.1-0.3,24.8-0.3S186.8,355.6,186.8,355.8z"/>
	<path class="st12" d="M181.7,338.6c0,0-0.1,0.1-0.3,0.4c-0.3,0.4-0.6,0.7-0.9,1c-1.2,1.1-2.5,2.1-4,2.8c-2.2,1.1-4.6,1.7-7.1,1.8
		c-1.4,0.1-2.9-0.1-4.3-0.4c-1.5-0.4-3-0.8-4.4-1.5c-2.9-1.2-5.6-2.6-8.1-3.5c-2.2-0.8-4.6-1-7-0.7c-1.6,0.3-3.1,1-4.3,2
		c-0.9,0.8-1.2,1.3-1.2,1.3c0.1-0.1,0.1-0.3,0.2-0.4c0.3-0.4,0.5-0.7,0.9-1c1.2-1.1,2.7-1.9,4.4-2.2c2.4-0.4,4.9-0.2,7.3,0.6
		c2.6,0.8,5.3,2.2,8.2,3.5c1.4,0.6,2.8,1.1,4.3,1.4c1.4,0.3,2.8,0.4,4.2,0.4c2.4-0.1,4.7-0.6,6.9-1.7
		C178.3,341.4,180.1,340.1,181.7,338.6z"/>
	<path class="st12" d="M182.1,335.1c-0.1,0.1-0.2,0.2-0.3,0.4c-0.3,0.3-0.6,0.6-1,0.9c-1.3,1-2.7,1.9-4.2,2.6
		c-2.2,1-4.6,1.6-7.1,1.7c-1.4,0.1-2.9,0-4.3-0.3c-1.5-0.3-3-0.7-4.5-1.3c-3-1.1-5.7-2.3-8.3-3.1c-2.3-0.7-4.7-0.9-7.1-0.6
		c-1.6,0.2-3.1,0.8-4.5,1.7c-0.9,0.7-1.4,1.2-1.4,1.1s0.1-0.1,0.3-0.4c0.3-0.3,0.6-0.6,1-0.9c1.3-1,2.9-1.7,4.5-1.9
		c2.4-0.4,4.9-0.2,7.3,0.5c2.7,0.7,5.4,2,8.4,3c1.4,0.5,2.9,0.9,4.4,1.3c1.4,0.3,2.8,0.4,4.2,0.3c2.4-0.1,4.8-0.6,7-1.6
		C178.6,337.6,180.5,336.5,182.1,335.1z"/>
</g>
<g id="freepik--Boxes--inject-27">
	<rect x="76.9" y="402.4" class="st9" width="96.1" height="64.3"/>
	<g class="st10">
		<rect x="76.9" y="402.4" width="96.1" height="64.3"/>
	</g>
	<rect x="153.5" y="402.5" class="st6" width="7.6" height="13"/>
	<rect x="152.7" y="453.7" class="st6" width="7.6" height="13"/>
	<path class="st4" d="M104.4,466.6c-0.1,0-0.3-14.4-0.3-32.2s0.1-32.2,0.3-32.2s0.3,14.4,0.3,32.2S104.6,466.6,104.4,466.6z"/>
	<path class="st4" d="M138.5,437.4c0,0.1-13.8,0.3-30.9,0.3s-30.9-0.1-30.9-0.3s13.8-0.3,31-0.3S138.5,437.3,138.5,437.4z"/>
	<path class="st4" d="M105.9,402.2c0.7-0.6,1.4-1.2,2.2-1.7c3.8-2.5,8.2-3.9,12.8-4c0.5,0,1.1,0,1.6,0.1c0.6,0.2,1,0.7,1.1,1.3
		c0,0.6-0.2,1.2-0.7,1.6c-0.5,0.4-1,0.7-1.6,0.9c-5,1.9-10.5,2.4-15.8,1.5h-0.2v-0.2c0.3-3.4,1.1-6.8,2.3-10c0.6-1.7,1.4-3.4,2.3-5
		c0.5-0.9,1.1-1.6,1.9-2.2c0.8-0.6,1.9-0.8,2.9-0.5c1,0.3,1.8,1.2,2,2.3c0.2,1,0.1,2.1-0.3,3c-0.8,1.8-1.9,3.6-3.2,5.1
		c-2.5,3.3-5.7,6.1-9.2,8.3L104,403h-0.1l-1.1-0.3l-1.1-0.4c-3.1-1.2-5.9-3.1-8.1-5.7c-1.1-1.2-1.9-2.6-2.6-4.1
		c-0.4-0.7-0.6-1.6-0.6-2.4c0-0.5,0.3-0.9,0.8-1.1c0.4-0.1,0.9-0.1,1.3,0.1c5.6,2.5,9.7,7.4,11.1,13.3l-0.4,0.1
		c-2.5-6.3-3.8-13-3.8-19.8c0-0.8,0.1-1.5,0.4-2.3c0.1-0.4,0.4-0.7,0.7-1c0.3-0.2,0.7-0.4,1.1-0.4c0.8,0.1,1.5,0.5,1.8,1.2
		c0.4,0.6,0.6,1.2,0.8,1.9c0.5,2.4,0.8,4.8,0.9,7.2c0.2,3.4,0.1,6.8-0.3,10.2c-0.1,1.2-0.3,2.1-0.4,2.7c-0.1,0.3-0.1,0.5-0.1,0.7
		s0,0.2-0.1,0.2c0-0.1,0-0.2,0-0.2c0-0.2,0-0.4,0.1-0.7c0.1-0.6,0.2-1.5,0.3-2.7c0.3-3.4,0.4-6.8,0.1-10.1c-0.2-2.4-0.5-4.8-1-7.1
		c-0.1-0.6-0.4-1.2-0.7-1.8c-0.3-0.6-0.9-0.9-1.5-1c-0.7,0-1.2,0.5-1.4,1.1c-0.3,0.7-0.4,1.4-0.4,2.1c0,6.7,1.3,13.4,3.9,19.6
		l-0.4,0.1c-1.4-5.8-5.4-10.5-10.8-12.9c-0.3-0.1-0.7-0.2-1-0.1c-0.3,0.1-0.5,0.4-0.5,0.7c0,0.7,0.2,1.5,0.6,2.1
		c0.7,1.4,1.5,2.8,2.5,4c2.1,2.5,4.8,4.4,7.8,5.5l1.1,0.4l1.1,0.3h-0.2c3.5-2.1,6.6-4.9,9.1-8.2c1.2-1.5,2.3-3.2,3.1-5
		c0.4-0.8,0.5-1.8,0.3-2.7c-0.2-0.9-0.8-1.6-1.6-1.9c-0.9-0.2-1.8,0-2.5,0.5c-0.7,0.5-1.3,1.2-1.8,2c-0.9,1.6-1.7,3.2-2.3,4.9
		c-1.2,3.2-1.9,6.5-2.2,9.9l-0.2-0.2c5.2,0.9,10.6,0.4,15.6-1.4c0.5-0.2,1-0.5,1.4-0.8c0.4-0.4,0.6-0.9,0.6-1.4
		c0-0.5-0.4-0.9-0.8-1.1c-0.5-0.1-1-0.2-1.5-0.1c-1.9,0-3.7,0.3-5.5,0.8c-2.5,0.6-5,1.6-7.2,3c-0.8,0.5-1.3,0.9-1.7,1.1
		S105.9,402.2,105.9,402.2z"/>
	<rect x="138.3" y="360.6" class="st6" width="158.6" height="106.1"/>
	<g class="st8">
		<rect x="241.8" y="360.6" width="55.1" height="106.1"/>
	</g>
	<rect x="264.7" y="360.8" class="st9" width="12.6" height="21.5"/>
	<rect x="263.4" y="445.3" class="st9" width="12.6" height="21.5"/>
	<path class="st4" d="M183.7,466.6c-0.1,0-0.3-23.8-0.3-53.1s0.1-53.1,0.3-53.1s0.3,23.8,0.3,53.1S183.8,466.6,183.7,466.6z"/>
</g>
<g id="freepik--Socks--inject-27">
	<g>
		<defs>
			<path id="SVGID_3_" d="M222.7,221.2l16.8-12.2l21.9,25.9c2.3,2.8,3.2,6.5,2.3,10l-7.4,28c-1.1,4.4-5.2,7.3-9.7,7l0,0
				c-5.2-0.4-9.1-4.9-8.7-10c0-0.2,0-0.4,0.1-0.6l3.2-25.3L222.7,221.2z"/>
		</defs>
		<clipPath id="SVGID_4_">
			<use xlink:href="#SVGID_3_"  style="overflow:visible;"/>
		</clipPath>
		<g class="st15">
			<path class="st6" d="M222.7,221.2l16.8-12.2l21.9,25.9c2.3,2.8,3.2,6.5,2.3,10l-7.4,28c-1.1,4.4-5.2,7.3-9.7,7l0,0
				c-5.2-0.4-9.1-4.9-8.7-10c0-0.2,0-0.4,0.1-0.6l3.2-25.3L222.7,221.2z"/>
			<path class="st7" d="M238.9,242.6c-0.2-0.3-0.3-0.7-0.4-1c-0.4-0.9-0.7-1.8-0.9-2.7c-1.8-6.2-1.8-12.7,0-18.9
				c0.3-0.9,0.6-1.8,1-2.7c0.1-0.3,0.3-0.7,0.4-1c-0.1,0.3-0.2,0.7-0.3,1c-0.2,0.6-0.5,1.6-0.9,2.8c-1.7,6.1-1.7,12.6,0,18.8
				c0.3,1.2,0.6,2.1,0.9,2.8C238.7,241.8,238.8,242.2,238.9,242.6z"/>
			<path class="st7" d="M239.3,230.4c-0.8,1.2-1.3,2.6-1.7,4c-0.3,1.4-0.3,2.9-0.1,4.3c-0.2-0.4-0.3-0.8-0.3-1.3
				c-0.3-2.1,0.2-4.2,1.3-6C238.7,231,238.9,230.7,239.3,230.4z"/>
			<path class="st7" d="M233.7,224.8c0.3,0.2,0.6,0.5,0.8,0.9c0.6,0.8,1,1.6,1.3,2.5c0.3,0.9,0.5,1.8,0.6,2.8c0,0.4,0,0.8-0.1,1.2
				c-0.1-1.3-0.4-2.6-0.8-3.8C235,227,234.4,225.9,233.7,224.8z"/>
			<path class="st7" d="M239.7,221.7c-1.7,1.5-2.8,3.5-3.2,5.8C236.5,225.1,237.7,222.9,239.7,221.7z"/>
			<path class="st7" d="M237.1,216.6c0.7,1.7,0.7,3.6-0.1,5.3c-0.1,0,0.3-1.2,0.3-2.6S237,216.6,237.1,216.6z"/>
			<path class="st7" d="M257.3,278.2c-0.2-0.3-0.3-0.7-0.4-1c-0.4-0.9-0.7-1.8-0.9-2.7c-1.8-6.2-1.8-12.7,0-18.9
				c0.3-0.9,0.6-1.8,1-2.7c0.1-0.3,0.3-0.7,0.4-1c-0.1,0.3-0.2,0.7-0.3,1c-0.2,0.6-0.5,1.6-0.9,2.8c-1.7,6.1-1.7,12.6,0,18.8
				c0.3,1.2,0.6,2.1,0.9,2.8C257.1,277.5,257.2,277.9,257.3,278.2z"/>
			<path class="st7" d="M257.6,266c-0.8,1.2-1.3,2.6-1.7,4c-0.3,1.4-0.3,2.9-0.1,4.3c-0.2-0.4-0.3-0.8-0.3-1.3
				c-0.1-1-0.1-2.1,0.1-3.1c0.2-1,0.6-2,1.2-2.9C257,266.7,257.3,266.3,257.6,266z"/>
			<path class="st7" d="M252,260.4c0,0,0.4,0.3,0.8,0.9c0.6,0.8,1,1.6,1.3,2.5c0.3,0.9,0.5,1.8,0.6,2.8c0,0.4,0,0.8-0.1,1.2
				c-0.1-1.3-0.4-2.6-0.8-3.8C253.3,262.7,252.7,261.5,252,260.4z"/>
			<path class="st7" d="M258,257.3c-0.8,0.8-1.5,1.7-2.1,2.6c-0.5,1-0.9,2.1-1.1,3.1c-0.1-1.2,0.2-2.3,0.8-3.3
				C256.2,258.7,257,257.9,258,257.3z"/>
			<path class="st7" d="M255.4,252.3c0.7,1.7,0.7,3.6-0.1,5.3c-0.1,0,0.3-1.2,0.3-2.6S255.3,252.3,255.4,252.3z"/>
			<path class="st7" d="M248.7,264c-0.2-0.3-0.3-0.7-0.4-1c-0.4-0.9-0.7-1.8-1-2.7c-1.8-6.2-1.8-12.7,0-18.9c0.3-0.9,0.6-1.8,1-2.7
				c0.1-0.3,0.3-0.7,0.4-1c-0.1,0.3-0.2,0.7-0.3,1c-0.2,0.6-0.5,1.6-0.9,2.8c-1.7,6.1-1.7,12.6,0,18.8c0.3,1.2,0.6,2.1,0.9,2.8
				C248.5,263.3,248.6,263.6,248.7,264z"/>
			<path class="st7" d="M249.1,251.8c-0.8,1.2-1.3,2.6-1.7,3.9c-0.3,1.4-0.3,2.9-0.1,4.3c-0.2-0.4-0.3-0.8-0.3-1.3
				c-0.3-2.1,0.2-4.2,1.3-6C248.4,252.4,248.7,252,249.1,251.8z"/>
			<path class="st7" d="M243.4,246.2c0.3,0.2,0.6,0.5,0.8,0.9c0.6,0.8,1,1.6,1.3,2.5c0.3,0.9,0.5,1.8,0.6,2.8c0,0.4,0,0.8-0.1,1.1
				C245.8,250.8,244.9,248.3,243.4,246.2L243.4,246.2z"/>
			<path class="st7" d="M249.4,243.1c-0.8,0.8-1.5,1.7-2.1,2.6c-0.5,1-0.9,2.1-1.1,3.1C246.2,246.5,247.5,244.3,249.4,243.1
				L249.4,243.1z"/>
			<path class="st7" d="M230.4,231.5c-0.2-0.3-0.3-0.7-0.4-1c-0.4-0.9-0.7-1.8-0.9-2.7c-1.8-6.2-1.8-12.7,0-18.9
				c0.3-0.9,0.6-1.8,1-2.7c0.1-0.3,0.3-0.7,0.4-1c-0.1,0.3-0.2,0.7-0.3,1c-0.2,0.6-0.5,1.6-0.9,2.8c-1.7,6.1-1.7,12.6,0,18.8
				c0.3,1.2,0.6,2.1,0.9,2.8C230.3,230.7,230.4,231.1,230.4,231.5z"/>
			<path class="st7" d="M230.8,219.3c-0.8,1.2-1.3,2.6-1.7,3.9c-0.3,1.4-0.3,2.9-0.1,4.3c-0.2-0.4-0.3-0.8-0.3-1.3
				c-0.1-1-0.1-2.1,0.1-3.1c0.2-1,0.6-2,1.2-2.9C230.2,219.9,230.5,219.6,230.8,219.3z"/>
			<path class="st7" d="M225.2,213.7c0.3,0.2,0.6,0.5,0.8,0.9c0.6,0.8,1,1.6,1.3,2.5c0.3,0.9,0.5,1.8,0.6,2.8c0,0.4,0,0.8-0.1,1.2
				C227.6,218.3,226.7,215.8,225.2,213.7L225.2,213.7z"/>
			<path class="st7" d="M231.2,210.6c-0.8,0.8-1.5,1.7-2.1,2.6c-0.5,1-0.9,2.1-1.1,3.1c-0.1-1.2,0.2-2.3,0.8-3.3
				C229.4,212,230.2,211.1,231.2,210.6z"/>
			<path class="st7" d="M245.6,214.6c0.2,0.3,0.4,0.6,0.6,0.9c0.6,0.8,1.1,1.6,1.5,2.5c3.1,5.6,4.5,12,4,18.4
				c-0.1,1-0.2,1.9-0.4,2.9c0,0.3-0.1,0.7-0.2,1c0-0.4,0-0.7,0.1-1.1c0.1-0.7,0.2-1.7,0.3-2.9c0.3-6.4-1.1-12.7-4-18.3
				c-0.6-1.1-1.1-1.9-1.4-2.5C245.9,215.2,245.8,214.9,245.6,214.6z"/>
			<path class="st7" d="M247.9,226.6c0.5-1.4,0.8-2.8,0.8-4.2c0-1.4-0.3-2.9-0.8-4.2c0.3,0.3,0.5,0.7,0.6,1.1c0.4,1,0.5,2,0.5,3.1
				c0,1-0.2,2.1-0.5,3.1C248.3,225.8,248.1,226.2,247.9,226.6z"/>
			<path class="st7" d="M254.6,230.8c-0.4-0.2-0.7-0.4-0.9-0.7c-0.7-0.6-1.3-1.4-1.8-2.1c-0.5-0.8-0.9-1.7-1.1-2.6
				c-0.1-0.4-0.2-0.8-0.2-1.1c0.4,1.2,0.9,2.4,1.6,3.6C252.8,228.9,253.6,229.9,254.6,230.8z"/>
			<path class="st7" d="M249.4,235.2c0.6-0.9,1.1-1.9,1.4-3c0.3-1.1,0.4-2.2,0.4-3.3c0.3,1.1,0.3,2.3-0.1,3.4
				C250.8,233.4,250.2,234.4,249.4,235.2z"/>
			<path class="st7" d="M253,239.6c-0.6-0.7-1-1.6-1.1-2.5c-0.2-0.9-0.2-1.8,0-2.7c0.1,0,0,1.2,0.3,2.6S253.1,239.5,253,239.6z"/>
			<path class="st7" d="M256.7,234.9c0.2,0.3,0.4,0.6,0.6,0.9c0.6,0.8,1.1,1.6,1.5,2.5c3.1,5.6,4.5,12,4,18.5
				c-0.1,1-0.2,1.9-0.4,2.9c0,0.3-0.1,0.7-0.2,1c0-0.3,0-0.7,0.1-1c0.1-0.7,0.2-1.7,0.3-2.9c0.3-6.4-1.1-12.7-4-18.3
				c-0.6-1.1-1-1.9-1.4-2.5C257,235.5,256.8,235.2,256.7,234.9z"/>
			<path class="st7" d="M258.9,246.9c0.5-1.4,0.8-2.8,0.8-4.2c-0.1-1.4-0.3-2.9-0.8-4.2c0.3,0.4,0.4,0.7,0.6,1.2
				c0.4,1,0.5,2,0.5,3.1c0,1-0.2,2.1-0.5,3.1C259.4,246.2,259.2,246.6,258.9,246.9z"/>
			<path class="st7" d="M265.6,251.1c-0.4-0.2-0.7-0.4-1-0.7c-0.7-0.6-1.3-1.4-1.8-2.1c-0.5-0.8-0.9-1.7-1.1-2.6
				c-0.1-0.4-0.2-0.8-0.2-1.1c0.4,1.2,0.9,2.4,1.6,3.6C263.9,249.2,264.7,250.2,265.6,251.1z"/>
			<path class="st7" d="M260.4,255.5c0.6-0.9,1.1-1.9,1.5-3c0.3-1.1,0.4-2.2,0.4-3.3c0.3,1.1,0.3,2.3-0.1,3.4
				C261.9,253.7,261.3,254.7,260.4,255.5z"/>
			<path class="st7" d="M264.1,259.9c-0.6-0.7-1-1.6-1.1-2.5c-0.2-0.9-0.2-1.8,0-2.7c0.1,0,0,1.2,0.3,2.6
				C263.5,258.8,264.1,259.8,264.1,259.9z"/>
			<path class="st7" d="M231.4,250.3c0.3,0.2,0.6,0.4,0.9,0.6c0.8,0.6,1.5,1.2,2.2,1.9c4.6,4.5,7.9,10.1,9.4,16.4
				c0.2,0.9,0.4,1.9,0.5,2.9c0.1,0.3,0.1,0.7,0.1,1.1c-0.1-0.3-0.2-0.7-0.2-1c-0.1-0.7-0.3-1.6-0.6-2.8c-0.8-3.1-2-6-3.6-8.8
				c-1.6-2.7-3.5-5.3-5.8-7.5c-0.9-0.9-1.6-1.5-2.1-2C232,250.8,231.7,250.6,231.4,250.3z"/>
			<path class="st7" d="M237.2,261.1c0.1-1.4-0.1-2.9-0.5-4.3c-0.5-1.4-1.1-2.6-2-3.8c0.4,0.3,0.7,0.6,0.9,0.9
				c1.3,1.7,1.9,3.8,1.8,5.9C237.4,260.2,237.4,260.7,237.2,261.1z"/>
			<path class="st7" d="M244.9,263.1c-0.4,0-0.8-0.2-1.1-0.4c-1.7-0.8-3.2-2-4.2-3.6c-0.2-0.3-0.4-0.6-0.5-1c0.8,1.1,1.6,2,2.6,2.9
				C242.6,261.8,243.7,262.5,244.9,263.1z"/>
			<path class="st7" d="M241.2,268.8c0.3-1.1,0.5-2.2,0.5-3.3c-0.1-1.1-0.3-2.2-0.6-3.3C242.3,264.3,242.3,266.7,241.2,268.8
				L241.2,268.8z"/>
			<path class="st7" d="M246,271.9c-0.8-0.5-1.4-1.2-1.8-2c-0.5-0.8-0.7-1.7-0.8-2.6c0.1,0,0.3,1.2,1,2.4S246.1,271.8,246,271.9z"/>
			<path class="st7" d="M255.4,279.6c-0.1-6.2-5.3-11.1-11.5-11c-2.5,0.1-4.8,0.9-6.8,2.5l2.1,7.1l9.1,4.4L255.4,279.6z"/>
			<path class="st7" d="M267.6,252.8c-6.1-0.4-10.8-5.6-10.4-11.8c0.2-3.1,1.7-5.9,4-7.9l9.3,5.9L267.6,252.8z"/>
		</g>
	</g>
	<g class="st10">
		<path d="M222.7,221.2l16.8-12.2l21.9,25.9c2.3,2.8,3.2,6.5,2.3,10l-7.4,28c-1.1,4.4-5.2,7.3-9.7,7l0,0c-5.2-0.4-9.1-4.9-8.7-10
			c0-0.2,0-0.4,0.1-0.6l3.2-25.3L222.7,221.2z"/>
	</g>
	<g>
		<defs>
			<path id="SVGID_5_" d="M231.4,212.3l16.8-12.3l21.9,25.9c2.3,2.8,3.2,6.5,2.3,10l-7.4,28c-1.1,4.4-5.2,7.3-9.7,7l0,0
				c-5.2-0.4-9.1-4.9-8.7-10c0-0.2,0-0.4,0.1-0.5l3.3-25.3L231.4,212.3z"/>
		</defs>
		<clipPath id="SVGID_6_">
			<use xlink:href="#SVGID_5_"  style="overflow:visible;"/>
		</clipPath>
		<g class="st16">
			<path class="st6" d="M231.4,212.3l16.8-12.3l21.9,25.9c2.3,2.8,3.2,6.5,2.3,10l-7.4,28c-1.1,4.4-5.2,7.3-9.7,7l0,0
				c-5.2-0.4-9.1-4.9-8.7-10c0-0.2,0-0.4,0.1-0.5l3.3-25.3L231.4,212.3z"/>
			<path class="st7" d="M247.6,233.6c-0.2-0.3-0.3-0.7-0.4-1c-0.4-0.9-0.7-1.8-0.9-2.7c-1.8-6.2-1.8-12.7,0-18.9
				c0.3-0.9,0.6-1.8,1-2.7c0.1-0.3,0.3-0.7,0.4-1c-0.1,0.3-0.2,0.7-0.3,1c-0.2,0.6-0.5,1.6-0.9,2.8c-1.7,6.1-1.7,12.6,0,18.8
				c0.3,1.2,0.6,2.1,0.9,2.8C247.4,232.9,247.5,233.3,247.6,233.6z"/>
			<path class="st7" d="M248,221.4c-1.6,2.4-2.3,5.4-1.8,8.2c-0.2-0.4-0.3-0.8-0.3-1.3c-0.1-1-0.1-2.1,0.1-3.1c0.2-1,0.6-2,1.2-2.9
				C247.4,222,247.7,221.7,248,221.4z"/>
			<path class="st7" d="M242.4,215.8c0,0,0.4,0.3,0.8,0.9c0.6,0.8,1,1.6,1.3,2.5c0.3,0.9,0.5,1.8,0.6,2.8c0,0.4,0,0.8-0.1,1.2
				c-0.1-1.3-0.4-2.6-0.8-3.8C243.7,218.1,243.1,216.9,242.4,215.8z"/>
			<path class="st7" d="M248.4,212.7c-0.8,0.8-1.5,1.7-2.1,2.6c-0.5,1-0.9,2.1-1.1,3.1C245.2,216.1,246.4,213.9,248.4,212.7
				L248.4,212.7z"/>
			<path class="st7" d="M245.8,207.6c0.4,0.8,0.6,1.7,0.5,2.6c0,0.9-0.2,1.8-0.6,2.6c-0.1,0,0.3-1.2,0.3-2.6
				S245.7,207.7,245.8,207.6z"/>
			<path class="st7" d="M266,269.3c-0.2-0.3-0.3-0.7-0.4-1c-0.4-0.9-0.7-1.8-1-2.7c-1.8-6.2-1.8-12.7,0-18.9c0.3-0.9,0.6-1.8,1-2.7
				c0.1-0.3,0.3-0.7,0.4-1c-0.1,0.3-0.2,0.7-0.3,1c-0.2,0.6-0.5,1.6-0.9,2.8c-1.7,6.1-1.7,12.6,0,18.8c0.3,1.2,0.6,2.1,0.9,2.8
				C265.8,268.5,265.9,268.9,266,269.3z"/>
			<path class="st7" d="M266.3,257.1c-0.8,1.2-1.3,2.5-1.7,3.9c-0.3,1.4-0.3,2.9-0.1,4.3c-0.2-0.4-0.3-0.8-0.3-1.3
				c-0.1-1-0.1-2.1,0.1-3.1c0.2-1,0.6-2,1.2-2.9C265.7,257.7,266,257.3,266.3,257.1z"/>
			<path class="st7" d="M260.7,251.5c0.3,0.2,0.6,0.5,0.8,0.9c0.6,0.8,1,1.6,1.3,2.5c0.3,0.9,0.5,1.8,0.5,2.8c0,0.4,0,0.8-0.1,1.2
				c-0.1-1.3-0.4-2.6-0.8-3.8C262,253.7,261.4,252.6,260.7,251.5z"/>
			<path class="st7" d="M266.7,248.4c-0.8,0.8-1.5,1.7-2.1,2.6c-0.5,1-0.9,2.1-1.1,3.1c-0.1-1.2,0.2-2.3,0.8-3.3
				C264.9,249.8,265.7,248.9,266.7,248.4z"/>
			<path class="st7" d="M264.1,243.3c0.4,0.8,0.6,1.7,0.5,2.6c0,0.9-0.2,1.8-0.6,2.6c-0.1,0,0.3-1.2,0.3-2.6S264,243.3,264.1,243.3z
				"/>
			<path class="st7" d="M257.4,255c-0.2-0.3-0.3-0.7-0.4-1c-0.4-0.9-0.7-1.8-0.9-2.7c-1.8-6.2-1.8-12.7,0-18.9
				c0.3-0.9,0.6-1.8,1-2.7c0.1-0.3,0.3-0.7,0.4-1c-0.1,0.3-0.2,0.7-0.3,1c-0.2,0.6-0.5,1.6-0.9,2.8c-1.7,6.1-1.7,12.6,0,18.8
				c0.3,1.2,0.6,2.1,0.9,2.8C257.2,254.3,257.3,254.6,257.4,255z"/>
			<path class="st7" d="M257.8,242.8c-1.6,2.4-2.3,5.4-1.8,8.2c-0.2-0.4-0.3-0.8-0.3-1.3c-0.3-2.1,0.2-4.2,1.3-6
				C257.1,243.4,257.4,243.1,257.8,242.8z"/>
			<path class="st7" d="M252.1,237.2c0.3,0.2,0.6,0.5,0.8,0.9c0.6,0.8,1,1.6,1.3,2.5c0.3,0.9,0.5,1.8,0.6,2.8c0,0.4,0,0.8-0.1,1.2
				c-0.1-1.3-0.4-2.6-0.8-3.8C253.4,239.4,252.8,238.3,252.1,237.2z"/>
			<path class="st7" d="M258.1,234.1c-0.8,0.8-1.5,1.7-2.1,2.6c-0.5,1-0.9,2.1-1.1,3.1c-0.1-1.2,0.2-2.3,0.8-3.3
				C256.3,235.5,257.1,234.6,258.1,234.1z"/>
			<path class="st7" d="M239.1,222.5c-0.2-0.3-0.3-0.7-0.4-1c-0.4-0.9-0.7-1.8-1-2.7c-1.8-6.2-1.8-12.7,0-18.9
				c0.3-0.9,0.6-1.8,1-2.7c0.1-0.3,0.3-0.7,0.4-1c-0.1,0.3-0.2,0.7-0.3,1c-0.2,0.6-0.5,1.6-0.9,2.8c-1.7,6.1-1.7,12.6,0,18.8
				c0.3,1.2,0.6,2.1,0.9,2.8C239,221.8,239.1,222.1,239.1,222.5z"/>
			<path class="st7" d="M239.5,210.3c-1.6,2.4-2.3,5.4-1.8,8.3c-0.2-0.4-0.3-0.8-0.3-1.3c-0.1-1-0.1-2.1,0.1-3.1
				c0.2-1,0.6-2,1.2-2.9C238.9,210.9,239.2,210.6,239.5,210.3z"/>
			<path class="st7" d="M233.9,204.7c0.3,0.2,0.6,0.5,0.8,0.9c0.6,0.8,1,1.6,1.3,2.5c0.3,0.9,0.5,1.8,0.6,2.8c0,0.4,0,0.8-0.1,1.2
				c-0.1-1.3-0.4-2.6-0.8-3.8C235.2,207,234.6,205.8,233.9,204.7z"/>
			<path class="st7" d="M239.9,201.6c-0.8,0.8-1.5,1.7-2.1,2.6c-0.5,1-0.9,2.1-1.1,3.1c-0.1-1.2,0.2-2.3,0.8-3.3
				C238.1,203,238.9,202.2,239.9,201.6z"/>
			<path class="st7" d="M254.3,205.6c0.2,0.3,0.4,0.6,0.6,0.9c0.6,0.8,1.1,1.6,1.5,2.5c3.1,5.6,4.5,12.1,4,18.5
				c-0.1,1-0.2,1.9-0.4,2.9c0,0.3-0.1,0.7-0.2,1c0-0.4,0-0.7,0.1-1.1c0.1-0.7,0.2-1.6,0.3-2.9c0.3-6.4-1.1-12.7-4-18.3
				c-0.6-1.1-1-1.9-1.4-2.5C254.6,206.2,254.5,205.9,254.3,205.6z"/>
			<path class="st7" d="M256.6,217.6c0.5-1.4,0.8-2.8,0.8-4.2c0-1.4-0.3-2.9-0.8-4.2c0.3,0.3,0.5,0.7,0.6,1.2c0.4,1,0.5,2,0.5,3.1
				c0,1-0.2,2.1-0.5,3.1C257,216.9,256.8,217.3,256.6,217.6z"/>
			<path class="st7" d="M263.3,221.9c-0.4-0.2-0.7-0.4-1-0.7c-0.7-0.6-1.3-1.3-1.8-2.1c-0.5-0.8-0.9-1.7-1.1-2.6
				c-0.1-0.4-0.2-0.8-0.2-1.1c0.4,1.2,0.9,2.4,1.6,3.6C261.5,220,262.3,221,263.3,221.9z"/>
			<path class="st7" d="M258.1,226.2c0.6-0.9,1.1-1.9,1.5-3c0.3-1.1,0.4-2.2,0.4-3.3c0.3,1.1,0.3,2.3-0.1,3.4
				C259.6,224.4,258.9,225.4,258.1,226.2z"/>
			<path class="st7" d="M261.7,230.6c-1.1-1.5-1.4-3.4-1-5.1c0.1,0,0,1.2,0.3,2.6S261.8,230.5,261.7,230.6z"/>
			<path class="st7" d="M265.4,225.9c0.2,0.3,0.4,0.6,0.6,0.9c0.6,0.8,1.1,1.6,1.5,2.5c3.1,5.6,4.5,12.1,4,18.5
				c-0.1,1-0.2,1.9-0.4,2.9c0,0.3-0.1,0.7-0.2,1c0-0.4,0-0.7,0.1-1.1c0.1-0.7,0.2-1.6,0.3-2.9c0.3-6.4-1.1-12.7-4-18.3
				c-0.6-1.1-1-1.9-1.4-2.5C265.7,226.5,265.5,226.2,265.4,225.9z"/>
			<path class="st7" d="M267.6,237.9c1.1-2.7,1.1-5.7,0-8.4c0.3,0.3,0.5,0.7,0.6,1.1c0.4,1,0.5,2,0.5,3.1c0,1-0.2,2.1-0.5,3.1
				C268.1,237.2,267.9,237.6,267.6,237.9z"/>
			<path class="st7" d="M274.3,242.2c-0.4-0.2-0.7-0.4-1-0.7c-1.4-1.3-2.4-2.9-2.9-4.7c-0.1-0.4-0.2-0.8-0.2-1.1
				c0.4,1.2,0.9,2.4,1.6,3.6C272.5,240.3,273.4,241.3,274.3,242.2z"/>
			<path class="st7" d="M269.1,246.5c1.3-1.8,2-4.1,1.9-6.3c0.3,1.1,0.3,2.3-0.1,3.4C270.6,244.7,270,245.8,269.1,246.5z"/>
			<path class="st7" d="M272.8,250.9c-1.1-1.5-1.4-3.4-1-5.1c0.1,0,0,1.2,0.3,2.6S272.8,250.9,272.8,250.9z"/>
			<path class="st7" d="M240.1,241.3c0.3,0.2,0.6,0.4,0.9,0.6c0.8,0.6,1.5,1.2,2.2,1.9c4.6,4.5,7.9,10.1,9.4,16.4
				c0.2,0.9,0.4,1.9,0.5,2.8c0.1,0.3,0.1,0.7,0.1,1.1c-0.1-0.3-0.2-0.7-0.2-1c-0.1-0.7-0.3-1.6-0.6-2.8c-0.8-3.1-2-6-3.6-8.8
				c-1.6-2.7-3.5-5.3-5.8-7.5c-0.9-0.9-1.6-1.5-2.1-2C240.7,241.8,240.4,241.6,240.1,241.3z"/>
			<path class="st7" d="M245.9,252.1c0.2-2.9-0.7-5.8-2.5-8.1c0.4,0.2,0.7,0.6,0.9,0.9c1.3,1.7,1.9,3.8,1.8,5.9
				C246.1,251.3,246.1,251.7,245.9,252.1z"/>
			<path class="st7" d="M253.6,254.1c-0.4,0-0.8-0.2-1.1-0.4c-1.7-0.8-3.2-2-4.2-3.6c-0.2-0.3-0.4-0.6-0.5-1
				C249.2,251.3,251.2,253.1,253.6,254.1L253.6,254.1z"/>
			<path class="st7" d="M249.9,259.8c0.3-1.1,0.5-2.2,0.5-3.3c-0.1-1.1-0.3-2.2-0.6-3.3c0.6,1,1,2.1,0.9,3.3
				C250.8,257.7,250.5,258.8,249.9,259.8z"/>
			<path class="st7" d="M254.7,262.9c-0.8-0.5-1.4-1.2-1.8-2c-0.5-0.8-0.7-1.7-0.8-2.6c0.1,0,0.3,1.1,1,2.4
				C253.6,261.5,254.1,262.2,254.7,262.9z"/>
			<g class="st17">
				<path class="st1" d="M264.1,270.7c-0.1-6.2-5.3-11.1-11.5-11c-2.5,0.1-4.8,0.9-6.8,2.5l2.1,7.1l9.1,4.4L264.1,270.7z"/>
			</g>
			<g class="st17">
				<path class="st1" d="M276.3,243.8c-6.1-0.4-10.8-5.6-10.4-11.7c0.2-3.1,1.7-5.9,4-7.9l9.3,5.9L276.3,243.8z"/>
			</g>
		</g>
	</g>
</g>
<g id="freepik--Handbag--inject-27">
	<path class="st9" d="M64.2,162.7l8.5-20.9c0.7-1.8,2.8-2.7,4.7-2l34.6,14.1c1.8,0.7,2.7,2.8,2,4.7l-8.5,20.9
		c-0.7,1.8-2.8,2.7-4.7,2l-34.6-14.1C64.3,166.6,63.4,164.5,64.2,162.7z"/>
	<g class="st10">
		<path d="M64.2,162.7l8.5-20.9c0.7-1.8,2.8-2.7,4.7-2l34.6,14.1c1.8,0.7,2.7,2.8,2,4.7l-8.5,20.9c-0.7,1.8-2.8,2.7-4.7,2
			l-34.6-14.1C64.3,166.6,63.4,164.5,64.2,162.7z"/>
	</g>
	<path class="st4" d="M102,155.8c0-0.2,0.1-0.4,0.2-0.5c0.2-0.4,0.4-0.9,0.7-1.5c0.9-1.8,1.6-3.6,2.2-5.5c0.9-2.8,0.8-5.8-0.2-8.6
		c-0.6-1.6-1.7-3-3.1-3.9c-1.6-1-3.2-1.9-5-2.5c-3.5-1.4-7.3-2.1-10.4-1.1c-1.5,0.5-2.8,1.3-3.9,2.4c-1,1-1.8,2-2.5,3.2
		c-0.9,1.8-1.7,3.6-2.2,5.5l-0.5,1.6c-0.1,0.2-0.1,0.4-0.2,0.5c0-0.2,0-0.4,0.1-0.6c0.1-0.4,0.2-0.9,0.4-1.6
		c0.5-1.9,1.2-3.8,2.1-5.6c0.7-1.2,1.5-2.4,2.5-3.4c1.1-1.2,2.5-2,4.1-2.5c1.7-0.5,3.5-0.6,5.3-0.4c1.9,0.3,3.7,0.8,5.5,1.5
		c1.8,0.7,3.4,1.5,5,2.6c1.5,1,2.6,2.5,3.3,4.2c1,2.9,1.1,6,0.1,8.9c-0.6,1.9-1.4,3.8-2.4,5.5c-0.3,0.6-0.6,1.1-0.8,1.4
		C102.1,155.5,102.1,155.6,102,155.8z"/>
	<path class="st9" d="M59,160.4l8.5-20.9c0.7-1.8,2.8-2.7,4.7-2l34.6,14.1c1.8,0.7,2.7,2.8,2,4.7l-8.5,20.9c-0.7,1.8-2.8,2.7-4.7,2
		L61,165.1C59.2,164.3,58.3,162.2,59,160.4z"/>
	<g class="st18">
		<path class="st1" d="M63.8,148.8c2.7,1.8,5.6,3.4,8.5,4.8c3,1.2,0.2,2,5.2,1.5s5.4-0.6,6.5,0.3s1.6,2.2,2.5,2.7
			c0.8,0.4,1.6,0.7,2.4,1c0,0,3.6,1.5,4.5,1.7c5.8,1.6,7.2,0.2,8.8,2.7s2.8,2.6,2.8,2.6l1.1-2.8l-5.3-2.1c0,0-2.4-2-3.1-2.5
			s-1-1.4-2.3-0.9c-1,0.4-2.1,0.5-3.2,0.5c-0.7,0-3.4-0.4-3.4-0.4l-2.3-0.9l-0.5-2l-2.1-1.4l-1.1-0.2l-2.8-0.7L76,152l-4-1l-2.3-0.9
			l-3.5-0.2L63.8,148.8z"/>
	</g>
	<g class="st18">
		<path class="st1" d="M62.9,154l6,4.6l3,2.5c0,0,4,2.2,5.3,2.2c1.2,0.1,2.4,0.4,3.5,0.8l2,1.7l2.8,1.1l3.1,0.4l2.8,0.1l2.4,1
			l3.2,1.3l2.9,1.2l1.8,0.7l0.5,1.2l1-2.5l-8.2-5.6l-6.2-0.7l-5.1-2.1l-2.3-2.8l-4.2-0.3l-3.9-1l-4.2-2l-4.4-1.8L62.9,154z"/>
	</g>
	<g class="st18">
		<polygon class="st1" points="60.5,156.8 63.1,163.7 65.4,166.9 72.6,169.8 68.1,162.7 64.7,160.4 61.8,156.8 60.9,155.7 		"/>
	</g>
	<g class="st18">
		<polygon class="st1" points="71.7,163.4 76.5,167.8 77.3,171.7 82,173.6 87.4,175.8 91,174.3 95.5,173.8 97.4,173.8 93.7,172.3 
			89.2,172.6 85.7,172.1 82.1,169 78,167.4 76.9,165.5 74.9,164.1 		"/>
	</g>
	<g class="st18">
		<path class="st1" d="M67.1,144.4l6.9,1.2l5.7-1.4l4-1L88,146l5,2.3l6.2,1.2l4,0.4l3.1,2.6l1.4,4.9l0.1,1.2l-0.6,1.4l-3.5-5.3
			c-0.9-0.9-1.8-1.7-2.8-2.5c-0.4-0.2-2.1-1.3-2.9-1.2c-1.7,0-3.4-0.2-5-0.7c-1.8-0.6-5.1-1.5-5.1-1.5l-3-1.8l-1.8-0.7h-4.3
			l-2.5,0.9l-2.2,1.1l-3.7-1.5l-5.3-1.6l0.8-1.9L67.1,144.4z"/>
	</g>
	<g class="st18">
		<polygon class="st1" points="74.9,139.1 67,140.9 66.4,142.3 70.9,142.4 75.2,142 78,140.4 		"/>
	</g>
	<path class="st4" d="M95.6,179.1c0.5,0.1,0.9,0.2,1.4,0.2c1.4,0,2.6-0.9,3.2-2.2l5.7-14.2c0.6-1.5,1.2-3.1,1.9-4.7
		c0.3-0.8,0.7-1.7,1-2.5c0.2-0.9,0.1-1.8-0.3-2.5c-0.5-0.8-1.2-1.4-2.1-1.7l-2.8-1.1l-5.8-2.3l-25.7-10.4c-1.1-0.4-2.3-0.3-3.2,0.4
		c-0.4,0.3-0.8,0.8-1,1.3l-0.7,1.6l-2.7,6.6c-1.8,4.3-3.4,8.4-5,12.4c-0.2,0.5-0.4,0.9-0.4,1.4c-0.1,1.5,0.8,2.9,2.2,3.4l5.4,2.2
		l9.7,4l14.1,5.8l3.8,1.6l1,0.4C95.4,179.1,95.5,179.1,95.6,179.1c-0.1,0-0.2,0-0.3-0.1l-1-0.4l-3.9-1.5l-14.2-5.7l-9.8-3.9
		l-5.4-2.2c-1-0.4-1.8-1.2-2.2-2.2c-0.2-0.5-0.3-1.1-0.2-1.6c0.1-0.5,0.2-1.1,0.5-1.6l5-12.4c0.9-2.1,1.8-4.3,2.7-6.5
		c0.2-0.6,0.4-1.1,0.7-1.7c0.3-0.6,0.7-1.1,1.2-1.5c1.1-0.8,2.5-1,3.7-0.5L98,147.8l5.8,2.4l2.8,1.1c1,0.3,1.8,1,2.3,1.9
		c0.5,0.9,0.6,1.9,0.3,2.9c-0.3,0.9-0.7,1.7-1,2.5l-1.9,4.7c-2.5,5.9-4.5,10.7-5.8,14.1c-0.3,0.8-0.9,1.4-1.6,1.8
		c-0.5,0.3-1.1,0.4-1.7,0.4C96.5,179.5,96,179.4,95.6,179.1z"/>
</g>
<g id="freepik--speech-bubble--inject-27">
	<path class="st4" d="M657.3,295.4c0,0,0-0.2,0-0.6l0.2-1.9c0-0.4,0.1-0.9,0.1-1.4s0-1.1,0-1.7s0-1.3,0-2s-0.1-1.5-0.2-2.3
		c-0.4-3.9-1.4-7.7-3-11.2c-2.1-4.7-5.2-8.9-9-12.3l-1.6-1.4c-0.6-0.4-1.2-0.9-1.8-1.3c-1.2-0.9-2.5-1.7-3.9-2.4
		c-2.9-1.5-5.9-2.6-9.1-3.3c-1.6-0.4-3.3-0.6-5-0.8c-0.9-0.1-1.7,0-2.6-0.1h-1.3c-0.5,0-0.9,0.1-1.3,0.1c-3.7,0.2-7.3,1-10.7,2.4
		c-7.4,2.8-13.7,8-17.9,14.8c-4.5,7.3-6.3,15.8-5.2,24.3c0.1,0.5,0.2,1.1,0.3,1.6v0.1l-0.1,0.1l-11.7,16.4l-0.3-0.4l17.4-2.7h0.2
		l0.1,0.1c5,7.5,12.6,12.9,21.4,15c1.3,0.3,2.7,0.6,4,0.7l2,0.3c0.7,0.1,1.3,0,2,0.1c4.9,0.1,9.9-0.7,14.4-2.6
		c3.9-1.6,7.6-3.8,10.8-6.6l2-1.9l1.8-2c0.6-0.6,1.1-1.3,1.5-2c0.5-0.7,1-1.3,1.3-1.9c1.4-2.2,2.5-4.5,3.4-6.9l0.9-2.6
		c0.2-0.8,0.3-1.4,0.5-2s0.2-0.9,0.3-1.2S657.3,295.3,657.3,295.4c0,0,0,0.1-0.1,0.4s-0.2,0.7-0.3,1.2s-0.3,1.2-0.4,2
		s-0.5,1.7-0.9,2.7c-0.9,2.4-2,4.8-3.3,7c-0.4,0.7-0.9,1.3-1.3,2c-0.5,0.7-1,1.4-1.5,2l-1.8,2l-2.1,2c-3.2,2.8-6.8,5.1-10.8,6.7
		c-4.6,1.9-9.6,2.8-14.6,2.6c-0.7,0-1.3,0-2-0.1l-2-0.2c-1.4-0.1-2.7-0.4-4.1-0.7c-8.9-2.2-16.6-7.6-21.7-15.2l0.3,0.1l-17.4,2.7
		l-0.6,0.1l0.4-0.5l11.8-16.4l0,0.2c-0.1-0.6-0.2-1.1-0.3-1.7c-1.2-8.6,0.7-17.3,5.2-24.6c4.3-6.8,10.6-12.1,18.1-15
		c3.5-1.4,7.1-2.2,10.8-2.4c0.5,0,0.9-0.1,1.3-0.1h1.3c0.9,0,1.8,0,2.7,0.1c1.7,0.2,3.4,0.4,5.1,0.8c3.2,0.7,6.3,1.8,9.2,3.4
		c1.4,0.7,2.7,1.5,3.9,2.4c0.6,0.4,1.2,0.9,1.8,1.3l1.7,1.4c6.9,6.1,11.2,14.6,12,23.8c0.1,0.8,0.1,1.5,0.2,2.3s0,1.4,0,2
		s0,1.2,0,1.7s-0.1,1-0.2,1.4c-0.1,0.8-0.2,1.5-0.3,1.9S657.3,295.4,657.3,295.4z"/>
	<polygon class="st12" points="633.1,275.1 637.5,308.3 604.9,308.3 609.7,275.1 	"/>
	<path class="st1" d="M612.3,279.9c0.4,1.1,1,2.1,1.7,3.1c0.7,1,1.7,1.9,2.8,2.5c1.4,0.7,2.9,1.1,4.5,1.1c1.6,0,3.1-0.3,4.5-1
		c1.1-0.6,2.1-1.5,2.8-2.5c0.6-1,1.1-2.1,1.5-3.2c0,0.3,0,0.7-0.1,1c-0.2,0.9-0.6,1.7-1.1,2.5c-0.7,1.1-1.7,2.1-2.9,2.7
		c-1.5,0.8-3.1,1.1-4.7,1.1c-1.6,0-3.3-0.4-4.7-1.2c-1.2-0.7-2.2-1.6-2.9-2.7c-0.5-0.7-0.9-1.5-1.2-2.4
		C612.4,280.5,612.3,280.2,612.3,279.9z"/>
</g>
</svg>
