<?xml version="1.0" encoding="utf-8"?>
<!-- Generator: Adobe Illustrator 22.1.0, SVG Export Plug-In . SVG Version: 6.00 Build 0)  -->
<svg version="1.1" id="Camada_1" xmlns="http://www.w3.org/2000/svg" xmlns:xlink="http://www.w3.org/1999/xlink" x="0px" y="0px"
	 viewBox="0 0 750 500" style="enable-background:new 0 0 750 500;" xml:space="preserve">
<style type="text/css">
	.st0{fill:#EBEBEB;}
	.st1{fill:#E0E0E0;}
	.st2{fill:#F5F5F5;}
	.st3{fill:#FFFFFF;}
	.st4{fill:#FAFAFA;}
	.st5{fill:#263238;}
	.st6{fill:#9088E5;}
	.st7{opacity:0.5;}
	.st8{fill:#455A64;}
	.st9{opacity:0.3;}
	.st10{fill:#FFBE9D;}
	.st11{fill:#EB996E;}
	.st12{opacity:0.4;}
	.st13{fill:#59C4CA;}
	.st14{opacity:0.7;}
	.st15{clip-path:url(#SVGID_2_);}
	.st16{fill:none;}
	.st17{opacity:0.8;}
	.st18{opacity:0.2;}
	.st19{fill:#59C4CA;stroke:#263238;stroke-width:1.1445;stroke-linecap:round;stroke-linejoin:round;}
	.st20{fill:#92E3A9;stroke:#263238;stroke-width:1.1445;stroke-linecap:round;stroke-linejoin:round;}
	.st21{fill:#837AD9;}
	.st22{fill:none;stroke:#263238;stroke-width:1.1445;stroke-linecap:round;stroke-linejoin:round;}
	.st23{fill:#FFFFFF;stroke:#263238;stroke-width:1.1445;stroke-linecap:round;stroke-linejoin:round;}
	.st24{fill:#9188E5;}
	.st25{opacity:0.15;enable-background:new    ;}
	.st26{opacity:0.1;enable-background:new    ;}
	.st27{fill:#BA68C8;}
	.st28{opacity:0.45;enable-background:new    ;}
	.st29{opacity:0.18;enable-background:new    ;}
	.st30{opacity:0.2;enable-background:new    ;}
	.st31{fill:#37474F;}
</style>
<g id="freepik--background-complete--inject-17">
	<rect x="644.7" y="412.6" class="st0" width="90.8" height="60.7"/>
	<rect x="698.6" y="412.6" class="st1" width="37" height="60.7"/>
	<rect x="596.6" y="51.6" class="st1" width="87.9" height="127.4"/>
	<rect x="592.2" y="51.6" class="st2" width="87.9" height="127.4"/>
	<rect x="603.2" y="65.4" class="st3" width="66" height="99.8"/>
	<path class="st1" d="M669.2,165.1c0,0,0-0.2,0-0.5s0-0.8,0-1.4c0-1.3,0-3.1,0-5.5c0-4.8,0-11.8,0-20.6c0-17.6-0.1-42.5-0.1-71.9
		l0.2,0.2h-66l0,0l0.2-0.2c0,37.6,0,72.3,0,99.8l-0.2-0.2l48.1,0.1l13.3,0.1h3.5h1.2h-1.2h-3.5l-13.2,0.1l-48.2,0.1H603V165
		c0-27.4,0-62.2,0-99.8V65h0.3h66h0.2v0.2c0,29.4-0.1,54.4-0.1,72c0,8.8,0,15.7-0.1,20.5c0,2.4,0,4.2,0,5.4c0,0.6,0,1.1,0,1.4
		S669.2,165.1,669.2,165.1z"/>
	<path class="st1" d="M680.4,51.6c-0.4,0.8-1,1.6-1.6,2.3c-1,1.4-2.5,3.2-4.1,5.2s-3.2,3.8-4.3,5.1c-0.6,0.7-1.2,1.4-1.9,2
		c0.5-0.8,1.1-1.5,1.7-2.2l4.2-5.1c1.6-1.9,3-3.7,4.2-5.1C679.1,52.9,679.7,52.2,680.4,51.6z"/>
	<path class="st3" d="M669.5,164.8c3.3,5.2,7.2,10.1,11.5,14.4"/>
	<path class="st1" d="M681.1,179.2c-0.7-0.5-1.4-1.2-2-1.8c-3.1-3.1-5.8-6.5-8.2-10.2c-0.5-0.7-1-1.5-1.3-2.4
		c0.6,0.7,1.1,1.4,1.6,2.2c1,1.4,2.3,3.2,3.9,5.2s3.1,3.7,4.2,5C679.9,177.8,680.5,178.5,681.1,179.2z"/>
	<path class="st3" d="M592.2,178.9c3.8-4.7,7.7-9.5,11.5-14.2"/>
	<path class="st1" d="M603.7,164.6c-1.7,2.5-3.6,4.9-5.6,7.3c-1.9,2.4-3.8,4.7-5.9,6.9c1.7-2.5,3.6-4.9,5.6-7.3
		C599.7,169.2,601.6,166.9,603.7,164.6z"/>
	<path class="st1" d="M592.2,51.6c2,2.1,3.8,4.4,5.6,6.7c1.9,2.2,3.6,4.6,5.2,7c-2-2.1-3.8-4.4-5.6-6.7
		C595.6,56.3,593.9,54,592.2,51.6z"/>
	<rect x="626.5" y="85.6" class="st1" width="22.1" height="62.8"/>
	<rect x="580.8" y="204.9" class="st0" width="90.8" height="60.7"/>
	<rect x="634.7" y="204.9" class="st1" width="37" height="60.7"/>
	<rect x="66.1" y="139.1" class="st1" width="65.6" height="68.4"/>
	<rect x="61.7" y="139.1" class="st4" width="65.6" height="68.4"/>
	<path class="st1" d="M127.3,207.5H61.7v-68.4h65.7L127.3,207.5z M61.7,207.5h65.6v-68.4H61.7V207.5z"/>
	<rect x="70.5" y="148.3" class="st4" width="48" height="50"/>
	<path class="st1" d="M70.5,198.6c-0.3,0.5-0.7,1-1.2,1.4c-0.8,0.8-1.8,1.9-3,3.1s-2.3,2.2-3.1,3c-0.4,0.4-0.9,0.8-1.4,1.1
		c0.3-0.5,0.7-1,1.2-1.4c0.8-0.8,1.9-1.9,3.1-3.1s2.3-2.3,3.1-3C69.6,199.3,70,199,70.5,198.6z"/>
	<path class="st1" d="M118.5,198.5c0.5,0.3,1,0.7,1.4,1.2c0.8,0.8,1.9,1.8,3.1,3.1s2.2,2.3,3,3.1c0.4,0.4,0.8,0.9,1.2,1.4
		c-0.5-0.3-1-0.7-1.4-1.2c-0.8-0.8-1.9-1.8-3.1-3.1s-2.3-2.3-3-3.1C119.2,199.5,118.8,199,118.5,198.5z"/>
	<path class="st1" d="M118.3,148.4c0.3-0.5,0.7-1,1.2-1.4c0.8-0.8,1.8-1.9,3-3.1s2.3-2.3,3.1-3c0.4-0.4,0.9-0.8,1.4-1.2
		c-0.3,0.5-0.7,1-1.2,1.4c-0.8,0.8-1.8,1.9-3,3.1s-2.3,2.3-3.1,3C119.3,147.7,118.9,148.1,118.3,148.4z"/>
	<path class="st1" d="M70.4,148.6c-0.5-0.3-1-0.7-1.4-1.2c-0.8-0.8-1.9-1.9-3.1-3.1s-2.3-2.3-3-3.1c-0.4-0.4-0.8-0.9-1.2-1.4
		c0.5,0.4,1,0.8,1.4,1.2c0.8,0.8,1.9,1.9,3.1,3.1s2.3,2.3,3,3.1C69.6,147.6,70,148.1,70.4,148.6z"/>
	<path class="st1" d="M118.3,198.3c0-0.1,0-0.2,0-0.2c0-0.2,0-0.4,0-0.7c0-0.6,0-1.5,0-2.7c0-2.4,0-5.8,0-10.2
		c0-8.8-0.1-21.2-0.1-36.2l0.2,0.2H70.6l0,0l0.2-0.2c0,18.4,0,35.5,0,50l-0.2-0.2l34.6,0.1h9.7h2.6L118.3,198.3l-0.1-0.1h-0.6h-2.5
		h-9.7l-34.8,0.1h-0.2v-0.2c0-14.5,0-31.6,0-50v-0.2h0.2h47.8h0.2v0.2c0,15-0.1,27.5-0.1,36.3c0,4.4,0,7.8,0,10.1c0,1.2,0,2,0,2.7
		c0,0.3,0,0.5,0,0.7S118.3,198.3,118.3,198.3z"/>
	<rect x="86.5" y="165.3" class="st0" width="16" height="16"/>
</g>
<g id="freepik--Floor--inject-17">
	<path class="st5" d="M727.5,473.2c0,0.1-157.8,0.3-352.5,0.3s-352.5-0.1-352.5-0.3s157.8-0.3,352.5-0.3S727.5,473,727.5,473.2z"/>
</g>
<g id="freepik--Plant--inject-17">
	<path class="st6" d="M81.5,405c-15-8.1-31.9-22.9-38.4-39.6C59.3,373.8,73,387.9,81.5,405"/>
	<path class="st6" d="M80.5,379.9c-15-8.1-31.9-22.9-38.4-39.6C58.3,348.6,72,362.7,80.5,379.9"/>
	<path class="st6" d="M78.3,355.3c-15-8.1-31.9-22.9-38.4-39.6C56,324,69.7,338.1,78.3,355.3"/>
	<path class="st6" d="M75,329.5c-13.9-10.1-28.9-27.1-33.4-44.7C56.7,295.3,68.6,311.2,75,329.5"/>
	<path class="st6" d="M70.8,309.5c-9.4-15.1-17.5-36.9-15.6-55.1C65.6,270.9,71.1,290,70.8,309.5"/>
	<path class="st6" d="M72.9,319c4-18.8,13.6-42,27.5-55.1C96.3,284.4,86.8,303.4,72.9,319"/>
	<path class="st6" d="M76,340.3c5.7-19.2,17.6-42.6,33.2-55C103.3,306.3,91.8,325.3,76,340.3"/>
	<path class="st6" d="M79.4,366.2c5.7-19.2,17.6-42.6,33.2-55C106.7,332.2,95.2,351.2,79.4,366.2"/>
	<path class="st6" d="M81.1,397.8c5.7-19.2,17.6-42.6,33.2-55C108.4,363.7,96.9,382.7,81.1,397.8"/>
	<path class="st5" d="M70.4,305.7c0,0.1,0.1,0.2,0.1,0.3c0.1,0.2,0.1,0.5,0.2,0.9c0.2,0.9,0.4,2,0.8,3.5c0.7,3,1.5,7.4,2.5,12.9
		s2,12,3.1,19.3s2,15.3,2.7,23.7s1.3,16.5,1.6,23.8s0.5,14,0.5,19.5s0,10-0.1,13.1c0,1.5-0.1,2.7-0.1,3.6c0,0.4,0,0.7,0,0.9
		c0,0.1,0,0.2,0,0.3c0-0.1,0-0.2,0-0.3c0-0.3,0-0.5,0-0.9v-3.6c0-3.1,0-7.6-0.1-13.1s-0.3-12.1-0.6-19.5s-0.9-15.4-1.7-23.8
		s-1.7-16.4-2.7-23.7s-2-13.8-2.9-19.3s-1.7-9.9-2.3-12.9c-0.3-1.5-0.5-2.7-0.7-3.5l-0.2-0.9C70.5,306,70.4,305.8,70.4,305.7z"/>
	<g class="st7">
		<path d="M81.5,405c-15-8.1-31.9-22.9-38.4-39.6C59.3,373.8,73,387.9,81.5,405"/>
		<path d="M80.5,379.9c-15-8.1-31.9-22.9-38.4-39.6C58.3,348.6,72,362.7,80.5,379.9"/>
		<path d="M78.3,355.3c-15-8.1-31.9-22.9-38.4-39.6C56,324,69.7,338.1,78.3,355.3"/>
		<path d="M75,329.5c-13.9-10.1-28.9-27.1-33.4-44.7C56.7,295.3,68.6,311.2,75,329.5"/>
		<path d="M70.8,309.5c-9.4-15.1-17.5-36.9-15.6-55.1C65.6,270.9,71.1,290,70.8,309.5"/>
		<path d="M72.9,319c4-18.8,13.6-42,27.5-55.1C96.3,284.4,86.8,303.4,72.9,319"/>
		<path d="M76,340.3c5.7-19.2,17.6-42.6,33.2-55C103.3,306.3,91.8,325.3,76,340.3"/>
		<path d="M79.4,366.2c5.7-19.2,17.6-42.6,33.2-55C106.7,332.2,95.2,351.2,79.4,366.2"/>
		<path d="M81.1,397.8c5.7-19.2,17.6-42.6,33.2-55C108.4,363.7,96.9,382.7,81.1,397.8"/>
	</g>
	<path class="st6" d="M88.1,411.5c-7-14.6-12.1-35.2-8.6-51.3C87.2,376.2,90.3,394,88.1,411.5"/>
	<path class="st6" d="M99.7,392.6c-7-14.6-12.1-35.2-8.6-51.3C98.9,357.2,101.9,375,99.7,392.6"/>
	<path class="st6" d="M110.1,373.3c-7-14.6-12.1-35.2-8.6-51.3C109.3,338,112.3,355.8,110.1,373.3"/>
	<path class="st6" d="M120.4,352.5c-5.2-15.5-7.8-36.6-2.5-52C123.7,317.3,124.6,335.3,120.4,352.5"/>
	<path class="st6" d="M127.1,335.5c0.5-16.5,5.4-37.1,15.6-49.3C142.4,303.9,137,321,127.1,335.5"/>
	<path class="st6" d="M124,343.7c12.1-11.4,30.5-22.8,47.1-24.3C158.1,332,141.8,340.5,124,343.7"/>
	<path class="st6" d="M115.8,361c13.6-10.8,33.8-20.9,51.2-20.9C152.4,352,134.6,359.3,115.8,361"/>
	<path class="st6" d="M105.6,381.9c13.6-10.8,33.8-20.9,51.2-20.9C142.2,372.9,124.4,380.2,105.6,381.9"/>
	<path class="st6" d="M91.4,406c13.6-10.8,33.8-20.9,51.2-20.9C128,397,110.1,404.3,91.4,406"/>
	<path class="st5" d="M128.7,332.5c0,0.1,0,0.2-0.1,0.3c-0.1,0.2-0.2,0.5-0.3,0.8l-1.1,3c-1,2.6-2.5,6.3-4.4,10.8
		c-3.9,9.1-9.6,21.4-16.8,34.6c-3.6,6.6-7.2,12.8-10.5,18.4S89,410.9,86.2,415s-5,7.4-6.6,9.6l-1.8,2.6l-0.5,0.7
		c-0.1,0.1-0.1,0.1-0.2,0.2c0,0,0-0.1,0.1-0.3l0.4-0.7c0.4-0.6,1-1.5,1.8-2.6c1.6-2.3,3.8-5.6,6.4-9.7s5.8-9.1,9.1-14.7
		s6.9-11.8,10.5-18.4c7.1-13.2,12.9-25.5,16.9-34.5c2-4.5,3.6-8.2,4.6-10.7l1.2-2.9l0.3-0.8C128.6,332.7,128.6,332.6,128.7,332.5z"
		/>
	<polygon class="st5" points="108,473.2 65.1,473.2 57.1,414 116.2,414 	"/>
	<path class="st8" d="M114.1,422.7c0,0.1-12.4,0.3-27.7,0.3s-27.7-0.1-27.7-0.3s12.4-0.3,27.7-0.3S114.1,422.5,114.1,422.7z"/>
</g>
<path class="st5" d="M237.4,45.1h275.2c6.4,0,11.5,5.2,11.5,11.5v404.9c0,6.4-5.2,11.5-11.5,11.5H237.4c-6.4,0-11.6-5.2-11.6-11.5
	V56.7C225.9,50.3,231,45.1,237.4,45.1z"/>
<rect x="235.1" y="75.7" class="st3" width="279.5" height="357.5"/>
<path class="st8" d="M386.4,451.6c0,6.3-5.1,11.4-11.4,11.4s-11.4-5.1-11.4-11.4s5.1-11.4,11.4-11.4S386.4,445.3,386.4,451.6
	L386.4,451.6z"/>
<path class="st8" d="M331.3,57.4h87.4c0.7,0,1.2,0.5,1.2,1.2v2.3c0,0.7-0.5,1.2-1.2,1.2h-87.4c-0.7,0-1.2-0.5-1.2-1.2v-2.3
	C330.1,58,330.6,57.4,331.3,57.4z"/>
<path class="st6" d="M260.8,133.1h62.7c2.5,0,4.6,2.1,4.6,4.6v62.7c0,2.5-2.1,4.6-4.6,4.6h-62.7c-2.5,0-4.6-2.1-4.6-4.6v-62.7
	C256.2,135.2,258.3,133.1,260.8,133.1z"/>
<path class="st1" d="M342.2,133.1h62.7c2.5,0,4.6,2.1,4.6,4.6v62.7c0,2.5-2.1,4.6-4.6,4.6h-62.7c-2.5,0-4.6-2.1-4.6-4.6v-62.7
	C337.6,135.2,339.7,133.1,342.2,133.1z"/>
<path class="st1" d="M423.6,133.1h62.7c2.5,0,4.6,2.1,4.6,4.6v62.7c0,2.5-2.1,4.6-4.6,4.6h-62.7c-2.5,0-4.6-2.1-4.6-4.6v-62.7
	C419,135.2,421,133.1,423.6,133.1z"/>
<path class="st1" d="M260.8,223.6h62.7c2.5,0,4.6,2.1,4.6,4.6v62.7c0,2.5-2.1,4.6-4.6,4.6h-62.7c-2.5,0-4.6-2.1-4.6-4.6v-62.7
	C256.2,225.7,258.3,223.6,260.8,223.6z"/>
<path class="st1" d="M342.2,223.6h62.7c2.5,0,4.6,2.1,4.6,4.6v62.7c0,2.5-2.1,4.6-4.6,4.6h-62.7c-2.5,0-4.6-2.1-4.6-4.6v-62.7
	C337.6,225.7,339.7,223.6,342.2,223.6z"/>
<path class="st6" d="M423.6,223.6h62.7c2.5,0,4.6,2.1,4.6,4.6v62.7c0,2.5-2.1,4.6-4.6,4.6h-62.7c-2.5,0-4.6-2.1-4.6-4.6v-62.7
	C419,225.7,421,223.6,423.6,223.6z"/>
<path class="st6" d="M260.8,314.1h62.7c2.5,0,4.6,2.1,4.6,4.6v62.7c0,2.5-2.1,4.6-4.6,4.6h-62.7c-2.5,0-4.6-2.1-4.6-4.6v-62.7
	C256.2,316.2,258.3,314.1,260.8,314.1z"/>
<path class="st1" d="M342.2,314.1h62.7c2.5,0,4.6,2.1,4.6,4.6v62.7c0,2.5-2.1,4.6-4.6,4.6h-62.7c-2.5,0-4.6-2.1-4.6-4.6v-62.7
	C337.6,316.2,339.7,314.1,342.2,314.1z"/>
<path class="st1" d="M423.6,314.1h62.7c2.5,0,4.6,2.1,4.6,4.6v62.7c0,2.5-2.1,4.6-4.6,4.6h-62.7c-2.5,0-4.6-2.1-4.6-4.6v-62.7
	C419,316.2,421,314.1,423.6,314.1z"/>
<circle class="st5" cx="364.6" cy="407.2" r="2.6"/>
<path class="st5" d="M377.6,407.2c0,1.4-1.2,2.6-2.6,2.6s-2.6-1.2-2.6-2.6s1.2-2.6,2.6-2.6S377.6,405.8,377.6,407.2L377.6,407.2z"/>
<path class="st5" d="M388,407.2c0,1.4-1.2,2.6-2.6,2.6s-2.6-1.2-2.6-2.6s1.2-2.6,2.6-2.6l0,0C386.8,404.6,388,405.8,388,407.2z"/>
<path class="st5" d="M272.8,105.6h-13.2c-0.3,0-0.5-0.2-0.5-0.5s0.2-0.5,0.5-0.5h13.2c0.3,0,0.5,0.2,0.5,0.5S273,105.6,272.8,105.6z
	"/>
<path class="st5" d="M264.7,109.8c-0.1,0-0.2,0-0.3-0.1l-5.9-4.2c-0.1-0.1-0.2-0.2-0.2-0.4c0-0.2,0.1-0.3,0.2-0.4l6.1-4.2
	c0.2-0.2,0.5-0.2,0.7,0s0.2,0.5,0,0.7c0,0-0.1,0-0.1,0.1l-5.5,3.8l5.3,3.8c0.2,0.2,0.3,0.5,0.1,0.7
	C265,109.7,264.9,109.8,264.7,109.8L264.7,109.8z"/>
<path class="st5" d="M485.3,105.7h-13.2c-0.3,0-0.5-0.2-0.5-0.5s0.2-0.5,0.5-0.5h13.2c0.3,0,0.5,0.2,0.5,0.5
	S485.6,105.7,485.3,105.7z"/>
<path class="st5" d="M480,109.8c-0.2,0-0.3-0.1-0.4-0.2c-0.1-0.2-0.1-0.5,0.1-0.7l5.5-3.8l-5.3-3.8c-0.2-0.2-0.3-0.5-0.1-0.7
	c0.2-0.2,0.5-0.3,0.7-0.1l0,0l5.9,4.2c0.1,0.1,0.2,0.2,0.2,0.4c0,0.2-0.1,0.3-0.2,0.4l-6.1,4.2C480.2,109.8,480.1,109.8,480,109.8z"
	/>
<path class="st5" d="M340,104.5c0-2.2,1.7-4,3.9-4c0.1,0,0.2,0,0.3,0c1.3-0.1,2.5,0.5,3.3,1.4l-1.4,1.2c-0.4-0.6-1.1-0.9-1.8-0.9
	c-1.2,0.1-2.1,1.1-2,2.3c0.1,1.1,0.9,2,2,2c0.7,0,1.4-0.3,1.8-0.9l1.4,1.2c-0.8,1-2,1.5-3.3,1.4C342,108.3,340.2,106.7,340,104.5
	C340,104.7,340,104.6,340,104.5z"/>
<path class="st5" d="M353.4,106.9h-3.2l-0.6,1.5h-2.2l3.4-7.6h2.1l3.4,7.6H354L353.4,106.9z M352.8,105.3l-1-2.4l-1,2.4H352.8z"/>
<path class="st5" d="M358.1,102.4h-2.3v-1.7h6.8v1.7h-2.3v5.9h-2.1L358.1,102.4z"/>
<path class="st5" d="M368.1,106.9h-3.2l-0.6,1.5h-2.2l3.4-7.6h2.1l3.4,7.6h-2.2L368.1,106.9z M367.5,105.3l-1-2.4l-1,2.4H367.5z"/>
<path class="st5" d="M371.6,100.7h2.1v5.9h3.6v1.7h-5.8L371.6,100.7L371.6,100.7z"/>
<path class="st5" d="M377.7,104.5c-0.1-2.3,1.7-4.3,4-4.5c2.3-0.1,4.3,1.7,4.5,4c0.1,2.3-1.7,4.3-4,4.5c-0.1,0-0.2,0-0.2,0
	c-2.2,0.1-4.1-1.6-4.2-3.8C377.7,104.7,377.7,104.6,377.7,104.5z M384,104.5c-0.1-1.1-1-2-2.2-1.9s-2,1-1.9,2.2
	c0.1,1.1,1,1.9,2.1,1.9s2-0.8,2.1-1.9C384,104.7,384,104.6,384,104.5L384,104.5z"/>
<path class="st5" d="M392.4,104.4h1.9v3.2c-0.9,0.7-2.1,1-3.2,1c-2.2,0.3-4.2-1.2-4.5-3.4c-0.3-2.2,1.2-4.2,3.4-4.5
	c0.4-0.1,0.8,0,1.1,0c1.3-0.1,2.5,0.4,3.3,1.4l-1.4,1.2c-0.5-0.5-1.1-0.8-1.9-0.8c-1.2,0.1-2.1,1.1-2,2.3c0.1,1.1,0.9,2,2,2
	c0.4,0,0.8-0.1,1.2-0.3L392.4,104.4z"/>
<path class="st5" d="M395.6,105v-4.2h2.1v4.2c0,1.3,0.5,1.8,1.5,1.8s1.4-0.5,1.4-1.8v-4.2h2.1v4.2c0,2-1.6,3.6-3.6,3.6
	C397.2,108.6,395.6,107,395.6,105L395.6,105z"/>
<path class="st5" d="M410.3,106.7v1.7h-6.1v-7.6h6v1.7h-3.9v1.3h3.4v1.6h-3.4v1.4L410.3,106.7L410.3,106.7z"/>
<path class="st1" d="M416.2,114.3c0,0.1-18.4,0.3-41,0.3s-41-0.1-41-0.3s18.4-0.3,41-0.3S416.2,114.2,416.2,114.3z"/>
<path class="st1" d="M388.7,117.7c0,0.1-6,0.3-13.5,0.3s-13.5-0.1-13.5-0.3s6-0.3,13.5-0.3S388.7,117.5,388.7,117.7z"/>
<g id="freepik--Character--inject-17">
	<path class="st6" d="M135.9,435l1.2,37.6l46.9-0.8c-0.4-4.5-26.7-12.9-26.7-12.9l-0.2-25.3L135.9,435z"/>
	<g class="st9">
		<path d="M135.9,435l1.2,37.6l46.9-0.8c-0.4-4.5-26.7-12.9-26.7-12.9l-0.2-25.3L135.9,435z"/>
	</g>
	<path class="st5" d="M144.7,457c-0.9,0.3-1.5,1.2-1.3,2.2c0.3,0.9,1.2,1.5,2.2,1.3c1-0.3,1.6-1.3,1.3-2.4c-0.4-1-1.4-1.4-2.4-1.1"
		/>
	<path class="st5" d="M137.1,472.6l-0.1-3.8l45.1,0.7c0,0,2.1,0.9,1.9,2.4L137.1,472.6z"/>
	<path class="st5" d="M158,459.3c0,0.2-1.1,0.4-2.3,1.1s-1.7,1.7-1.9,1.6s0.1-1.4,1.5-2.3S158,459.1,158,459.3z"/>
	<path class="st5" d="M164.1,461.4c0.1,0.2-0.9,0.6-1.7,1.6s-1,2-1.2,2s-0.4-1.3,0.6-2.5S164.1,461.1,164.1,461.4z"/>
	<path class="st5" d="M166.9,467c-0.2,0.1-0.6-1.1,0-2.4s1.6-1.8,1.7-1.6s-0.6,0.9-1,1.9S167.1,467,166.9,467z"/>
	<path class="st5" d="M157.5,453.1c-0.1,0.2-1.1-0.1-2.4,0s-2.3,0.5-2.4,0.4s0.8-1,2.4-1.1S157.6,452.9,157.5,453.1z"/>
	<path class="st5" d="M158.2,447.4c-0.8,0.2-1.6,0.2-2.4,0c-0.8-0.1-1.7-0.4-2.5-0.7c-0.5-0.2-0.9-0.4-1.4-0.7
		c-0.3-0.1-0.5-0.3-0.7-0.5c-0.3-0.3-0.4-0.8-0.1-1.2c0.2-0.3,0.6-0.5,1-0.5c0.3,0,0.6,0,0.9,0.1c0.5,0.1,1,0.3,1.5,0.5
		c0.8,0.3,1.5,0.8,2.2,1.4c1.1,1,1.5,1.8,1.4,1.9s-0.6-0.6-1.8-1.4c-1-0.8-2.2-1.3-3.5-1.5c-0.5-0.1-0.9-0.1-1,0.1s-0.1,0.1,0,0.3
		c0.2,0.2,0.3,0.3,0.5,0.4c0.4,0.3,0.8,0.5,1.3,0.7c0.7,0.3,1.5,0.6,2.3,0.8C156.7,447,157.5,447.2,158.2,447.4z"/>
	<path class="st10" d="M182.4,121c-0.4-9.1-7.7-16.4-16.8-16.7h-0.9c-9.8,0.2-15,8.6-14.6,18.3l-0.7,41.7c8.2,5.3,16,9.3,22.4,6.8
		l1-17.4c0,0,9.4-1.1,9.9-10.4C183.1,138.7,182.8,129.4,182.4,121z"/>
	<path class="st11" d="M173,153.7c-4.3-0.1-8.5-1.5-12.1-3.9c0,0,2.5,6.9,11.9,6.4L173,153.7z"/>
	<path class="st5" d="M179.7,127.9c0,0.7-0.6,1.3-1.3,1.3s-1.3-0.5-1.3-1.2l0,0c0-0.7,0.6-1.3,1.3-1.3
		C179,126.7,179.6,127.2,179.7,127.9L179.7,127.9z"/>
	<path class="st5" d="M180.3,125.4c-0.2,0.2-1.2-0.6-2.6-0.7s-2.5,0.6-2.7,0.4s0.1-0.4,0.6-0.7c0.6-0.4,1.4-0.6,2.1-0.6
		c0.7,0,1.5,0.3,2.1,0.8C180.2,125.1,180.3,125.4,180.3,125.4z"/>
	<path class="st5" d="M166.3,127.9c0,0.7-0.6,1.3-1.3,1.3s-1.3-0.5-1.3-1.2l0,0c0-0.7,0.6-1.3,1.3-1.3
		C165.6,126.7,166.2,127.2,166.3,127.9z"/>
	<path class="st5" d="M166.1,125.2c-0.2,0.2-1.1-0.6-2.6-0.7s-2.5,0.6-2.7,0.4s0.1-0.4,0.6-0.7c0.6-0.4,1.4-0.6,2.1-0.6
		c0.7,0,1.5,0.3,2.1,0.8C166.1,124.8,166.2,125.1,166.1,125.2z"/>
	<path class="st5" d="M170.9,136c0.8-0.2,1.6-0.3,2.4-0.3c0.4,0,0.7-0.1,0.8-0.3c0-0.4,0-0.8-0.2-1.1c-0.3-0.9-0.6-1.9-1-2.8
		c-1.4-4-2.3-7.3-2.2-7.4s1.4,3.2,2.8,7.2l0.9,2.9c0.2,0.5,0.3,1,0.1,1.4c-0.1,0.3-0.3,0.4-0.6,0.5c-0.2,0-0.4,0.1-0.6,0.1
		C172.5,136.2,171.7,136.1,170.9,136z"/>
	<path class="st5" d="M159.6,121.9c0.1-0.4,1.6-0.2,3.3-0.4s3.1-0.7,3.3-0.3c0.1,0.2-0.1,0.5-0.7,0.9c-0.7,0.5-1.6,0.8-2.4,0.8
		c-0.9,0.1-1.7,0-2.6-0.3C159.8,122.4,159.5,122.1,159.6,121.9z"/>
	<path class="st5" d="M180,120.4c-0.3,0.3-1.5-0.1-3-0.1s-2.7,0.1-3-0.2c-0.1-0.2,0.1-0.5,0.6-0.8c0.8-0.4,1.6-0.5,2.4-0.4
		c0.8,0,1.7,0.3,2.4,0.8C180,120,180.1,120.3,180,120.4z"/>
	<path class="st10" d="M150.7,129.5c-0.1-0.1-6.4-2.2-6.4,4.3c0,6.4,6.4,5.1,6.4,4.9S150.7,129.5,150.7,129.5z"/>
	<path class="st11" d="M148.8,136.3c0,0-0.1,0.1-0.3,0.2c-0.3,0.1-0.6,0.1-0.8,0c-0.8-0.5-1.3-1.5-1.3-2.5c0-0.6,0.1-1.1,0.3-1.6
		c0.1-0.4,0.4-0.7,0.9-0.9c0.3-0.1,0.5,0.1,0.6,0.3s0.1,0.3,0.1,0.3s0.1-0.1,0.1-0.4c0-0.2-0.1-0.3-0.3-0.4
		c-0.2-0.1-0.4-0.2-0.6-0.2c-0.5,0.1-1,0.5-1.2,1c-0.3,0.6-0.4,1.2-0.4,1.8c-0.1,1.2,0.6,2.3,1.6,2.8c0.3,0.1,0.7,0,1-0.2
		C148.8,136.4,148.8,136.3,148.8,136.3z"/>
	<path class="st11" d="M161.1,131.1c-0.1,0-0.2-0.1-0.2-0.1c0-0.1,0-0.2,0.1-0.2l0,0c0.1,0,0.2,0,0.2,0.1l0,0
		C161.3,131,161.2,131.1,161.1,131.1L161.1,131.1z"/>
	<path class="st11" d="M163.9,130.6c-0.1,0-0.2-0.1-0.2-0.2s0-0.2,0.1-0.2s0.2,0.1,0.2,0.2l0,0C164,130.5,164,130.6,163.9,130.6
		L163.9,130.6z"/>
	<path class="st11" d="M165.7,130.6c-0.1,0-0.2-0.1-0.2-0.3s0.1-0.3,0.1-0.3s0.2,0.1,0.2,0.2S165.8,130.6,165.7,130.6z"/>
	<path class="st11" d="M162.4,132.9c-0.1,0-0.2-0.1-0.2-0.1s0.1-0.1,0.2-0.1s0.1,0.1,0.1,0.1S162.5,132.9,162.4,132.9z"/>
	<path class="st11" d="M164.9,132.4c-0.1,0-0.2-0.1-0.2-0.2c0-0.1,0.1-0.2,0.1-0.2l0,0c0.1,0,0.2,0.1,0.2,0.2
		C165.1,132.3,165,132.4,164.9,132.4z"/>
	<path class="st11" d="M178.1,131.3c-0.1,0-0.2-0.1-0.2-0.1l0,0c0-0.1,0-0.2,0.1-0.2s0.2,0.1,0.2,0.2
		C178.2,131.2,178.2,131.3,178.1,131.3L178.1,131.3z"/>
	<path class="st11" d="M180,131.2c-0.1,0-0.2-0.1-0.2-0.2l0,0c0-0.1,0-0.2,0.1-0.2s0.2,0.1,0.2,0.2l0,0
		C180.1,131.1,180.1,131.2,180,131.2z"/>
	<path class="st11" d="M176.4,131.3c-0.1,0-0.2,0-0.2-0.1s0-0.1,0.1-0.2l0,0c0.1,0,0.2,0,0.2,0.1
		C176.6,131.2,176.5,131.3,176.4,131.3z"/>
	<path class="st11" d="M177.8,133.2c-0.1,0-0.2,0-0.2-0.1s0-0.2,0.1-0.2l0,0c0.1,0,0.2,0,0.2,0.1
		C177.9,133.1,177.8,133.2,177.8,133.2L177.8,133.2z"/>
	<path class="st11" d="M179.4,133c-0.1,0-0.1-0.1-0.1-0.2c0-0.1,0.1-0.1,0.2-0.1l0,0c0.1,0,0.1,0.1,0.1,0.1l0,0
		C179.5,133,179.5,133,179.4,133L179.4,133z"/>
	<path class="st5" d="M173.1,141c-0.1,0.1-1.2-0.5-2.8-0.7s-2.8-0.1-2.9-0.3C169.3,139.3,171.5,139.7,173.1,141L173.1,141z"/>
	<path class="st5" d="M188.3,108.3c-0.4-0.1-0.8-0.3-1.1-0.5c-0.4-0.5-0.6-1.2-0.5-1.9c0.1-0.7-0.2-1.3-0.7-1.8
		c-0.8-0.4-1.8,0.3-2.7,0s-0.9-1.5-1.4-2.3c-0.6-1-1.9-1.5-3.1-1c-0.7,0.3-1.5,1.1-2.2,0.6s-0.5-1.3-0.8-1.9
		c-0.4-0.9-1.4-1.3-2.3-0.9c0,0-0.1,0-0.1,0.1c-0.6,0.4-1.2,1.2-1.9,0.9s-0.5-1.2-1.1-1.6c-0.5-0.3-1.1-0.2-1.4,0.2
		c-0.4,0.4-0.7,0.8-0.9,1.3c-0.3,0.5-0.8,0.7-1.3,0.8c-0.6,0-1-0.6-1.4-0.9c-1.5-1.3-3.8-1-5.4,0.1c-1,0.7-1.9,1.7-2.5,2.8
		c-1.7-0.4-3.5-0.3-5.2,0.1c-3.8,1.1-6.9,4.9-6.6,8.8c0.1,1.9,0.9,3.6,1.2,5.4c0.2,2.2,0.2,4.4,0.1,6.6c0,2.2,0.1,4.2,1.6,5.9
		l1.9,0.5c0.1,0.2,0.3,0.4,0.4,0.6c0.6,0.8,1.6,1.1,2.5,0.7c0.4-0.4,0.7-0.9,0.8-1.4c1.2-4,2.3-8.3,1.8-12.4
		c-0.3-2.2,0.7-4.5,2.7-5.6c0.6-0.4,1.2-0.6,1.9-0.8c0.7-0.1,1.3-0.1,2,0c1.4,0.3,2.7,1.1,3.5,2.3c0.6,0.8,1,1.9,2,2.1
		s2.1-0.6,3.1-0.6s2,0.9,2.8,1.7s1.9,1.5,3,1.2s1.5-1.4,2.5-1.7c0.7-0.2,1.4-0.1,2.1,0.3c0.6,0.3,1.3,0.6,2,0.8
		c0.7,0.2,1.5-0.1,1.9-0.7c0.4-0.7,0.2-1.7,0.7-2.3s1.3-0.6,2-0.9c1.3-0.5,1.9-2,1.3-3.3C189.4,109.1,188.9,108.6,188.3,108.3
		L188.3,108.3z"/>
	<path class="st8" d="M146.9,120.3c0-0.1,0.6,0,1.7-0.1c2.7-0.3,5.1-1.7,6.6-3.9c0.3-0.5,0.6-0.9,0.9-1.4c-0.1,0.6-0.3,1.1-0.6,1.6
		c-1.4,2.4-4,4-6.9,4.1C148,120.5,147.4,120.5,146.9,120.3z"/>
	<path class="st8" d="M146.5,122.7c1.7,0,3.4-0.2,5-0.8c1.5-0.7,3-1.6,4.2-2.8c0.1,0-0.2,0.6-0.9,1.3c-0.9,0.9-1.9,1.6-3.1,2
		c-1.2,0.5-2.5,0.7-3.7,0.7C147.5,123,147,122.9,146.5,122.7z"/>
	<polygon class="st5" points="139.7,250.1 128.1,286.8 135.5,452.7 158.1,450 161.1,371 173.3,282.7 174.6,251.5 	"/>
	<path class="st6" d="M147.1,412.9l-22.2,30.4l37.4,28.2c2.5-3.7-13.1-26.6-13.1-26.6l15.4-20L147.1,412.9z"/>
	<path class="st5" d="M140.5,435.7c-0.9-0.3-1.9,0.1-2.4,1c-0.4,0.9,0,1.9,0.9,2.4c1,0.4,2.1-0.1,2.5-1c0.3-1-0.3-2-1.2-2.4"/>
	<path class="st5" d="M124.9,443.3l2.3-3.1l35.1,28.3c0,0,1.1,2,0,3L124.9,443.3z"/>
	<path class="st5" d="M149.5,445.7c-0.1,0.2-1.1-0.4-2.5-0.5s-2.4,0.3-2.5,0.1s0.9-1,2.6-0.9S149.7,445.6,149.5,445.7z"/>
	<path class="st5" d="M153.1,451.1c-0.1,0.2-1.1-0.1-2.3,0.2s-2,1-2.2,0.9s0.5-1.3,2-1.6S153.3,451,153.1,451.1z"/>
	<path class="st5" d="M151.9,457.3c-0.2-0.1,0.2-1.2,1.5-1.8s2.4-0.4,2.3-0.2s-1,0.4-2,0.9S152.1,457.4,151.9,457.3z"/>
	<path class="st5" d="M153,440.5c-0.2,0.1-0.9-0.8-1.9-1.5s-2.1-1-2.1-1.2s1.3-0.3,2.6,0.6S153.2,440.4,153,440.5z"/>
	<path class="st5" d="M157.1,436.5c0,0.1-0.9-0.4-1.9-1.4c-0.6-0.6-1.1-1.3-1.5-2.1c-0.3-0.4-0.5-0.9-0.6-1.4
		c-0.1-0.3-0.2-0.6-0.2-0.9c0-0.4,0.2-0.8,0.6-1c0.4-0.1,0.8,0,1.1,0.2c0.2,0.2,0.4,0.4,0.6,0.6c0.3,0.4,0.6,0.8,0.9,1.3
		c0.4,0.8,0.7,1.6,0.9,2.4s0.2,1.6,0,2.4c-0.1,0-0.1-0.9-0.5-2.2c-0.2-0.8-0.6-1.5-1-2.2c-0.2-0.4-0.5-0.8-0.8-1.1
		c-0.3-0.4-0.7-0.7-0.9-0.6s-0.1,0.1-0.1,0.3c0,0.2,0.1,0.4,0.2,0.6c0.2,0.4,0.3,0.9,0.6,1.3c0.4,0.7,0.8,1.4,1.3,2.1
		C156.5,435.8,157.1,436.4,157.1,436.5z"/>
	<path class="st5" d="M174.6,251.5l13.2,0.5c0,0,29.3,104.7,26.3,113.9S156.9,436,156.9,436l-16.2-17c0,0,17.4-29.5,25.1-37.9
		c5.6-6,20-17.5,20-17.5l-18.5-37.4L174.6,251.5z"/>
	<path class="st8" d="M175.8,292.2c-0.1,0.6-0.3,1.1-0.6,1.6c-0.4,1-0.9,2.6-1.6,4.5c-1.3,3.8-3,9-4.4,15s-2.3,11.4-2.9,15.4
		c-0.3,2-0.5,3.6-0.6,4.7c0,0.6-0.1,1.2-0.3,1.7c-0.1-0.6-0.1-1.2,0-1.7c0.1-1.1,0.2-2.7,0.4-4.7c0.6-5.2,1.5-10.3,2.7-15.4
		s2.8-10.1,4.6-15c0.7-1.9,1.3-3.4,1.8-4.4C175.3,293.2,175.5,292.7,175.8,292.2z"/>
	<path class="st8" d="M156.9,436l-0.3-0.3l-0.9-0.9l-3.3-3.4l-11.9-12.3l-0.1-0.1l0.1-0.1c4.2-7.1,9.2-15.6,15.1-24.5
		c4.5-7,9.8-13.6,15.7-19.5c2.5-2.4,5-4.6,7.8-6.7c1.3-0.9,2.4-1.8,3.5-2.6l3.2-2.1l0,0h0.1l6.3,1.4l1.7,0.4c0.2,0,0.4,0.1,0.6,0.2
		c-0.2,0-0.4,0-0.6-0.1l-1.7-0.3l-6.3-1.3h0.1l-3.1,2.2c-1.1,0.8-2.3,1.7-3.5,2.6c-2.7,2.1-5.2,4.4-7.7,6.8
		c-5.9,5.9-11.1,12.5-15.6,19.5c-5.9,8.9-10.9,17.4-15.2,24.4V419l11.7,12.4l3.2,3.5l0.8,0.9C156.7,435.8,156.8,435.9,156.9,436z"/>
	<path class="st10" d="M190.7,230.4c0.1,0.3,4.8-1.4,5.3-3.3s0.4-7.2,0.4-7.2l-12-7.3l0.1,10C187.7,223.9,190.1,226.8,190.7,230.4z"
		/>
	<path class="st10" d="M177.4,152.1l5.3,3.4c0,0,1.7,4.1,3.8,6s5.8,5.7,5.8,5.7l1.6,5.8l11.6-2.9l-5-16.8l-1.5-4.4
		c0,0-2.5-3.9-5.8-1.8c0,0,0.4-1.4-1-1.5c-1.2,0-2.3,0.1-3.4,0.4c-0.9-0.6-1.9-1-2.9-1.1c-0.7,0-1.5,0.1-2.2,0.2
		c0,0-0.4-1.6-1.3-1.4s-2,1.8-2.3,2.7c-0.2,1.2-0.2,2.3-0.1,3.5L177.4,152.1z"/>
	<path class="st11" d="M193.8,147c-0.8,0.5-1.5,1.2-1.9,2c-0.5,0.9-0.7,1.9-0.6,2.9c0,0.6,0.1,1.2,0.2,1.8c0.1,0.3,0.1,0.6,0.2,0.9
		c0,0.3,0.1,0.6,0.2,0.9c0.1,0.2,0.4,0.4,0.6,0.4c0.3,0.1,0.6,0.1,0.8,0c0.5-0.1,0.9-0.6,1.1-1.1c0.3-1-0.1-2.1,0.1-3.1
		c0-0.4,0.2-0.8,0.5-1.2c0.2-0.3,0.5-0.4,0.8-0.5c0.5-0.1,0.8,0.1,0.8,0.1c-0.2,0-0.5,0-0.7,0.1c-0.6,0.3-1,0.9-1,1.6
		c-0.1,0.8,0.3,1.9,0,3.1c-0.3,1.1-1.4,1.7-2.5,1.4c-0.4-0.1-0.7-0.3-1-0.6c-0.1-0.3-0.2-0.7-0.2-1.1c-0.1-0.3-0.1-0.6-0.2-1
		c-0.1-0.6-0.1-1.2-0.1-1.9c0-1.1,0.3-2.2,0.8-3.1c0.4-0.6,0.9-1.2,1.5-1.5C193.4,147,193.7,147,193.8,147z"/>
	<path class="st11" d="M197.7,153.2c0,0.1-0.6,0.2-1.4,0.2s-1.4,0.1-1.4-0.1s0.6-0.4,1.4-0.4S197.7,153.1,197.7,153.2z"/>
	<path class="st11" d="M191.3,155.6c0,0,0.1,0.2,0.2,0.7c0.1,0.7-0.2,1.4-0.7,1.9c-0.4,0.4-0.9,0.6-1.4,0.6c-0.6,0-1.2-0.4-1.5-0.9
		s-0.5-1.1-0.6-1.7c-0.1-0.6-0.2-1.2-0.3-1.9c-0.1-1.2-0.2-2.4-0.1-3.6c0-1,0.1-2,0.4-3c0.2-0.7,0.6-1.2,1.2-1.6
		c0.2-0.2,0.4-0.2,0.7-0.3c0,0-0.2,0.1-0.6,0.4c-0.5,0.4-0.8,1-1,1.6c-0.2,0.9-0.3,1.9-0.3,2.9c0,1.2,0,2.4,0.2,3.6
		c0,1.2,0.3,2.3,0.8,3.4c0.2,0.4,0.6,0.7,1.1,0.7c0.4,0,0.8-0.1,1.1-0.4c0.5-0.4,0.7-1,0.7-1.7C191.2,156.1,191.3,155.8,191.3,155.6
		z"/>
	<path class="st11" d="M186.7,154.7c0.1,0-0.2,1-1.7,1.5c-1,0-1.8-0.6-2-1.6c-0.3-1-0.4-2-0.4-3c0-1.8,0.3-3.6,1-5.3
		c0.2-0.5,0.7-1,1.2-1.2c0.4-0.2,0.6-0.1,0.6-0.1s-0.2,0.1-0.5,0.3c-0.4,0.3-0.8,0.7-0.9,1.2c-0.6,1.7-0.8,3.4-0.8,5.2
		c0,1,0.1,1.9,0.3,2.8c0.2,0.7,0.7,1.3,1.5,1.4c0.5-0.1,1-0.4,1.3-0.7C186.6,154.9,186.6,154.7,186.7,154.7z"/>
	<path class="st11" d="M183.6,145.1c0.1,0.4,0,0.9-0.1,1.3c-0.1,1.1-0.5,2.1-1.1,3c-0.2,0.3-0.5,0.5-0.9,0.6c-0.3,0.1-0.7,0-1-0.2
		c-0.4-0.3-0.7-0.8-0.8-1.3c-0.1-0.4,0-0.9,0.2-1.3c0.1,0,0,0.5,0.2,1.2c0.1,0.4,0.3,0.8,0.7,1s0.9,0.1,1.2-0.3
		c0.6-0.8,1-1.7,1.2-2.7C183.4,145.5,183.6,145,183.6,145.1z"/>
	<path class="st11" d="M198.1,159.5c-0.7-0.6-1.5-1.2-2.2-1.8c-0.9-0.4-1.8-0.8-2.7-1.1c1-0.2,2.1,0.1,2.9,0.7
		C197,157.7,197.7,158.5,198.1,159.5z"/>
	<path class="st11" d="M200.1,162.3c-1.4,2.4-4.3,3.6-7,3c1.3-0.2,2.5-0.4,3.8-0.9C198,163.8,199.1,163.1,200.1,162.3z"/>
	<path class="st11" d="M182.8,142.7c-0.1,3.9-2.2,7.5-5.6,9.4c1.4-1.3,2.6-2.7,3.6-4.3C181.6,146.2,182.3,144.5,182.8,142.7z"/>
	<path class="st6" d="M183.8,173.8c0,0,3.4,1.6,5.1,6.5c1.1,3.4,7.6,15.2,7.6,15.2l-2.7-22.6l11.5-4c0,0,9.7,21.1,12,34
		c2.3,12.6-4,21-10.7,20.8s-23-11.6-23-11.6L183.8,173.8z"/>
	<path class="st5" d="M193.9,173c0.1,0.4,0.2,0.9,0.3,1.3c0.1,1,0.3,2.2,0.5,3.7c0.4,3.1,0.9,7.4,1.5,12.1c0.2,1.8,0.4,3.6,0.6,5.2
		l0,0c0.3,1.7,0.6,3.3,0.8,4.7c0.2,1.2,0.5,2.5,0.9,3.6c0.7,2,1.3,3.1,1.2,3.1c-0.2-0.2-0.3-0.5-0.5-0.8c-0.4-0.7-0.7-1.5-1-2.3
		c-0.5-1.2-0.8-2.4-1.1-3.7c-0.3-1.4-0.6-3-0.9-4.7l0,0c-0.2-1.6-0.4-3.4-0.6-5.2c-0.6-4.7-1-9-1.4-12.1c-0.1-1.5-0.3-2.7-0.4-3.7
		C193.9,173.9,193.8,173.5,193.9,173z"/>
	<g class="st9">
		<path d="M217.8,209.9c0-2.3-8,0.6-11.1,2.6c-3.2,2.3-5.6,5.5-6.9,9.1c0,0,5.5,3.1,9.7,1.7C215.4,221.3,217.8,213.8,217.8,209.9z"
			/>
	</g>
	<path class="st6" d="M146.2,158.9c0,0-21.7,10.5-24,16.9s1.5,22.9,1.5,22.9l8.6,44.5l1.8,16.6l-4.6,6.7l2,6.9
		c23.4,3.1,45.2,3.8,63.9-0.9l-1.3-15.3l-8.6-35.6l-1.1-29.9l-0.5-18.1l-11.6-9.6c0,0-1.9,5.2-6.7,4.1s-16.1-12.5-16.1-12.5
		L146.2,158.9z"/>
	<path class="st6" d="M124.5,202.9c0.7,0.7,14.3,37,24,41.5s15.4,2.9,19.6,1.8s22.6-14.1,22.6-14.1s-1.3-8.7-6.6-9
		c-3.4-0.1-6.8,0.1-10.1,0.8l-6.5-4.3c0,0-3.8-7.4-5.9-7.7l-12.6-28c0,0-11.7-22.9-23.4-12.3C114.3,181.8,124.5,202.9,124.5,202.9z"
		/>
	<path class="st5" d="M174.2,167c-0.2,0.4-0.4,0.8-0.7,1.1c-0.7,1-1.5,1.8-2.5,2.5c-0.7,0.5-1.4,0.9-2.3,1.1
		c-0.9,0.3-1.9,0.4-2.9,0.3c-2.2-0.2-4.3-0.8-6.3-1.6s-3.9-2-5.6-3.3c-1.4-1.1-2.6-2.4-3.8-3.7c-1-1.1-1.7-2.1-2.2-2.8
		c-0.3-0.3-0.5-0.7-0.7-1.1c0.3,0.3,0.6,0.6,0.9,1c0.6,0.6,1.3,1.6,2.4,2.6c1.2,1.3,2.4,2.5,3.8,3.6c1.7,1.3,3.5,2.4,5.5,3.2
		c1.9,0.9,4,1.4,6.1,1.6c1.7,0.2,3.4-0.3,4.9-1.2c1-0.7,1.8-1.5,2.6-2.4C173.6,167.6,173.9,167.3,174.2,167z"/>
	<path class="st5" d="M182.6,183.9c0.1,0,0.7,8.6,1.2,19.3s0.8,19.3,0.7,19.4s-0.7-8.6-1.2-19.3S182.5,183.9,182.6,183.9z"/>
	<path class="st5" d="M128.5,172l0.2-0.1l0.7-0.3c1-0.4,2-0.6,3-0.7c1.7-0.2,3.4,0,5,0.6c2.1,0.8,4.1,2,5.7,3.6c2,2,3.7,4.2,5,6.6
		c0.8,1.3,1.4,2.8,2,4.3s1.4,3,2.1,4.6l9.5,21.1l-0.2-0.1c0.8,0.3,1.5,0.8,2,1.4c0.5,0.6,1,1.3,1.5,2c0.9,1.4,1.8,2.9,2.6,4.4
		l-0.1-0.1l2.5,2.5l-0.2-0.1l12.3,0.8l1.6,0.1c0.6,0,1.1,0.2,1.6,0.4c1,0.4,1.9,1.1,2.6,2.1c1.3,1.8,2.2,3.9,2.6,6.1
		c0,0.2,0.1,0.4,0.1,0.6v0.2l-0.1,0.1c-5.4,3.8-10.7,7.4-16,10.7c-1.3,0.8-2.6,1.6-4,2.3c-0.3,0.2-0.7,0.4-1,0.5
		c-0.3,0.2-0.7,0.3-1.1,0.5c-0.7,0.3-1.4,0.5-2.2,0.6c-2.9,0.8-5.8,1-8.8,0.6c-2.8-0.4-5.5-1.1-8.1-2.3c-0.6-0.2-1.2-0.5-1.8-0.9
		c-0.3-0.2-0.6-0.3-0.9-0.6c-0.3-0.2-0.5-0.4-0.8-0.6c-1-0.9-1.9-1.8-2.7-2.8c-2.9-3.8-5.4-7.8-7.5-12c-4-7.6-6.7-14.1-8.6-18.5
		c-0.9-2.2-1.6-3.9-2.1-5.1s-0.8-1.8-0.8-1.8c0.3,0.6,0.6,1.1,0.8,1.7l2.2,5.1c1.9,4.4,4.7,10.8,8.7,18.4c2.2,4.2,4.7,8.2,7.5,11.9
		c1.5,2.1,3.6,3.7,6,4.7c2.5,1.1,5.2,1.9,7.9,2.2c2.9,0.3,5.8,0.1,8.6-0.6c0.7-0.2,1.4-0.4,2.1-0.6c0.3-0.1,0.7-0.3,1-0.4
		c0.3-0.2,0.7-0.3,1-0.5c1.3-0.7,2.6-1.5,4-2.3c5.3-3.3,10.6-6.9,16-10.7l-0.1,0.3l-0.1-0.6c-0.4-2.1-1.2-4.1-2.5-5.9
		c-0.6-0.8-1.4-1.5-2.4-1.9c-1-0.3-2-0.4-3.1-0.4l-12.3-0.9h-0.1l-0.1-0.1l-2.5-2.5l0,0l0,0c-0.8-1.5-1.6-2.9-2.5-4.3
		c-0.4-0.7-0.9-1.3-1.5-1.9c-0.4-0.6-1-1-1.7-1.3h-0.1V212l-9.5-21.1l-2.1-4.6c-0.7-1.5-1.3-2.9-2-4.2c-1.3-2.4-2.9-4.7-4.9-6.6
		c-1.6-1.6-3.4-2.8-5.5-3.6c-1.6-0.6-3.2-0.8-4.9-0.6c-1,0.1-2,0.3-3,0.6l-0.8,0.3L128.5,172z"/>
	<path class="st5" d="M175.3,222.4c0,0.3-2.7,0.2-6.1-0.1L165,222c-0.6,0-1.2-0.1-1.8-0.2c0-0.2,2.7-0.2,6.1,0.1
		c1.7,0.1,3.2,0.3,4.3,0.4L175.3,222.4z"/>
	<path class="st5" d="M151.9,212.4c1.6-0.4,3.2-0.6,4.8-0.6c1.6-0.2,3.2-0.2,4.8-0.1c-1.6,0.4-3.2,0.6-4.8,0.6
		C155.1,212.5,153.5,212.5,151.9,212.4z"/>
	<g class="st9">
		<path d="M173.9,243.1c-3-5.3-8.2-9-14.2-10.3c-6-1.2-13.1,0.9-18,4.6c3.2,5.2,8.6,8.8,14.7,9.6C162.5,248,168.8,246.6,173.9,243.1
			z"/>
	</g>
	<g class="st9">
		<path d="M148.5,160.8c1.7,4.1,4,8.1,7.5,10.8s8.3,4.1,12.5,2.7c2.2-0.7,4.3-2.4,4.5-4.6c-8.8,3.4-18.8,0-23.8-8"/>
	</g>
	<g class="st9">
		<path d="M184.3,212.6c1.3-8.3,1.3-16.8-0.1-25.1c-0.1-0.6-0.4-1.3-1-1.2s-0.6,0.7-0.6,1.2c-0.1,8.5,0.3,17,1.2,25.4"/>
	</g>
	<path class="st5" d="M182.7,267.2c-0.2,0.1-0.3,0.1-0.5,0.2l-1.4,0.4c-0.6,0.2-1.4,0.4-2.2,0.5s-1.9,0.4-3,0.6
		c-2.2,0.4-4.9,0.8-7.9,1c-3.2,0.3-6.5,0.3-9.7,0.2c-3.2-0.1-6.5-0.4-9.7-0.9c-3-0.5-5.6-1-7.8-1.6c-1.1-0.3-2.1-0.6-3-0.8
		s-1.6-0.5-2.2-0.7l-1.4-0.5c-0.2-0.1-0.3-0.1-0.5-0.2c0.2,0,0.3,0,0.5,0.1l1.4,0.4c0.6,0.2,1.4,0.4,2.2,0.6s1.9,0.5,3,0.7
		c2.2,0.5,4.8,1,7.8,1.5s6.2,0.7,9.6,0.9s6.7,0,9.7-0.2s5.6-0.5,7.9-0.9c1.1-0.1,2.1-0.4,3-0.5s1.6-0.3,2.3-0.5l1.4-0.3
		C182.4,267.2,182.5,267.2,182.7,267.2z"/>
	<g class="st9">
		<path d="M138,266.3c1-1.3,2.5-2.1,4.1-2.1s3.2,0.2,4.7,0.6c10.8,2.4,22,2.2,32.7-0.5c0.1,1.4-0.6,2.6-1.8,3.3
			c-1.2,0.6-2.5,0.9-3.8,1c-12,2.3-24.4,0.8-36-2"/>
	</g>
</g>
<g id="freepik--Boxes--inject-17">
	<rect x="558.9" y="265.7" class="st6" width="134.8" height="96.9"/>
	<path class="st5" d="M595,265.7c0.2,0,0,20.5,0,20.5h-10v-20.5H595z"/>
	<g class="st12">
		<rect x="626.3" y="265.7" width="67.4" height="96.9"/>
	</g>
	<rect x="563" y="343.6" class="st4" width="18" height="12.8"/>
	<path class="st5" d="M581,356.4h-18v-12.8h18.1L581,356.4z M563,356.3h18v-12.7h-18V356.3z"/>
	<rect x="584.3" y="343.6" class="st4" width="9" height="12.8"/>
	<path class="st5" d="M593.4,356.4h-9.1v-12.8h9.1V356.4z M584.4,356.3h9v-12.7h-9V356.3z"/>
	<rect x="534.3" y="362.6" class="st6" width="153.3" height="110.2"/>
	<path class="st5" d="M575.5,362.6c0.2,0,0,23.3,0,23.3h-11.4v-23.3H575.5z"/>
	<g class="st12">
		<rect x="611" y="362.6" width="76.6" height="110.2"/>
	</g>
	<rect x="539" y="451.3" class="st4" width="20.5" height="14.5"/>
	<path class="st5" d="M559.5,465.8H539v-14.6h20.6L559.5,465.8z M539,465.8h20.5v-14.5H539V465.8z"/>
	<rect x="563.3" y="451.3" class="st4" width="10.3" height="14.5"/>
	<path class="st5" d="M573.6,465.8h-10.3v-14.6h10.3V465.8z M563.3,465.8h10.2v-14.5h-10.2V465.8z"/>
	<path class="st5" d="M693.6,362.5c0,0.1-30.2,0.3-67.4,0.3s-67.4-0.1-67.4-0.3s30.2-0.3,67.4-0.3S693.6,362.4,693.6,362.5z"/>
</g>
<g id="freepik--speech-bubble--inject-17">
	<path class="st6" d="M96.4,74.6c0.4,0.2,0.7,0.6,0.7,1.1v6c0,0.7-0.6,1.2-1.2,1.2c-0.1,0-0.2,0-0.3,0c-1-0.3-2.1-0.1-3,0.4
		c-0.8,0.5-1.3,1.3-1.5,2.2c-0.2,0.9,0.1,1.9,0.6,2.6c0.6,0.9,1.5,1.5,2.5,1.7c2.1,0.2,4.1-1.1,4.8-3.1c0.2-0.6,0.9-1,1.5-0.8
		s1,0.9,0.8,1.5c-1,3.1-4.2,5.1-7.4,4.7c-1.7-0.3-3.2-1.3-4.1-2.7c-1.9-2.5-1.3-6,1.1-7.9c0.2-0.1,0.4-0.3,0.6-0.4
		c1-0.6,2.2-0.9,3.3-0.9v-4.7c0-0.7,0.5-1.2,1.2-1.2C96.1,74.4,96.2,74.5,96.4,74.6z"/>
	<path class="st6" d="M94.7,72c0-0.6,0.4-1,1-1s1,0.4,1,1s-0.4,1-1,1S94.7,72.6,94.7,72z"/>
	<path class="st5" d="M124.3,104.4c0,0-0.3,0-0.8,0.3c-0.7,0.3-1.3,0.8-1.7,1.4c-0.3,0.4-0.5,0.9-0.5,1.4c-0.1,0.6,0,1.2,0.3,1.7
		c0.6,1.2,1.9,2,3.3,2c1.4-0.1,2.5-1.1,3-2.4c0.2-0.6,0.2-1.2,0.1-1.7c-0.1-0.5-0.4-1-0.7-1.4c-0.5-0.6-1.1-1-1.8-1.2
		c-0.5-0.1-0.8-0.1-0.8-0.2c0.1,0,0.1,0,0.2,0s0.2,0,0.3,0c0.1,0,0.2,0,0.4,0c0.8,0.2,1.5,0.6,2,1.2c0.4,0.4,0.6,0.9,0.8,1.4
		c0.2,0.6,0.1,1.3-0.1,1.9c-0.2,0.7-0.6,1.2-1.2,1.7s-1.3,0.8-2,0.8c-0.8,0-1.5-0.2-2.1-0.6s-1.1-0.9-1.4-1.6
		c-0.3-0.6-0.4-1.2-0.3-1.8c0.1-0.5,0.3-1.1,0.6-1.5c0.4-0.7,1.1-1.2,1.8-1.4c0.1,0,0.2-0.1,0.3-0.1
		C124.1,104.3,124.2,104.3,124.3,104.4C124.3,104.4,124.3,104.4,124.3,104.4z"/>
	<path class="st5" d="M133.2,113.2c0,0-0.2,0-0.5,0.2c-0.4,0.2-0.8,0.5-1,0.9c-0.4,0.6-0.4,1.4-0.1,2c0.5,1,1.7,1.5,2.7,1
		c0.5-0.2,1-0.7,1.1-1.3c0.2-0.7,0.1-1.5-0.4-2c-0.3-0.4-0.7-0.6-1.1-0.8c-0.3-0.1-0.5-0.1-0.5-0.1c0.2,0,0.4,0,0.5,0
		c0.5,0.1,0.9,0.4,1.3,0.8c0.2,0.3,0.4,0.6,0.5,0.9c0.1,0.4,0.1,0.8,0,1.2c-0.3,0.9-1.1,1.5-2.1,1.6c-1,0-1.8-0.5-2.2-1.4
		c-0.2-0.4-0.2-0.8-0.2-1.2c0-0.4,0.2-0.7,0.4-1c0.3-0.4,0.7-0.7,1.1-0.9C132.8,113.1,133,113.1,133.2,113.2z"/>
	<path class="st5" d="M122.9,86.4c0,0,0-0.2,0-0.4s0-0.8,0-1.3c0-0.3,0-0.6,0-1s0-0.8-0.1-1.2s-0.1-0.9-0.1-1.4c0-0.3,0-0.5-0.1-0.8
		s-0.1-0.5-0.2-0.8c-0.4-2.7-1.2-5.2-2.4-7.7c-1.6-3.2-3.8-6.1-6.5-8.5l-1.1-1c-0.4-0.3-0.8-0.6-1.3-0.9l-0.6-0.5
		c-0.2-0.2-0.4-0.3-0.7-0.4l-1.4-0.8l-0.7-0.4L107,59l-1.5-0.7c-0.5-0.2-1.1-0.4-1.6-0.6l-0.8-0.3l-0.4-0.1l-0.4-0.1
		c-1.1-0.3-2.3-0.5-3.5-0.7c-0.6-0.1-1.2-0.2-1.8-0.2h-1.8c-0.3,0-0.6,0-0.9,0l-0.9,0.1c-0.6,0.1-1.3,0.1-1.9,0.2
		c-1.3,0.2-2.6,0.5-3.8,0.8l-1,0.3H86l-0.5,0.2l-1.9,0.7c-0.6,0.3-1.2,0.6-1.8,0.9c-0.3,0.2-0.6,0.3-0.9,0.5L80,60.5
		c-1.2,0.7-2.3,1.6-3.3,2.5l-1.5,1.4l-0.4,0.4l-0.3,0.4L73.8,66l-0.7,0.8l-0.6,0.9l-0.6,0.9L71.5,69c-0.1,0.2-0.2,0.3-0.3,0.5
		l-1.1,1.9l-0.9,2C66.8,79,66.4,85.1,67.8,91l0.6,2.1c0.3,0.7,0.5,1.4,0.8,2l0.2,0.5l0.2,0.5l0.5,1l0.5,1l0.6,0.9l0.6,0.9l0.3,0.4
		l0.3,0.4l1.3,1.7c0.9,1,1.9,2,3,2.9l0.8,0.7c0.3,0.2,0.6,0.4,0.8,0.6c0.6,0.4,1.1,0.8,1.7,1.2l1.7,1L82,109l0.4,0.2l0.9,0.4
		c1.2,0.5,2.4,1,3.7,1.4c0.6,0.2,1.2,0.3,1.9,0.4l0.9,0.2c0.3,0.1,0.6,0.1,0.9,0.1l1.8,0.2c0.6,0.1,1.2,0,1.8,0.1
		c1.2,0,2.4,0,3.5-0.1h0.4l0.4-0.1l0.8-0.2c0.6-0.1,1.1-0.2,1.7-0.3l1.6-0.4l0.8-0.2l0.8-0.3l1.5-0.6c0.2-0.1,0.5-0.2,0.7-0.3
		l0.7-0.3c0.5-0.2,0.9-0.5,1.4-0.7l1.3-0.8c3-1.9,5.6-4.4,7.7-7.4l0.7-0.9l0.6-1l0.6-0.9c0.1-0.2,0.2-0.3,0.3-0.5l0.2-0.5
		c0.3-0.6,0.6-1.2,0.8-1.8c0.3-0.6,0.4-1.1,0.6-1.7c0.1-0.3,0.2-0.5,0.3-0.8c0.1-0.2,0.2-0.5,0.2-0.7c0.1-0.5,0.2-0.9,0.3-1.3
		s0.2-0.8,0.3-1.2s0.1-0.7,0.1-1c0.1-0.6,0.1-1,0.2-1.3C122.8,86.5,122.9,86.4,122.9,86.4s0,0.2-0.1,0.5s-0.1,0.8-0.2,1.3
		c0,0.3-0.1,0.6-0.1,1s-0.2,0.7-0.3,1.2s-0.2,0.9-0.3,1.3c-0.1,0.3-0.1,0.5-0.2,0.7c-0.1,0.3-0.2,0.5-0.3,0.8
		c-0.2,0.5-0.3,1.1-0.6,1.7l-0.8,1.8l-0.2,0.5c-0.1,0.2-0.2,0.3-0.3,0.5l-0.5,0.9c-0.2,0.3-0.4,0.6-0.6,1s-0.4,0.6-0.7,1
		c-2.1,3-4.7,5.5-7.7,7.4l-1.3,0.8c-0.4,0.3-0.9,0.5-1.4,0.7l-0.7,0.4c-0.2,0.1-0.5,0.2-0.7,0.3l-1.5,0.6c-0.3,0.1-0.5,0.2-0.8,0.3
		l-0.8,0.2l-1.6,0.5c-0.6,0.1-1.1,0.2-1.7,0.3l-0.8,0.2l-0.4,0.1h-0.4c-1.2,0.1-2.4,0.2-3.6,0.2c-0.6,0-1.2,0-1.8-0.1l-1.8-0.3
		c-0.3,0-0.6-0.1-0.9-0.1l-0.9-0.2c-0.6-0.2-1.3-0.3-1.9-0.4c-1.2-0.4-2.5-0.8-3.7-1.4l-0.9-0.4c-0.2-0.1-0.3-0.1-0.4-0.2l-0.4-0.3
		l-1.8-1c-0.6-0.4-1.1-0.8-1.7-1.2c-0.3-0.2-0.6-0.4-0.8-0.6l-0.8-0.7c-1.1-0.9-2.1-1.9-3-3l-1.3-1.7l-0.3-0.4l-0.3-0.4L71,99
		l-0.6-0.9l-0.5-1l-0.5-1l-0.3-0.5L69,95.1c-0.3-0.7-0.5-1.4-0.8-2.1l-0.6-2c-1.5-5.9-1-12.1,1.4-17.7c0.3-0.7,0.6-1.3,0.9-2l1.1-2
		c0.1-0.2,0.2-0.3,0.3-0.5l0.3-0.4l0.6-0.9l0.6-0.9l0.7-0.8l0.7-0.8l0.4-0.4l0.4-0.4l1.6-1.5c1.1-0.9,2.2-1.7,3.4-2.5l0.9-0.6
		c0.3-0.2,0.6-0.3,0.9-0.5c0.6-0.3,1.2-0.6,1.8-0.9l1.9-0.7l0.5-0.2l0.5-0.1l1-0.3c1.3-0.4,2.5-0.6,3.8-0.8c0.6-0.1,1.3-0.1,1.9-0.2
		l1-0.1c0.3,0,0.6,0,0.9,0H97c0.6,0,1.2,0.2,1.8,0.2c1.2,0.2,2.4,0.4,3.5,0.7l0.4,0.1l0.4,0.1l0.8,0.3c0.5,0.2,1.1,0.4,1.6,0.6
		l1.5,0.7l0.8,0.3c0.3,0.1,0.5,0.3,0.7,0.4l1.4,0.8c0.2,0.1,0.5,0.3,0.7,0.4l0.6,0.5c0.4,0.3,0.8,0.6,1.3,0.9l1.1,1
		c2.7,2.4,4.9,5.3,6.5,8.5c1.2,2.4,2.1,5,2.5,7.7c0.1,0.3,0.1,0.6,0.1,0.8c0.1,0.3,0.1,0.5,0.1,0.8c0,0.5,0,0.9,0.1,1.4
		c0,0.4,0.1,0.8,0.1,1.2s0,0.7,0,1c0,0.6,0,1,0,1.3S122.9,86.4,122.9,86.4z"/>
</g>
<g id="freepik--Handbag--inject-27">
	<path class="st13" d="M275.1,173.5l6.6-17.3c0.6-1.5,2.2-2.2,3.6-1.6l27,11.6c1.4,0.6,2.1,2.3,1.5,3.9l-6.6,17.3
		c-0.6,1.5-2.2,2.2-3.6,1.6l-27-11.6C275.2,176.7,274.5,175,275.1,173.5z"/>
	<g class="st12">
		<path d="M275.1,173.5l6.6-17.3c0.6-1.5,2.2-2.2,3.6-1.6l27,11.6c1.4,0.6,2.1,2.3,1.5,3.9l-6.6,17.3c-0.6,1.5-2.2,2.2-3.6,1.6
			l-27-11.6C275.2,176.7,274.5,175,275.1,173.5z"/>
	</g>
	<path class="st5" d="M304.6,167.8c0-0.2,0.1-0.3,0.2-0.4c0.1-0.3,0.3-0.7,0.5-1.2c0.7-1.5,1.3-3,1.7-4.6c0.7-2.3,0.6-4.8-0.1-7.1
		c-0.5-1.3-1.4-2.4-2.5-3.2c-1.2-0.8-2.5-1.5-3.9-2.1c-2.7-1.2-5.7-1.8-8.1-0.9c-1.2,0.4-2.2,1-3.1,1.9c-0.8,0.8-1.4,1.7-1.9,2.7
		c-0.7,1.4-1.3,3-1.7,4.5l-0.4,1.3c0,0.2-0.1,0.3-0.2,0.4c0-0.2,0-0.3,0.1-0.5c0.1-0.3,0.2-0.7,0.3-1.3c0.4-1.6,0.9-3.2,1.6-4.6
		c0.5-1,1.2-2,1.9-2.8c0.9-1,2-1.7,3.2-2.1c1.3-0.4,2.7-0.5,4.1-0.3c1.5,0.2,2.9,0.6,4.3,1.2c1.4,0.6,2.7,1.3,3.9,2.1
		c1.2,0.9,2.1,2,2.6,3.4c0.8,2.4,0.8,4.9,0.1,7.3c-0.5,1.6-1.1,3.1-1.9,4.6c-0.3,0.5-0.5,0.9-0.6,1.2
		C304.7,167.5,304.7,167.6,304.6,167.8z"/>
	<path class="st13" d="M271.1,171.6l6.6-17.3c0.6-1.5,2.2-2.2,3.6-1.6l27,11.6c1.4,0.6,2.1,2.3,1.5,3.9l-6.6,17.3
		c-0.6,1.5-2.2,2.2-3.6,1.6l-27-11.6C271.2,174.8,270.5,173.1,271.1,171.6z"/>
	<g class="st14">
		<path class="st3" d="M274.7,162c2.1,1.5,4.4,2.8,6.6,3.9c2.3,1,0.2,1.7,4,1.2s4.2-0.5,5.1,0.3s1.3,1.8,1.9,2.2
			c0.6,0.3,1.2,0.6,1.9,0.8c0,0,2.8,1.2,3.5,1.4c4.6,1.3,5.6,0.2,6.9,2.2s2.1,2.1,2.1,2.1l0.9-2.3l-4.1-1.8c0,0-1.9-1.7-2.4-2
			c-0.6-0.4-0.8-1.2-1.8-0.8c-0.8,0.3-1.6,0.5-2.5,0.4c-0.6,0-2.6-0.4-2.6-0.4l-1.8-0.8l-0.4-1.7l-1.6-1.2l-0.9-0.1l-2.2-0.6
			l-3.1-0.5l-3.1-0.8l-1.8-0.8l-2.7-0.2L274.7,162z"/>
	</g>
	<g class="st14">
		<path class="st3" d="M274.1,166.3l4.6,3.8l2.3,2.1c0,0,3.1,1.8,4.2,1.8c0.9,0.1,1.9,0.3,2.7,0.7l1.6,1.4l2.2,0.9l2.4,0.3l2.2,0.1
			l1.9,0.8l2.5,1.1l2.3,1l1.4,0.6l0.4,1l0.8-2.1l-6.4-4.6l-4.8-0.6l-4-1.7l-1.8-2.3l-3.2-0.3l-3-0.8l-3.3-1.7l-3.5-1.5H274.1z"/>
	</g>
	<g class="st14">
		<polygon class="st3" points="272.2,168.6 274.3,174.3 276,176.9 281.7,179.3 278.2,173.4 275.5,171.5 273.2,168.6 272.5,167.7 		
			"/>
	</g>
	<g class="st14">
		<polygon class="st3" points="280.9,174 284.7,177.7 285.3,180.9 289,182.5 293.2,184.3 296.1,183 299.5,182.6 301,182.7 
			298.2,181.4 294.6,181.6 291.9,181.2 289.1,178.7 285.9,177.3 285,175.8 283.5,174.6 		"/>
	</g>
	<g class="st14">
		<path class="st3" d="M277.3,158.3l5.4,1l4.4-1.1l3.1-0.8l3.4,2.3l3.9,1.9l4.9,1l3.1,0.4l2.4,2.1l1.1,4l0.1,1l-0.4,1.1l-2.7-4.3
			c-0.7-0.7-1.4-1.4-2.2-2c-0.3-0.1-1.7-1.1-2.3-1c-1.3,0-2.6-0.2-3.9-0.6c-1.4-0.5-4-1.2-4-1.2l-2.3-1.5l-1.4-0.6h-3.3l-1.9,0.8
			l-1.7,0.9l-2.9-1.2l-4.1-1.4l0.6-1.6L277.3,158.3z"/>
	</g>
	<g class="st14">
		<polygon class="st3" points="283.4,154 277.3,155.4 276.8,156.7 280.3,156.7 283.7,156.4 285.9,155 		"/>
	</g>
	<path class="st5" d="M299.6,187c0.4,0.1,0.7,0.2,1.1,0.2c1.1,0,2-0.7,2.5-1.8l4.4-11.7c0.5-1.2,1-2.5,1.5-3.9
		c0.2-0.7,0.5-1.4,0.8-2c0.2-0.7,0.1-1.5-0.2-2.1c-0.4-0.7-0.9-1.2-1.6-1.4l-2.2-0.9l-4.5-1.9l-20.1-8.6c-0.8-0.4-1.8-0.2-2.5,0.3
		c-0.3,0.3-0.6,0.6-0.8,1.1l-0.5,1.4l-2.1,5.4c-1.4,3.5-2.7,7-3.9,10.2c-0.2,0.4-0.3,0.8-0.3,1.2c-0.1,1.2,0.6,2.4,1.7,2.8l4.2,1.8
		l7.6,3.3l11,4.8l3,1.3l0.8,0.4C299.5,187,299.6,187,299.6,187c-0.1,0-0.1,0-0.2-0.1l-0.8-0.3l-3-1.3l-11.1-4.7l-7.6-3.3l-4.2-1.8
		c-0.8-0.3-1.4-1-1.7-1.9c-0.2-0.4-0.2-0.9-0.2-1.4s0.2-0.9,0.4-1.3l3.9-10.2c0.7-1.8,1.4-3.6,2.1-5.4c0.2-0.5,0.3-0.9,0.5-1.4
		s0.5-0.9,0.9-1.2c0.8-0.7,1.9-0.8,2.9-0.4l20,8.6l4.5,1.9l2.2,0.9c0.8,0.2,1.4,0.8,1.8,1.5s0.5,1.6,0.2,2.4
		c-0.2,0.7-0.5,1.4-0.8,2.1l-1.5,3.9c-1.9,4.9-3.5,8.9-4.6,11.6c-0.3,0.6-0.7,1.1-1.3,1.5c-0.4,0.2-0.9,0.4-1.3,0.4
		C300.3,187.4,299.9,187.2,299.6,187z"/>
</g>
<g>
	<g>
		<defs>
			<path id="SVGID_1_" d="M350.1,159.8l11.6-7.2l15.1,15.4c1.6,1.6,2.2,3.9,1.5,5.9l-5.1,16.6c-0.8,2.6-3.6,4.3-6.7,4.1l0,0
				c-3.6-0.2-6.2-2.9-6-5.9c0-0.1,0-0.2,0-0.3l2.2-15L350.1,159.8z"/>
		</defs>
		<clipPath id="SVGID_2_">
			<use xlink:href="#SVGID_1_"  style="overflow:visible;"/>
		</clipPath>
		<g class="st15">
			<path class="st6" d="M350.1,159.8l11.6-7.2l15.1,15.4c1.6,1.6,2.2,3.9,1.5,5.9l-5.1,16.6c-0.8,2.6-3.6,4.3-6.7,4.1l0,0
				c-3.6-0.2-6.2-2.9-6-5.9c0-0.1,0-0.2,0-0.3l2.2-15L350.1,159.8z"/>
			<path class="st4" d="M361.2,172.5c-0.1-0.2-0.2-0.4-0.3-0.6c-0.3-0.5-0.5-1.1-0.7-1.6c-1.2-3.7-1.2-7.5,0-11.2
				c0.2-0.6,0.4-1.1,0.7-1.6c0.1-0.2,0.2-0.4,0.3-0.6c-0.1,0.2-0.1,0.4-0.2,0.6c-0.2,0.4-0.4,0.9-0.6,1.6c-1.1,3.6-1.1,7.5,0,11.1
				c0.2,0.7,0.4,1.3,0.6,1.6C361.1,172,361.1,172.3,361.2,172.5z"/>
			<path class="st4" d="M361.4,165.3c-0.5,0.7-0.9,1.5-1.2,2.4c-0.2,0.8-0.2,1.7-0.1,2.5c-0.1-0.2-0.2-0.5-0.2-0.7
				c-0.2-1.2,0.1-2.5,0.9-3.6C361,165.6,361.2,165.4,361.4,165.3z"/>
			<path class="st4" d="M357.6,161.9c0.2,0.1,0.4,0.3,0.5,0.5c0.4,0.4,0.7,0.9,0.9,1.5c0.2,0.5,0.3,1.1,0.4,1.6c0,0.2,0,0.5,0,0.7
				c-0.1-0.8-0.3-1.5-0.5-2.3C358.5,163.3,358.1,162.6,357.6,161.9z"/>
			<path class="st4" d="M361.7,160.1c-1.2,0.9-1.9,2.1-2.2,3.4C359.5,162.1,360.3,160.8,361.7,160.1z"/>
			<path class="st4" d="M359.9,157.1c0.5,1,0.5,2.1-0.1,3.1c-0.1,0,0.2-0.7,0.2-1.6C360.1,157.8,359.9,157.1,359.9,157.1z"/>
			<path class="st4" d="M373.8,193.6c-0.1-0.2-0.2-0.4-0.3-0.6c-0.3-0.5-0.5-1.1-0.7-1.6c-1.2-3.7-1.2-7.5,0-11.2
				c0.2-0.5,0.4-1.1,0.7-1.6c0.1-0.2,0.2-0.4,0.3-0.6c-0.1,0.2-0.1,0.4-0.2,0.6c-0.2,0.4-0.4,0.9-0.6,1.6c-1.2,3.6-1.2,7.5,0,11.1
				c0.2,0.7,0.4,1.3,0.6,1.6C373.7,193.2,373.8,193.4,373.8,193.6z"/>
			<path class="st4" d="M374.1,186.4c-0.5,0.7-0.9,1.5-1.2,2.4c-0.2,0.8-0.2,1.7-0.1,2.5c-0.1-0.2-0.2-0.5-0.2-0.7
				c-0.1-0.6-0.1-1.2,0.1-1.8s0.4-1.2,0.8-1.7C373.7,186.7,373.8,186.5,374.1,186.4z"/>
			<path class="st4" d="M370.2,183.1c0,0,0.2,0.2,0.5,0.5c0.4,0.5,0.7,0.9,0.9,1.5c0.2,0.5,0.3,1.1,0.4,1.6c0,0.2,0,0.5,0,0.7
				c-0.1-0.8-0.3-1.5-0.5-2.3C371.1,184.4,370.7,183.7,370.2,183.1z"/>
			<path class="st4" d="M374.3,181.2c-0.5,0.5-1,1-1.4,1.6c-0.3,0.6-0.6,1.2-0.8,1.9c0-0.7,0.1-1.4,0.6-2
				C373.1,182.1,373.6,181.5,374.3,181.2z"/>
			<path class="st4" d="M372.5,178.2c0.5,1,0.5,2.1-0.1,3.1c-0.1,0,0.2-0.7,0.2-1.6C372.7,178.9,372.5,178.2,372.5,178.2z"/>
			<path class="st4" d="M367.9,185.2c-0.1-0.2-0.2-0.4-0.3-0.6c-0.3-0.5-0.5-1.1-0.7-1.6c-1.2-3.7-1.2-7.5,0-11.2
				c0.2-0.6,0.4-1.1,0.7-1.6c0.1-0.2,0.2-0.4,0.3-0.6c-0.1,0.2-0.1,0.4-0.2,0.6c-0.2,0.4-0.4,0.9-0.6,1.6c-1.1,3.6-1.1,7.5,0,11.1
				c0.2,0.7,0.4,1.3,0.6,1.6C367.8,184.7,367.9,185,367.9,185.2z"/>
			<path class="st4" d="M368.2,177.9c-0.5,0.7-0.9,1.5-1.2,2.3c-0.2,0.8-0.2,1.7-0.1,2.5c-0.1-0.2-0.2-0.5-0.2-0.7
				c-0.2-1.2,0.1-2.5,0.9-3.6C367.8,178.3,367.9,178.1,368.2,177.9z"/>
			<path class="st4" d="M364.3,174.6c0.2,0.1,0.4,0.3,0.5,0.5c0.4,0.4,0.7,0.9,0.9,1.5c0.2,0.5,0.3,1.1,0.4,1.6c0,0.2,0,0.5,0,0.7
				C366,177.4,365.3,175.9,364.3,174.6L364.3,174.6z"/>
			<path class="st4" d="M368.4,172.8c-0.5,0.5-1,1-1.4,1.5c-0.3,0.6-0.6,1.2-0.8,1.9C366.2,174.8,367.1,173.5,368.4,172.8
				L368.4,172.8z"/>
			<path class="st4" d="M355.4,165.9c-0.1-0.2-0.2-0.4-0.3-0.6c-0.3-0.5-0.5-1.1-0.7-1.6c-1.2-3.7-1.2-7.5,0-11.2
				c0.2-0.5,0.4-1.1,0.7-1.6c0.1-0.2,0.2-0.4,0.3-0.6c-0.1,0.2-0.1,0.4-0.2,0.6c-0.2,0.4-0.4,0.9-0.6,1.6c-1.2,3.6-1.2,7.5,0,11.1
				c0.2,0.7,0.4,1.3,0.6,1.6C355.3,165.5,355.3,165.7,355.4,165.9z"/>
			<path class="st4" d="M355.6,158.7c-0.5,0.7-0.9,1.5-1.2,2.3c-0.2,0.8-0.2,1.7-0.1,2.5c-0.1-0.2-0.2-0.5-0.2-0.7
				c-0.1-0.6-0.1-1.2,0.1-1.8s0.4-1.2,0.8-1.7C355.2,159,355.4,158.8,355.6,158.7z"/>
			<path class="st4" d="M351.8,155.4c0.2,0.1,0.4,0.3,0.5,0.5c0.4,0.5,0.7,0.9,0.9,1.5c0.2,0.5,0.3,1.1,0.4,1.6c0,0.2,0,0.5,0,0.7
				C353.4,158.1,352.8,156.6,351.8,155.4L351.8,155.4z"/>
			<path class="st4" d="M355.9,153.5c-0.5,0.5-1,1-1.4,1.5c-0.3,0.6-0.6,1.2-0.8,1.9c0-0.7,0.1-1.4,0.6-2
				C354.6,154.4,355.2,153.8,355.9,153.5z"/>
			<path class="st4" d="M365.8,155.9c0.2,0.2,0.3,0.3,0.4,0.5c0.4,0.5,0.7,1,1,1.5c2.1,3.3,3.1,7.1,2.8,10.9c0,0.6-0.1,1.1-0.2,1.7
				c0,0.2-0.1,0.4-0.2,0.6c0-0.2,0-0.4,0.1-0.6c0.1-0.4,0.1-1,0.2-1.7c0.2-3.8-0.7-7.5-2.8-10.9c-0.4-0.6-0.7-1.1-1-1.5
				C366,156.3,365.9,156.1,365.8,155.9z"/>
			<path class="st4" d="M367.4,163c0.3-0.8,0.5-1.6,0.6-2.5c0-0.9-0.2-1.7-0.6-2.5c0.2,0.2,0.3,0.4,0.4,0.7c0.2,0.6,0.4,1.2,0.4,1.8
				s-0.1,1.2-0.4,1.8C367.7,162.6,367.5,162.8,367.4,163z"/>
			<path class="st4" d="M372,165.5c-0.2-0.1-0.5-0.2-0.7-0.4c-0.5-0.4-0.9-0.8-1.2-1.3c-0.3-0.5-0.6-1-0.8-1.5
				c-0.1-0.2-0.1-0.4-0.1-0.7c0.3,0.7,0.6,1.4,1.1,2.1C370.8,164.4,371.3,165,372,165.5z"/>
			<path class="st4" d="M368.4,168.1c0.4-0.6,0.7-1.2,1-1.8c0.2-0.6,0.3-1.3,0.3-2c0.2,0.7,0.2,1.4-0.1,2
				C369.4,167,369,167.6,368.4,168.1z"/>
			<path class="st4" d="M370.9,170.7c-0.4-0.4-0.7-0.9-0.8-1.5c-0.2-0.5-0.2-1.1,0-1.6c0.1,0,0,0.7,0.2,1.6S371,170.7,370.9,170.7z"
				/>
			<path class="st4" d="M373.4,167.9c0.2,0.2,0.3,0.3,0.4,0.5c0.4,0.5,0.7,1,1,1.5c2.1,3.3,3.1,7.1,2.8,10.9c0,0.6-0.1,1.1-0.2,1.7
				c0,0.2-0.1,0.4-0.2,0.6c0-0.2,0-0.4,0.1-0.6c0.1-0.4,0.1-1,0.2-1.7c0.2-3.8-0.7-7.5-2.8-10.9c-0.4-0.6-0.7-1.1-1-1.5
				C373.6,168.3,373.5,168.1,373.4,167.9z"/>
			<path class="st4" d="M375,175c0.3-0.8,0.5-1.6,0.6-2.5c0-0.9-0.2-1.7-0.5-2.5c0.2,0.2,0.3,0.4,0.4,0.7c0.2,0.6,0.4,1.2,0.4,1.8
				s-0.1,1.2-0.4,1.8C375.3,174.6,375.1,174.8,375,175z"/>
			<path class="st4" d="M379.6,177.6c-0.2-0.1-0.5-0.2-0.7-0.4c-0.5-0.4-0.9-0.8-1.2-1.3c-0.3-0.5-0.6-1-0.8-1.5
				c-0.1-0.2-0.1-0.4-0.1-0.7c0.3,0.7,0.6,1.4,1.1,2.1C378.4,176.4,378.9,177,379.6,177.6z"/>
			<path class="st4" d="M376,180.1c0.4-0.6,0.8-1.2,1-1.8s0.3-1.3,0.3-2c0.2,0.7,0.2,1.4-0.1,2C377,179.1,376.6,179.7,376,180.1z"/>
			<path class="st4" d="M378.5,182.7c-0.4-0.4-0.7-0.9-0.8-1.5c-0.2-0.5-0.2-1.1,0-1.6c0.1,0,0,0.7,0.2,1.6
				C378.1,182.1,378.6,182.7,378.5,182.7z"/>
			<path class="st4" d="M356.1,177.1c0.2,0.1,0.4,0.2,0.6,0.4c0.5,0.4,1,0.7,1.5,1.1c3.2,2.6,5.4,6,6.5,9.7c0.2,0.6,0.3,1.1,0.4,1.7
				c0,0.2,0.1,0.4,0.1,0.6c-0.1-0.2-0.1-0.4-0.2-0.6c-0.1-0.4-0.2-1-0.4-1.7c-0.6-1.8-1.4-3.6-2.5-5.2c-1.1-1.6-2.4-3.1-4-4.5
				c-0.6-0.5-1.1-0.9-1.5-1.2C356.4,177.3,356.2,177.2,356.1,177.1z"/>
			<path class="st4" d="M360,183.4c0-0.9-0.1-1.7-0.3-2.5c-0.3-0.8-0.8-1.6-1.4-2.3c0.2,0.2,0.5,0.3,0.6,0.6c0.9,1,1.3,2.2,1.3,3.5
				C360.2,182.9,360.1,183.2,360,183.4z"/>
			<path class="st4" d="M365.3,184.6c-0.3,0-0.5-0.1-0.8-0.2c-1.2-0.5-2.2-1.2-2.9-2.1c-0.2-0.2-0.3-0.4-0.4-0.6
				c0.5,0.6,1.1,1.2,1.8,1.7C363.7,183.9,364.5,184.3,365.3,184.6z"/>
			<path class="st4" d="M362.8,188c0.2-0.6,0.3-1.3,0.3-2s-0.2-1.3-0.4-1.9C363.5,185.3,363.5,186.8,362.8,188L362.8,188z"/>
			<path class="st4" d="M366.1,189.8c-0.5-0.3-0.9-0.7-1.2-1.2c-0.3-0.5-0.5-1-0.5-1.5c0.1,0,0.2,0.7,0.7,1.4
				S366.1,189.8,366.1,189.8z"/>
			<path class="st4" d="M372.6,194.4c-0.1-3.7-3.6-6.6-7.9-6.5c-1.7,0-3.3,0.5-4.7,1.5l1.4,4.2l6.3,2.6L372.6,194.4z"/>
			<path class="st4" d="M380.9,178.5c-4.2-0.2-7.4-3.3-7.1-7c0.1-1.8,1.1-3.5,2.8-4.7l6.4,3.5L380.9,178.5z"/>
		</g>
	</g>
</g>
<g class="st12">
	<path d="M350.1,159.8l11.6-7.2l15.1,15.4c1.6,1.6,2.2,3.9,1.5,5.9l-5.1,16.6c-0.8,2.6-3.6,4.3-6.7,4.1l0,0c-3.6-0.2-6.2-2.9-6-5.9
		c0-0.1,0-0.2,0-0.3l2.2-15L350.1,159.8z"/>
</g>
<path class="st16" d="M356,154.5l11.6-7.3l15.1,15.4c1.6,1.6,2.2,3.9,1.5,5.9l-5.1,16.6c-0.8,2.6-3.6,4.3-6.7,4.1l0,0
	c-3.6-0.2-6.2-2.9-6-5.9c0-0.1,0-0.2,0-0.3l2.2-15L356,154.5z"/>
<path class="st6" d="M356,154.5l11.6-7.3l15.1,15.4c1.6,1.6,2.2,3.9,1.5,5.9l-5.1,16.6c-0.8,2.6-3.6,4.3-6.7,4.1l0,0
	c-3.6-0.2-6.2-2.9-6-5.9c0-0.1,0-0.2,0-0.3l2.2-15L356,154.5z"/>
<path class="st4" d="M367.2,167.2c-0.1-0.2-0.2-0.4-0.3-0.6c-0.3-0.5-0.5-1.1-0.7-1.6c-1.2-3.7-1.2-7.5,0-11.2
	c0.2-0.5,0.4-1.1,0.7-1.6c0.1-0.2,0.2-0.4,0.3-0.6c-0.1,0.2-0.1,0.4-0.2,0.6c-0.2,0.4-0.4,0.9-0.6,1.6c-1.1,3.6-1.1,7.5,0,11.1
	c0.2,0.7,0.4,1.3,0.6,1.6C367.1,166.7,367.1,167,367.2,167.2z"/>
<path class="st4" d="M367.4,159.9c-1.1,1.4-1.6,3.2-1.3,4.9c-0.1-0.2-0.2-0.5-0.2-0.7c-0.1-0.6-0.1-1.2,0.1-1.8s0.4-1.2,0.8-1.7
	C367,160.3,367.2,160.1,367.4,159.9z"/>
<path class="st4" d="M363.6,156.6c0,0,0.2,0.2,0.5,0.5c0.4,0.5,0.7,0.9,0.9,1.5c0.2,0.5,0.3,1.1,0.4,1.6c0,0.2,0,0.5,0,0.7
	c-0.1-0.8-0.3-1.5-0.5-2.3C364.5,158,364.1,157.3,363.6,156.6z"/>
<path class="st4" d="M367.7,154.8c-0.5,0.5-1,1-1.4,1.6c-0.3,0.6-0.6,1.2-0.8,1.9C365.5,156.8,366.3,155.5,367.7,154.8L367.7,154.8z
	"/>
<path class="st4" d="M365.9,151.8c0.3,0.5,0.4,1,0.4,1.6c0,0.5-0.1,1.1-0.4,1.5c-0.1,0,0.2-0.7,0.2-1.6
	C366,152.5,365.8,151.8,365.9,151.8z"/>
<path class="st4" d="M379.8,188.3c-0.1-0.2-0.2-0.4-0.3-0.6c-0.3-0.5-0.5-1.1-0.7-1.6c-1.2-3.7-1.2-7.5,0-11.2
	c0.2-0.6,0.4-1.1,0.7-1.6c0.1-0.2,0.2-0.4,0.3-0.6c-0.1,0.2-0.1,0.4-0.2,0.6c-0.2,0.4-0.4,0.9-0.6,1.6c-1.2,3.6-1.2,7.5,0,11.1
	c0.2,0.7,0.4,1.3,0.6,1.6C379.7,187.9,379.8,188.1,379.8,188.3z"/>
<path class="st4" d="M380.1,181.1c-0.5,0.7-0.9,1.5-1.2,2.3c-0.2,0.8-0.2,1.7-0.1,2.5c-0.1-0.2-0.2-0.5-0.2-0.7
	c-0.1-0.6-0.1-1.2,0.1-1.8s0.4-1.2,0.8-1.7C379.6,181.4,379.8,181.2,380.1,181.1z"/>
<path class="st4" d="M376.2,177.7c0.2,0.1,0.4,0.3,0.5,0.5c0.4,0.5,0.7,0.9,0.9,1.5c0.2,0.5,0.3,1.1,0.4,1.6c0,0.2,0,0.5,0,0.7
	c-0.1-0.8-0.3-1.5-0.5-2.3C377.1,179.1,376.7,178.4,376.2,177.7z"/>
<path class="st4" d="M380.3,175.9c-0.5,0.5-1,1-1.4,1.5c-0.3,0.6-0.6,1.2-0.8,1.9c0-0.7,0.1-1.4,0.6-1.9
	C379.1,176.7,379.6,176.2,380.3,175.9z"/>
<path class="st4" d="M378.5,172.9c0.3,0.5,0.4,1,0.4,1.6c0,0.5-0.1,1.1-0.4,1.6c-0.1,0,0.2-0.7,0.2-1.6S378.5,172.9,378.5,172.9z"/>
<path class="st4" d="M373.9,179.8c-0.1-0.2-0.2-0.4-0.3-0.6c-0.3-0.5-0.5-1.1-0.7-1.6c-1.2-3.7-1.2-7.5,0-11.2
	c0.2-0.6,0.4-1.1,0.7-1.6c0.1-0.2,0.2-0.4,0.3-0.6c-0.1,0.2-0.1,0.4-0.2,0.6c-0.2,0.4-0.4,0.9-0.6,1.6c-1.1,3.6-1.1,7.5,0,11.1
	c0.2,0.7,0.4,1.3,0.6,1.6C373.8,179.4,373.9,179.6,373.9,179.8z"/>
<path class="st4" d="M374.2,172.6c-1.1,1.4-1.6,3.2-1.3,4.9c-0.1-0.2-0.2-0.5-0.2-0.7c-0.2-1.2,0.1-2.5,0.9-3.6
	C373.7,173,373.9,172.8,374.2,172.6z"/>
<path class="st4" d="M370.3,169.3c0.2,0.1,0.4,0.3,0.5,0.5c0.4,0.5,0.7,0.9,0.9,1.5c0.2,0.5,0.3,1.1,0.4,1.6c0,0.2,0,0.5,0,0.7
	c-0.1-0.8-0.3-1.5-0.5-2.3C371.2,170.6,370.8,169.9,370.3,169.3z"/>
<path class="st4" d="M374.4,167.4c-0.5,0.5-1,1-1.4,1.5c-0.3,0.6-0.6,1.2-0.8,1.9c0-0.7,0.2-1.4,0.6-2
	C373.2,168.3,373.7,167.8,374.4,167.4z"/>
<path class="st4" d="M361.4,160.6c-0.1-0.2-0.2-0.4-0.3-0.6c-0.3-0.5-0.5-1.1-0.7-1.6c-1.2-3.7-1.2-7.5,0-11.2
	c0.2-0.6,0.4-1.1,0.7-1.6c0.1-0.2,0.2-0.4,0.3-0.6c-0.1,0.2-0.1,0.4-0.2,0.6c-0.2,0.4-0.4,0.9-0.6,1.6c-1.2,3.6-1.2,7.5,0,11.1
	c0.2,0.7,0.4,1.3,0.6,1.6C361.2,160.1,361.3,160.4,361.4,160.6z"/>
<path class="st4" d="M361.6,153.4c-1.1,1.4-1.6,3.2-1.3,4.9c-0.1-0.2-0.2-0.5-0.2-0.7c-0.1-0.6-0.1-1.2,0.1-1.8s0.4-1.2,0.8-1.7
	C361.2,153.7,361.4,153.5,361.6,153.4z"/>
<path class="st4" d="M357.7,150c0.2,0.1,0.4,0.3,0.5,0.5c0.4,0.4,0.7,0.9,0.9,1.5c0.2,0.5,0.3,1.1,0.4,1.6c0,0.2,0,0.5,0,0.7
	c-0.1-0.8-0.3-1.5-0.5-2.3C358.6,151.4,358.2,150.7,357.7,150z"/>
<path class="st4" d="M361.9,148.2c-0.5,0.5-1,1-1.4,1.5c-0.3,0.6-0.6,1.2-0.8,1.9c0-0.7,0.1-1.4,0.6-1.9
	C360.6,149,361.2,148.5,361.9,148.2z"/>
<path class="st4" d="M371.8,150.6c0.2,0.2,0.3,0.3,0.4,0.5c0.4,0.5,0.7,1,1,1.5c2.1,3.3,3.1,7.1,2.8,10.9c0,0.6-0.1,1.1-0.2,1.7
	c0,0.2-0.1,0.4-0.2,0.6c0-0.2,0-0.4,0.1-0.6c0.1-0.4,0.1-1,0.2-1.7c0.2-3.8-0.7-7.5-2.8-10.9c-0.4-0.6-0.7-1.1-1-1.5
	C372,150.9,371.9,150.8,371.8,150.6z"/>
<path class="st4" d="M373.4,157.7c0.3-0.8,0.5-1.6,0.6-2.5c0-0.9-0.2-1.7-0.6-2.5c0.2,0.2,0.3,0.4,0.4,0.7c0.2,0.6,0.4,1.2,0.4,1.8
	s-0.1,1.2-0.4,1.8C373.7,157.3,373.5,157.5,373.4,157.7z"/>
<path class="st4" d="M378,160.2c-0.2-0.1-0.5-0.2-0.7-0.4c-0.5-0.4-0.9-0.8-1.2-1.3c-0.3-0.5-0.6-1-0.8-1.5
	c-0.1-0.2-0.1-0.4-0.1-0.7c0.3,0.7,0.6,1.4,1.1,2.1C376.7,159.1,377.3,159.7,378,160.2z"/>
<path class="st4" d="M374.4,162.8c0.4-0.6,0.7-1.2,1-1.8c0.2-0.6,0.3-1.3,0.3-2c0.2,0.7,0.2,1.4-0.1,2
	C375.4,161.7,375,162.3,374.4,162.8z"/>
<path class="st4" d="M376.9,165.4c-0.7-0.9-1-2-0.7-3c0.1,0,0,0.7,0.2,1.6C376.6,164.7,376.9,165.3,376.9,165.4z"/>
<path class="st4" d="M379.4,162.6c0.2,0.2,0.3,0.3,0.4,0.5c0.4,0.5,0.7,1,1,1.5c2.1,3.3,3.1,7.1,2.8,10.9c0,0.6-0.1,1.1-0.2,1.7
	c0,0.2-0.1,0.4-0.2,0.6c0-0.2,0-0.4,0.1-0.6c0.1-0.4,0.1-1,0.2-1.7c0.2-3.8-0.7-7.5-2.8-10.9c-0.4-0.6-0.7-1.1-1-1.5
	C379.6,163,379.5,162.8,379.4,162.6z"/>
<path class="st4" d="M381,169.7c0.7-1.6,0.7-3.4,0-5c0.2,0.2,0.3,0.4,0.4,0.7c0.2,0.6,0.4,1.2,0.4,1.8s-0.1,1.2-0.4,1.8
	C381.3,169.3,381.1,169.5,381,169.7z"/>
<path class="st4" d="M385.6,172.2c-0.2-0.1-0.5-0.2-0.7-0.4c-1-0.7-1.7-1.7-2-2.8c-0.1-0.2-0.1-0.4-0.1-0.7c0.3,0.7,0.6,1.4,1.1,2.1
	C384.3,171.1,384.9,171.7,385.6,172.2z"/>
<path class="st4" d="M382,174.8c0.9-1.1,1.4-2.4,1.3-3.7c0.2,0.7,0.2,1.4-0.1,2C383,173.8,382.6,174.4,382,174.8z"/>
<path class="st4" d="M384.5,177.4c-0.7-0.9-1-2-0.7-3c0.1,0,0,0.7,0.2,1.6C384.2,176.8,384.5,177.4,384.5,177.4z"/>
<path class="st4" d="M362,171.7c0.2,0.1,0.4,0.2,0.6,0.4c0.5,0.3,1,0.7,1.5,1.1c3.2,2.6,5.4,6,6.5,9.7c0.2,0.6,0.3,1.1,0.4,1.7
	c0,0.2,0.1,0.4,0.1,0.6c-0.1-0.2-0.1-0.4-0.2-0.6c-0.1-0.4-0.2-1-0.4-1.7c-0.6-1.8-1.4-3.6-2.5-5.2c-1.1-1.6-2.4-3.1-4-4.5
	c-0.6-0.5-1.1-0.9-1.5-1.2C362.4,172,362.2,171.9,362,171.7z"/>
<path class="st4" d="M366,178.1c0.1-1.7-0.5-3.4-1.7-4.8c0.2,0.1,0.5,0.3,0.6,0.6c0.9,1,1.3,2.2,1.3,3.5
	C366.2,177.6,366.1,177.9,366,178.1z"/>
<path class="st4" d="M371.3,179.3c-0.3,0-0.5-0.1-0.8-0.2c-1.2-0.5-2.2-1.2-2.9-2.2c-0.2-0.2-0.3-0.4-0.4-0.6
	C368.2,177.7,369.6,178.7,371.3,179.3L371.3,179.3z"/>
<path class="st4" d="M368.8,182.7c0.2-0.6,0.3-1.3,0.3-1.9c0-0.7-0.2-1.3-0.4-1.9c0.4,0.6,0.7,1.2,0.6,1.9
	C369.4,181.4,369.2,182.1,368.8,182.7z"/>
<path class="st4" d="M372.1,184.5c-0.5-0.3-1-0.7-1.2-1.2c-0.3-0.5-0.5-1-0.5-1.5c0.1,0,0.2,0.7,0.7,1.4
	C371.3,183.7,371.7,184.1,372.1,184.5z"/>
<g class="st17">
	<path class="st3" d="M378.6,189.1c-0.1-3.7-3.6-6.6-7.9-6.5c-1.7,0-3.3,0.5-4.7,1.5l1.4,4.2l6.3,2.6L378.6,189.1z"/>
</g>
<path class="st3" d="M389,165.1l-2.1,8.1c-4.2-0.2-7.4-3.3-7.2-7c0.1-1.8,1.1-3.5,2.8-4.7L389,165.1"/>
<path class="st16" d="M447.6,143.4c0,0-5.5-0.1-6.7,1.5s-6.2,11.4-6.2,11.4l7.7,3.6l1.7-4.2l2.7,8.8c-3.1,2.2-7.5,22-6.6,30.4
	l29.1,0.1c0,0,0.2-23.2-7.7-30.8l1.8-9.2l1.8,4.5l8.2-3l-6.2-9.8c-1.1-1.7-3-2.7-5.2-2.7h-2c0,0-0.8,6.6-6.3,6.4
	C448.4,150.1,447.6,143.4,447.6,143.4z"/>
<path class="st6" d="M447.6,143.4c0,0-5.5-0.1-6.7,1.5s-6.2,11.4-6.2,11.4l7.7,3.6l1.7-4.2l2.7,8.8c-3.1,2.2-7.5,22-6.6,30.4
	l29.1,0.1c0,0,0.2-23.2-7.7-30.8l1.8-9.2l1.8,4.5l8.2-3l-6.2-9.8c-1.1-1.7-3-2.7-5.2-2.7h-2c0,0-0.8,6.6-6.3,6.4
	C448.4,150.1,447.6,143.4,447.6,143.4z"/>
<path class="st4" d="M449.9,158.4c0-0.4-0.1-0.9-0.2-1.3c-0.8-2.8-4.1-4.5-7.2-3.8c-0.2,0-0.4,0.1-0.6,0.2c-1.1,0.4-2.1,1-2.7,1.8
	c-1.5,1.8-1.5,4.3,0,6.2c0.3,0.4,0.8,0.8,1.2,1.1c0.5,0.3,1,0.6,1.5,0.7c1,0.3,2.1,0.4,3.1,0.2c0.9-0.1,1.8-0.5,2.5-1
	c1.1-0.7,1.9-1.7,2.2-2.9C449.8,159.3,449.9,158.8,449.9,158.4C449.9,158.4,449.9,158.5,449.9,158.4c0,0.1,0,0.2,0,0.3s0,0.3,0,0.4
	c0,0.2-0.1,0.4-0.1,0.6c-0.1,0.5-0.4,1-0.7,1.5c-0.9,1.3-2.4,2.3-4.1,2.5c-1.1,0.2-2.2,0.1-3.2-0.2c-0.6-0.2-1.1-0.4-1.6-0.7
	s-0.9-0.7-1.3-1.1c-1.6-1.9-1.6-4.5,0-6.4c0.4-0.4,0.8-0.8,1.3-1.1s1-0.6,1.6-0.7c2.8-0.9,5.8,0.1,7.3,2.3c0.3,0.4,0.5,0.9,0.7,1.4
	c0.1,0.2,0.1,0.4,0.1,0.6c0,0.1,0,0.3,0,0.4c0,0.1,0,0.2,0,0.3C449.9,158.4,449.9,158.4,449.9,158.4z"/>
<path class="st4" d="M449.9,189.8c0,0,0-0.1-0.1-0.4c-0.1-0.3-0.4-0.6-0.7-0.9c-0.8-0.5-1.9-0.4-2.5,0.3s-0.4,1.7,0.4,2.2
	c0.6,0.4,1.5,0.4,2.1,0c0.3-0.2,0.6-0.5,0.7-0.9C449.9,189.9,449.9,189.8,449.9,189.8s0,0,0,0.1s0,0.2,0,0.3
	c-0.1,0.4-0.3,0.7-0.7,0.9c-0.5,0.4-1.2,0.5-1.8,0.3c-1-0.3-1.5-1.3-1.2-2.2c0.2-0.5,0.6-0.9,1.2-1c0.6-0.2,1.3-0.1,1.8,0.3
	c0.3,0.2,0.6,0.6,0.7,0.9C449.9,189.5,449.9,189.6,449.9,189.8C449.9,189.7,449.9,189.8,449.9,189.8z"/>
<path class="st4" d="M446.7,148c0,0,0-0.1-0.1-0.4c-0.1-0.3-0.4-0.6-0.7-0.9c-0.8-0.5-1.9-0.4-2.5,0.3s-0.4,1.7,0.4,2.2
	c0.6,0.4,1.5,0.4,2.1,0c0.3-0.2,0.6-0.5,0.7-0.9C446.7,148.1,446.7,148,446.7,148v0.1c0,0.1,0,0.2,0,0.3c-0.1,0.4-0.3,0.7-0.7,0.9
	c-0.5,0.4-1.2,0.5-1.8,0.3c-1-0.3-1.5-1.3-1.2-2.2c0.2-0.5,0.6-0.9,1.2-1c0.6-0.2,1.3-0.1,1.8,0.3c0.3,0.2,0.6,0.6,0.7,0.9
	C446.7,147.7,446.7,147.8,446.7,148C446.7,147.9,446.7,147.9,446.7,148z"/>
<path class="st4" d="M452.7,182c0,0,0-0.1,0-0.2c0-0.1-0.1-0.3-0.1-0.4c-0.1-0.4-0.2-0.9-0.3-1.6l-1.1-5.8l0.1,0.1l-9.1,1.3l0.1-0.1
	l0,0l0,0l0,0v0.1v0.1v0.3c0,0.2,0.1,0.4,0.1,0.5c0.1,0.4,0.1,0.7,0.2,1.1c0.1,0.7,0.3,1.4,0.4,2.1c0.2,1.3,0.5,2.6,0.7,3.8l-0.1-0.1
	l6.6-0.9l1.9-0.2L452.7,182L452.7,182c-0.1,0-0.1,0-0.2,0l-0.5,0.1l-1.8,0.3l-6.6,1h-0.1v-0.1c-0.2-1.2-0.4-2.4-0.7-3.8
	c-0.1-0.7-0.2-1.4-0.4-2.1c-0.1-0.4-0.1-0.7-0.2-1.1l-0.1-0.5v-0.3v-0.1v-0.1v-0.1l0,0c-0.1,0.1,0.1-0.1,0.1-0.1l9.1-1.2h0.1v0.1
	c0.4,2.4,0.8,4.4,1,5.8c0.1,0.7,0.2,1.2,0.3,1.6c0,0.2,0,0.3,0.1,0.4C452.7,181.9,452.7,181.9,452.7,182z"/>
<path class="st4" d="M463.8,161c0-0.1,0.1-0.1,0.1-0.2c0.1-0.1,0.2-0.3,0.3-0.4l1.2-1.6c1-1.4,2.5-3.4,4.2-5.8v0.1l-9.1-5.2h0.1l0,0
	l0,0l0,0l0,0l-0.1,0.1l-0.1,0.1l-0.2,0.3l-0.4,0.5L459,150l-1.5,2.1l-2.8,3.8v-0.1l6.5,3.8l1.8,1.1l0.5,0.3L463.8,161l-0.1-0.1
	l-0.5-0.3l-1.8-1l-6.6-3.7h-0.1v-0.1c0.9-1.2,1.8-2.4,2.8-3.8l1.5-2.1l0.8-1.1l0.4-0.5l0.2-0.3l0.1-0.1v-0.1l0,0l0,0l0,0l0,0l0,0
	h0.2l9,5.2h0.1v0.1l-4.3,5.8l-1.2,1.6L463.8,161C463.9,160.9,463.8,161,463.8,161z"/>
<path class="st4" d="M457.7,185.4L457.7,185.4l-0.1,0.2l-0.4,0.6l-1.5,2.3c-1.3,2-3.1,4.8-5.2,8.1l-0.1-0.1h7.4h7.4l-0.1,0.1
	c-2.1-3.3-4-6.1-5.2-8.1l-1.5-2.3l-0.4-0.6C457.8,185.6,457.7,185.5,457.7,185.4L457.7,185.4c0,0.1,0.1,0.1,0.1,0.2l0.4,0.6l1.6,2.3
	c1.3,2,3.2,4.8,5.3,8.1l0.1,0.1H465h-7.4h-7.4H450l0.1-0.1c2.2-3.3,4-6.1,5.3-8.1l1.6-2.3l0.4-0.6
	C457.6,185.6,457.6,185.5,457.7,185.4z"/>
<path class="st4" d="M451.8,164.7c0,0,0,0.1,0.1,0.1c0,0.1,0.1,0.2,0.1,0.4l0.5,1.5c0.4,1.2,0.9,3,1.6,5h-0.2l2.9-2.6l2.9-2.6v0.1
	c-2.3-0.6-4.3-1-5.7-1.4l-1.6-0.4l-0.4-0.1C452,164.7,451.9,164.7,451.8,164.7h0.1l0.4,0.1l1.6,0.4c1.4,0.3,3.4,0.8,5.8,1.3h0.2
	l-0.1,0.1c-0.9,0.8-1.9,1.7-2.9,2.6l-2.9,2.6l-0.1,0.1v-0.2c-0.6-2.1-1.1-3.8-1.5-5.1c-0.2-0.6-0.3-1.1-0.4-1.5l-0.1-0.4
	C451.8,164.8,451.8,164.7,451.8,164.7z"/>
<path class="st5" d="M461.8,164.1c0,0.1-3.3,0.2-7.4,0.3s-7.4,0.1-7.4,0.1s3.3-0.2,7.4-0.3S461.8,164.1,461.8,164.1z"/>
<path class="st5" d="M441.7,149.7c0.5,1,1,2.1,1.4,3.2c0.5,1.1,0.8,2.2,1.2,3.3c-0.5-1-1-2.1-1.4-3.2
	C442.4,151.9,442,150.8,441.7,149.7z"/>
<path class="st5" d="M464.3,150.1c0,0.3,0,0.7-0.1,1c-0.1,0.6-0.2,1.5-0.4,2.5c-0.2,1-0.4,1.9-0.5,2.5c-0.1,0.3-0.2,0.7-0.3,1
	c0-0.3,0.1-0.7,0.1-1l0.5-2.5c0.2-0.9,0.3-1.8,0.4-2.5C464.1,150.8,464.2,150.5,464.3,150.1z"/>
<path class="st5" d="M448.6,168.7c-0.1-0.2-0.2-0.5-0.2-0.7c-0.1-1.1,0.2-2.3,0.9-3.3c0.1-0.2,0.3-0.4,0.5-0.5
	C448.9,165.6,448.5,167.2,448.6,168.7L448.6,168.7z"/>
<path class="st5" d="M450.8,166.7c-0.2-0.4-0.3-0.8-0.2-1.2c0-0.4,0.1-0.8,0.3-1.2c0,0.4,0,0.8-0.1,1.2
	C450.8,166.2,450.9,166.7,450.8,166.7z"/>
<path class="st5" d="M463.6,188.8c-0.1,0-0.2-0.1-0.2-0.1c-0.2-0.1-0.4-0.2-0.7-0.3c-0.8-0.4-1.6-0.9-2.3-1.5
	c-1-0.8-1.9-1.8-2.7-2.8c-0.9-1.3-1.6-2.7-2.2-4.1c-1.1-3.1-1.4-6-1.5-8.1c-0.1-1-0.1-1.9-0.1-2.5c0-0.3,0-0.5,0-0.7
	c0-0.1,0-0.2,0-0.2c0,0.1,0,0.2,0,0.2c0,0.2,0,0.4,0.1,0.7c0,0.6,0.1,1.5,0.2,2.5c0.2,2.1,0.5,5,1.6,8.1c0.5,1.4,1.2,2.8,2.1,4.1
	c0.7,1,1.6,2,2.6,2.8c0.7,0.6,1.4,1.1,2.2,1.5C463.3,188.6,463.6,188.8,463.6,188.8z"/>
<g class="st18">
	<path d="M454.2,171c0.6,3.8,2.8,7.2,6.2,9.5c1.2,0.8,2.7,1.6,3.2,2.9c0.4,1,0.1,2.2-0.4,3.2c-0.2,0.4-0.5,0.8-1,1
		c-0.5,0.1-1-0.1-1.4-0.4c-2.7-1.8-4.4-4.5-5.4-7.4s-1.2-5.9-1.5-8.8"/>
</g>
<g>
	<path class="st19" d="M360,255.7l2.9,16.4h19.2l3.7-16.4c0,0-3.3-3.3-3.2-11.2l-2.3-0.8c0,0,0.7,6.7-7.6,6.7s-8.6-6.1-8.6-6.1
		l-2.3,0.9C361.9,245.3,363.4,252,360,255.7z"/>
	<path class="st20" d="M378.5,256.8c-1.5-0.1-2.9-0.1-4.4,0l-1.1-2.5l-0.9,2.6c-2.2,0.1-4.2,0.2-4.2,0.2l3.4,2.2
		c-0.6,1.7-1.2,3.3-1.4,3.8c0,0,1.7-1.2,3.6-2.5l3.3,2.1l-1.5-3.3C376.4,258.6,377.5,257.7,378.5,256.8z"/>
</g>
<g>
	<path class="st21" d="M283.5,238.2h19.3l0.5,4l14.6,28c0,0-1.3,7.1-4.8,4.6c-3.5-2.5-5.3,6.3-10.1,4.1s-7.2,2.9-12.5,1.5
		c-5.4-1.4-7-1-9.8,0.3c-2.8,1.3-5.1-5.2-7.3-4.8s-4.4-3.4-4.4-3.4l13.5-28.5L283.5,238.2z"/>
	<line class="st22" x1="285" y1="242.3" x2="300.9" y2="242.3"/>
	<path class="st5" d="M293.6,240.2c0,0.4-0.3,0.6-0.6,0.6c-0.4,0-0.7-0.3-0.7-0.6s0.3-0.7,0.7-0.7
		C293.3,239.5,293.6,239.8,293.6,240.2L293.6,240.2z"/>
	<path class="st22" d="M276,272.2c0,0,4.8-12.3,5.6-15.1"/>
	<path class="st23" d="M291.1,269c0.1-4.8,0.1-10,0.1-10L291.1,269L291.1,269z"/>
	<path class="st23" d="M291,272l-0.1,4.9C291,276.5,291,274.5,291,272L291,272z"/>
	<path class="st23" d="M304.5,274.6c0-0.3-4.5-15.8-4.6-17.6"/>
	<path class="st23" d="M307.6,257l-1.6-3.9"/>
	<path class="st23" d="M313.3,270.6c-1.4-3.4-2.9-6.9-4.3-10.3"/>
	<line class="st22" x1="282.6" y1="254.3" x2="283.5" y2="252.3"/>
</g>
<g>
	<path class="st23" d="M435.3,266.9v1.9h11.5c0,0,3.5-4.1,5.4-3.6s1.7,3.6,1.7,3.6h2.9l1-1.9l-0.8-10.6L435.3,266.9z"/>
	<path class="st19" d="M435.3,266.9h10.8c0,0,3.4-3.1,6-4s3.2,4,3.2,4h2.5c0,0,2-5.4,2-6s-1.9-9.9-1.9-15.9c0,0-6.6-0.1-7.4,1
		c0,0-1.4-2-2.3-1.8c0.5,2.4,0.7,4.9,0.5,7.4c-0.3,3.2-4.7,8.4-8.9,9.9C437.1,262.4,436,263.4,435.3,266.9z"/>
	<path class="st22" d="M450.5,245.9c0,0,0.2,6.4,0,7.6c-0.2,1.3-5.9,7.6-6.5,7.9"/>
	<line class="st22" x1="448.8" y1="248.3" x2="451.6" y2="248.3"/>
	<line class="st22" x1="448.8" y1="251.5" x2="451.6" y2="251.1"/>
	<line class="st22" x1="448" y1="253.6" x2="451.6" y2="254.1"/>
	<line class="st22" x1="446.8" y1="255.5" x2="450.2" y2="256.3"/>
	<line class="st22" x1="445.3" y1="257.4" x2="448" y2="258.9"/>
	<path class="st23" d="M439.8,261.4c2,1.1,3.3,3.2,3.3,5.5h-7.9C435.7,264.4,437.4,262.3,439.8,261.4z"/>
	<path class="st23" d="M456.2,258.7c0,0.8-0.6,1.4-1.4,1.4s-1.4-0.6-1.4-1.4s0.6-1.4,1.4-1.4h0C455.6,257.4,456.2,258,456.2,258.7z"
		/>
</g>
<g>
	<path class="st23" d="M446.8,270.5v1.9h11.5c0,0,3.5-4.1,5.4-3.6s1.7,3.6,1.7,3.6h2.9l1-1.9l-0.8-10.6L446.8,270.5z"/>
	<path class="st19" d="M446.8,270.5h10.8c0,0,3.4-3.1,6-4s3.2,4,3.2,4h2.5c0,0,2-5.4,2-6s-1.9-9.9-1.9-15.9c0,0-6.6-0.1-7.4,1
		c0,0-1.4-2-2.3-1.8c0.5,2.4,0.7,4.9,0.5,7.4c-0.3,3.2-4.7,8.4-8.9,9.9C448.5,266,447.4,267.1,446.8,270.5z"/>
	<path class="st22" d="M462,249.5c0,0,0.2,6.4,0,7.6c-0.2,1.3-5.9,7.6-6.5,7.9"/>
	<line class="st22" x1="460.3" y1="252" x2="463" y2="252"/>
	<line class="st22" x1="460.2" y1="255.1" x2="463" y2="254.7"/>
	<line class="st22" x1="459.5" y1="257.3" x2="463" y2="257.7"/>
	<line class="st22" x1="458.3" y1="259.1" x2="461.6" y2="259.9"/>
	<line class="st22" x1="456.7" y1="261" x2="459.5" y2="262.5"/>
	<path class="st23" d="M451.3,265c2,1.1,3.3,3.2,3.3,5.5h-7.9C447.2,268,448.9,265.9,451.3,265z"/>
	<path class="st23" d="M467.7,262.3c0,0.8-0.6,1.4-1.4,1.4s-1.4-0.6-1.4-1.4s0.6-1.4,1.4-1.4l0,0C467.1,261,467.7,261.6,467.7,262.3
		z"/>
</g>
<g>
	<path class="st22" d="M294.9,340.8c0,0,1.8-9.2,5.9-5.8c7.1,5.8,1.4,22.7,1.4,22.7"/>
	<path class="st22" d="M285.5,340.8c0,0-1.6-6.3-5.5-5.9s-7.4,13.1-2.6,24.6"/>
	<path class="st22" d="M286.5,337.9c0.4-1.6,1.8-2.7,3.5-2.8c1.6,0,2.9,1.2,3.1,2.8"/>
	<path class="st19" d="M281.5,337.9l16.7-0.3v3.8c0,0,7.4,16.9,5.4,20.6s-26.1,4.7-27.1-0.7s5.5-19.2,5.5-19.2L281.5,337.9z"/>
	<path class="st22" d="M282,342.3c0,0-0.4,6.9,2,8.2s11.7,1.4,12.9-0.6s1.4-8.4,1.4-8.4"/>
	<path class="st22" d="M281.9,353.3c0,0,5.3,1.4,8,1c0,0-0.6,7.9-1.9,7.9s-7.5,0.3-7.9-1.2s0.7-6.4,0.7-6.4"/>
	<path class="st22" d="M299.6,353.3c-2.4,0.7-4.9,1.1-7.4,1.1c0,0,0,5.8,1,7s6.6,0.6,7.5-0.8s-1-5.8-1-5.8"/>
	<path class="st22" d="M291.7,348.5c0,0.7-0.6,1.3-1.3,1.3c-0.7,0-1.3-0.6-1.3-1.3c0-0.7,0.6-1.3,1.3-1.3
		C291.1,347.2,291.7,347.7,291.7,348.5C291.7,348.5,291.7,348.5,291.7,348.5z"/>
</g>
<g>
	<path class="st6" d="M385,331.5l-2.2,29l-35.6-0.2c0.4-3.4,20.8-10.2,20.8-10.2l1-19.5L385,331.5z"/>
	<path class="st5" d="M377.5,348.5c0.7,0.2,1.1,0.9,0.9,1.7c-0.2,0.7-0.9,1.2-1.7,1.1c-0.8-0.2-1.2-1-1-1.8c0.3-0.8,1.2-1.1,1.9-0.9
		"/>
	<path class="st5" d="M382.8,360.5l0.2-3l-34.3,0.9c0,0-1.6,0.7-1.5,1.8L382.8,360.5z"/>
	<path class="st5" d="M367.4,350.4c0,0.2,0.8,0.3,1.7,0.9c0.9,0.6,1.2,1.3,1.4,1.2s0-1-1.1-1.8C368.4,350,367.3,350.3,367.4,350.4z"
		/>
	<path class="st5" d="M362.6,352.1c0,0.2,0.7,0.5,1.2,1.2c0.5,0.7,0.7,1.5,0.8,1.6c0.2,0,0.4-1-0.4-1.9
		C363.6,352,362.5,351.9,362.6,352.1z"/>
	<path class="st5" d="M360.2,356.4c0.2,0,0.5-0.8,0-1.8c-0.5-1-1.2-1.4-1.2-1.2c0,0.2,0.4,0.7,0.7,1.5S360.1,356.4,360.2,356.4z"/>
	<path class="st5" d="M367.9,345.6c0.1,0.2,0.9-0.1,1.8,0c0.9,0,1.7,0.4,1.8,0.2s-0.6-0.8-1.8-0.8S367.8,345.5,367.9,345.6z"/>
</g>
<g>
	<path class="st6" d="M396,337.3l-2.2,29l-35.6-0.2c0.4-3.4,20.8-10.2,20.8-10.2l1-19.5L396,337.3z"/>
	<path class="st5" d="M388.5,354.4c0.7,0.2,1.1,0.9,0.9,1.7c-0.2,0.7-0.9,1.2-1.7,1.1c-0.8-0.2-1.2-1-1-1.8c0.3-0.8,1.2-1.1,1.9-0.9
		"/>
	<path class="st5" d="M393.8,366.3l0.2-3l-34.3,0.9c0,0-1.6,0.7-1.5,1.8L393.8,366.3z"/>
	<path class="st5" d="M378.3,356.3c0,0.2,0.8,0.3,1.7,0.9c0.9,0.6,1.2,1.3,1.4,1.2s0-1-1.1-1.8C379.3,355.9,378.3,356.1,378.3,356.3
		z"/>
	<path class="st5" d="M373.6,357.9c0,0.2,0.7,0.5,1.2,1.2c0.5,0.7,0.7,1.5,0.8,1.6c0.2,0,0.4-1-0.4-1.9
		C374.6,357.9,373.5,357.8,373.6,357.9z"/>
	<path class="st5" d="M371.2,362.3c0.2,0,0.5-0.8,0-1.8s-1.2-1.4-1.2-1.2c0,0.2,0.4,0.7,0.7,1.5S371.1,362.2,371.2,362.3z"/>
	<path class="st5" d="M378.9,351.5c0.1,0.2,0.9-0.1,1.8,0c0.9,0,1.7,0.4,1.8,0.2c0.1-0.1-0.6-0.8-1.8-0.8
		C379.5,350.8,378.8,351.3,378.9,351.5z"/>
</g>
<g>
	<g>
		<g>
			<path class="st24" d="M463,342.3c3.8,3.7,7.3,12.3,8.5,17.4c1.1,5.1,1.8,12.6,1.8,12.6c-0.6,0.3-1.7,1-3.2,1.7
				c-1.5,0.7-2.3-0.3-2.3-0.3c-2,1.1-3,0.6-3,0.6c-0.2,0.7-0.6,1.3-1.3,1.8c-1,0.6-2.5,0.2-4.4,0.5c-1.6,0.3-3.2,0.6-4.8,0.8
				c-0.4,0-0.8-0.2-1.1-0.5c-0.1-0.1-0.1-0.2-0.1-0.3c-0.5,0.3-1.1,0.5-1.9,0.6c-1.4,0.1-1.8-0.6-1.8-0.6s-2.5,0.2-3.4-0.1
				c-0.9-0.3-0.6-1.4-0.6-1.4c-2,0.4-2.1-0.6-2.1-0.6s-1.4,0.2-2.6,0.4c-0.7,0.1-1.6-0.3-2.2-0.9c0,0,1.2-7.6,2.5-13
				c1.3-5.4,5.2-14.3,9.1-18.3L463,342.3"/>
		</g>
		<g class="st25">
			<path d="M464.8,374.4c0,0,1,0.5,3-0.6c0,0,0.7,1,2.3,0.3c1.6-0.7,2.6-1.4,3.2-1.7c0,0-0.1-1-0.3-2.6c-1,0.5-2.6,1.3-3.6,1.7
				c-1.5,0.6-1.4-0.5-1.4-0.5c-2.2,1.2-3.2,0.4-3.2,0.4c-0.9,0.8-2.4,1.2-4.2,1.1c-1.9-0.1-4.8,1.1-5.9,0.9
				c-1.1-0.1-1.5-1.1-1.5-1.1c-0.6,0.3-1.3,0.5-2.1,0.6c-0.5,0.1-1.1-0.2-1.4-0.6c-0.1-0.1-0.1-0.1-0.1-0.2
				c-0.8,0.3-1.7,0.4-2.7,0.4c-0.5-0.1-1-0.4-1.1-0.8c0,0,0-0.1,0-0.1c-1.6,0.3-2-0.6-2-0.6s-2.4,0.6-4.5-0.3
				c-0.4,2-0.6,3.4-0.6,3.4c0.5,0.6,1.5,1,2.2,0.9c1.2-0.2,2.6-0.4,2.6-0.4s0.1,1,2.1,0.6c0,0-0.3,1.1,0.6,1.4
				c0.9,0.3,3.4,0.1,3.4,0.1s0.4,0.8,1.8,0.6c0.8,0,1.4-0.2,1.9-0.6c0,0.3,0.4,0.6,0.8,0.7c0.1,0,0.3,0.1,0.4,0
				c1.7-0.2,3.3-0.5,4.8-0.8c1.9-0.3,3.3,0.2,4.4-0.5C464.3,375.7,464.7,375.1,464.8,374.4z"/>
		</g>
		<g class="st26">
			<path d="M448.7,350.8c0,0-3.4,5.4-6.4,23.8l1-0.2C443.4,372.8,445.5,357.6,448.7,350.8z"/>
		</g>
		<g class="st26">
			<path d="M444.4,375.2c0.4,0,0.7,0,1-0.1c0-1.4,0.7-8.1,2.2-14.8C447.6,360.3,446.3,363,444.4,375.2z"/>
		</g>
		<g class="st26">
			<path d="M452.4,351.2c-3.2,10.9-4.2,24.4-4,25.4c0.6,0,1-0.1,1-0.1C449.5,373.7,449.5,366.5,452.4,351.2z"/>
		</g>
		<g class="st26">
			<path d="M453.3,365.6c0.1-2.8,0.6-7.1,0.6-7.1s-1.1,5-1.5,11c-0.2,3.6-0.1,6.1,0,7.5c0.3-0.1,0.5-0.2,0.7-0.3
				C453,374.9,453.3,368.4,453.3,365.6z"/>
		</g>
		<g class="st26">
			<path d="M458.8,351c1,3.7,1.4,7.2,1.4,10.6c-0.1,3.1-0.3,12-0.1,13.1c0,0,0.5-6.4,0.6-9.5C461.2,360.8,460.6,356,458.8,351z"/>
		</g>
		<g class="st26">
			<path d="M465.7,374.5c-0.1-11-2.4-18.4-3.4-20.3c1.3,3.7,2.5,11.9,2.6,20.2C465.1,374.5,465.4,374.6,465.7,374.5z"/>
		</g>
		<g class="st26">
			<path d="M468.6,374.2c0.2-3.4,0.1-6.9-0.3-10.5c-0.3-2.1-1-4.4-2-6.6c0.7,2.3,1.2,4.6,1.5,6.8c0.4,3.3,0.2,8.4,0.1,9.9
				C468,374,468.3,374.2,468.6,374.2z"/>
		</g>
		<g class="st25">
			<path d="M459.8,342.8c1.3,1.7,4.1,8.8,4.5,11.8c0,0-0.7-6.4-3.8-11.9L459.8,342.8z"/>
		</g>
		<g class="st25">
			<path d="M456.8,342.9c-0.9,3.4-1.4,7-1.5,10.7c-0.7-4.6,0.7-10.3,0.8-10.7"/>
		</g>
		<g class="st25">
			<path d="M452.8,342.9c-2,2.4-3.7,5.1-5,7.9c0.6-2.7,4.1-7.5,4.4-7.9L452.8,342.9z"/>
		</g>
		<g>
			<path class="st27" d="M451.1,324.3c4.1,1.2,8.3,1.3,12.7,0l-0.1,3.7c-0.1,2.8-3,5.1-6.5,5.2l0,0c-3.5,0.1-6.2-2.1-6.2-5
				L451.1,324.3z"/>
		</g>
		<g class="st28">
			<path d="M451.1,324.3c4.1,1.2,8.3,1.3,12.7,0l-0.1,3.7c-0.1,2.8-3,5.1-6.5,5.2l0,0c-3.5,0.1-6.2-2.1-6.2-5L451.1,324.3z"/>
		</g>
		<g>
			<path class="st24" d="M457.4,331.5c0.9-1.6,4.4-6.1,6.4-7.2c0,0,3.4,1,4.3,1.9c1,0.9,2.4,2.4,3.4,6.1l-5.5,3.1
				c-0.5,1.9-1.5,3.5-3,4.8l-5.9,1.9L457.4,331.5z"/>
		</g>
		<g>
			<path class="st8" d="M473.1,335.9c-2.1,1.5-4.6,2.7-7.4,3.7c-1.5,0.3-1.6-0.5-1.6-0.5l0,0c0.9-1.1,1.5-2.4,1.9-3.8
				c0.6-0.3,2.7-2.4,3.8-2.9c0.5-0.3,1-0.5,1.6-0.7c0.2-0.1,0.4-0.1,0.7,0c0.7,0.1,0.8,0.8,1,1.6C473.3,334.1,474.2,335,473.1,335.9
				z"/>
		</g>
		<g class="st29">
			<path d="M466.2,325.1c-0.8-0.3-1.6-0.6-2.4-0.9c-2.1,1.2-5.5,5.6-6.4,7.2l-0.1,4.9C459.1,331.6,464.5,326.4,466.2,325.1z"/>
		</g>
		<g>
			<path class="st24" d="M459.1,342c0.2-2.7,0.1-8.2-2.2-11.2c-1.7-2.2-3.7-4.3-5.8-6.5c-1.8,0.5-3.5,1.2-4.9,2
				c-1.8,1.2-3,3.7-4.2,6.8c0,0,5.5,2.1,6.2,2.9c0.1,0.9,0.3,1.8,0.7,2.7c0.3,0.6,0.8,1.2,1.3,1.8L459.1,342z"/>
		</g>
		<g>
			<path class="st8" d="M449.1,339.1c-0.1,0.3-0.5,0.6-0.9,0.7c-0.8,0.2-1.2-0.3-2.8-0.7c-1.5-0.4-4.6-1.6-5.1-2.1
				c-0.5-0.5,0-1.5,0.2-2.2c0.2-0.7-0.3-1.4,0.6-1.9c0.3-0.2,0.6-0.2,1-0.2c0.8,0,1.8,0.4,2.5,1c0.7,0.5,1.7,1.1,2.6,1.7
				c0.4,0.2,0.7,0.5,0.9,0.7c0.1,0.9,0.3,1.8,0.7,2.7C448.9,338.8,449,338.9,449.1,339.1z"/>
		</g>
		<g class="st30">
			<path d="M447.5,339.4c0.3,0.1,0.8,0,0.4-0.2c-0.7-0.2-1.4-0.5-2.1-0.8c-1.4-0.7-3.4-2.2-4.3-2.3c-0.9-0.1-1.2,0.5-0.3,1
				c1.1,0.6,2.3,1.1,3.5,1.5C445.5,338.8,447.2,339.3,447.5,339.4z"/>
		</g>
		<g class="st30">
			<path d="M465.7,339.1c-0.3,0.1-0.8,0.1-0.4-0.1c0.8-0.3,1.5-0.7,2.1-1.1c1.3-0.9,3.4-2.6,4.3-2.8c0.9-0.2,1.2,0.3,0.3,1
				c-1.1,0.7-2.2,1.3-3.5,1.9C467.7,338.3,466,338.9,465.7,339.1z"/>
		</g>
		<g class="st25">
			<path d="M451.1,324.3c0,0-1.2,0.3-2.6,0.9c2.6,2.7,4.7,5.4,6.5,8.1c1.4,2.2,1.8,6.8,1.9,8.8l2.2-0.1c0.2-2.7,0.1-8.2-2.2-11.2
				C455.1,328.6,453.2,326.4,451.1,324.3z"/>
		</g>
		<g class="st25">
			<path d="M448.2,336c-0.2-0.9-0.1-3-0.3-3.8c-0.2-0.7-1.6-1.2-1.2-0.4c0.5,0.9,0.9,1.8,1,2.6C447.7,335,447.9,335.5,448.2,336z"/>
		</g>
		<g class="st25">
			<path d="M466,335.4c0.2-0.9,0.2-3,0.5-3.8c0.3-0.7,1.7-1.2,1.2-0.4c-0.5,0.8-0.9,1.7-1.2,2.6C466.5,334.4,466.3,334.9,466,335.4z
				"/>
		</g>
		<g>
			<path class="st31" d="M450.2,340.6l0,2.2c2.4,0.2,4.7,0.3,6.9,0.2c2.1,0,4.1-0.2,6-0.6l0.1-2.1
				C459.2,340.9,454.9,341.1,450.2,340.6z"/>
		</g>
		<g>
			<path class="st31" d="M457.7,334.2c0,0.3-0.2,0.4-0.6,0.5c-0.3,0-0.5-0.2-0.5-0.4c0-0.3,0.2-0.4,0.6-0.5
				C457.4,333.8,457.7,334,457.7,334.2z"/>
		</g>
		<g>
			<path class="st31" d="M458.3,336.8c0,0.3-0.2,0.4-0.6,0.5c-0.3,0-0.5-0.2-0.5-0.4c0-0.3,0.2-0.4,0.6-0.5
				C458,336.3,458.3,336.6,458.3,336.8z"/>
		</g>
		<g>
			<path class="st31" d="M458.5,339.2c0,0.3-0.2,0.4-0.6,0.5c-0.3,0-0.5-0.2-0.5-0.4c0-0.3,0.2-0.4,0.6-0.5
				C458.3,338.7,458.5,339,458.5,339.2z"/>
		</g>
	</g>
</g>
</svg>
