<svg xmlns="http://www.w3.org/2000/svg" viewBox="0 0 500 500">
    <g id="freepik--background-complete--inject-19">
        <rect x="53.73" y="177.75" width="26.48" height="11.19" style="fill:#ebebeb"></rect>
        <rect x="38.96" y="191.86" width="26.48" height="11.19" style="fill:#ebebeb"></rect>
        <rect x="68.5" y="191.86" width="26.48" height="11.19" style="fill:#ebebeb"></rect>
        <rect x="419.79" y="33.43" width="26.48" height="11.19" style="fill:#ebebeb"></rect>
        <rect x="434.56" y="47.54" width="26.48" height="11.19" style="fill:#ebebeb"></rect>
        <rect x="38.96" y="33.44" width="26.48" height="11.19" style="fill:#ebebeb"></rect>
        <rect x="346.09" y="311.47" width="26.48" height="11.19" transform="translate(718.67 634.13) rotate(180)" style="fill:#ebebeb"></rect>
        <rect x="360.86" y="297.36" width="26.48" height="11.19" transform="translate(748.21 605.91) rotate(180)" style="fill:#ebebeb"></rect>
        <polygon points="45.05 380.08 173.16 380.08 177.28 298.79 40.93 298.79 45.05 380.08" style="fill:#ebebeb"></polygon>
        <path d="M163.77,336H51l-1.56-28.22H165.58ZM51.89,335H162.83l1.68-26.22H50.45Z" style="fill:#dbdbdb"></path>
        <path d="M162.24,368.47h-108L52.92,343H163.83Zm-107.1-1H161.3L162.77,344H54Z" style="fill:#dbdbdb"></path>
        <path d="M120.33,325H96.42l-.88-6.8h25.67Zm-23-1h22.16l.62-4.8H96.67Z" style="fill:#dbdbdb"></path>
        <path d="M120.33,359.14H96.42l-.88-6.81h25.67Zm-23-1h22.16l.62-4.81H96.67Z" style="fill:#dbdbdb"></path>
        <polygon points="62.82 380.08 61.57 388.94 59.07 406.73 54.18 406.73 54.18 380.08 62.82 380.08" style="fill:#ebebeb"></polygon>
        <polygon points="62.82 380.08 61.57 388.94 54.18 388.94 54.18 380.08 62.82 380.08" style="fill:#dbdbdb"></polygon>
        <polygon points="155.39 380.08 156.64 388.94 159.14 406.73 164.03 406.73 164.03 380.08 155.39 380.08" style="fill:#ebebeb"></polygon>
        <polygon points="155.39 380.08 156.64 388.94 164.03 388.94 164.03 380.08 155.39 380.08" style="fill:#dbdbdb"></polygon>
        <rect x="419.22" y="165.85" width="33.23" height="33.23" transform="translate(618.3 -253.37) rotate(90)" style="fill:#dbdbdb"></rect>
        <rect x="424.37" y="171" width="22.93" height="22.93" transform="translate(618.3 -253.37) rotate(90)" style="fill:#fff"></rect>
        <polygon points="424.37 171 447.3 171 447.3 193.93 424.37 171" style="fill:#ebebeb"></polygon>
        <rect x="378.35" y="165.85" width="33.23" height="33.23" transform="translate(577.43 -212.5) rotate(90)" style="fill:#dbdbdb"></rect>
        <rect x="383.5" y="171" width="22.93" height="22.93" transform="translate(577.43 -212.5) rotate(90)" style="fill:#fff"></rect>
        <polygon points="390.24 171 406.43 171 406.43 187.2 390.24 171" style="fill:#ebebeb"></polygon>
        <rect x="393.82" y="191.57" width="43.43" height="74.37" transform="translate(644.29 -186.78) rotate(90)" style="fill:#dbdbdb"></rect>
        <rect x="399.19" y="197" width="32.69" height="63.52" transform="translate(644.29 -186.78) rotate(90)" style="fill:#fff"></rect>
        <polygon points="405.66 212.41 447.3 212.41 447.3 233.84 405.66 212.41" style="fill:#ebebeb"></polygon>
        <rect x="378.35" y="83.72" width="74.37" height="74.37" transform="translate(536.45 -294.63) rotate(90)" style="fill:#dbdbdb"></rect>
        <rect x="383.78" y="89.15" width="63.52" height="63.51" style="fill:#fff"></rect>
        <path d="M447.3,134.88c-9.66-9.6-37-36.82-45.81-45.73H447.3Z" style="fill:#ebebeb"></path>
    </g>
    <g id="freepik--Shadow--inject-19">
        <path d="M448.31,449c0,11.28-88.78,20.42-198.31,20.42S51.69,460.31,51.69,449,140.47,428.61,250,428.61,448.31,437.75,448.31,449Z" style="fill:#ebebeb"></path>
    </g>
    <g id="freepik--Floor--inject-19">
        <polygon points="46.98 406.44 97.74 406.2 148.49 406.11 250 405.95 351.51 406.11 402.26 406.2 453.01 406.44 402.26 406.69 351.51 406.78 250 406.94 148.49 406.78 97.74 406.69 46.98 406.44" style="fill:#263238"></polygon>
    </g>
    <g id="freepik--Device--inject-19">
        <path d="M334.52,52.69H165.46a17.26,17.26,0,0,0-17.1,17.42v348a17.27,17.27,0,0,0,17.1,17.42H334.52a17.29,17.29,0,0,0,17.12-17.42v-348A17.28,17.28,0,0,0,334.52,52.69Zm6.42,354.67c0,9.16-6.86,16.57-15.32,16.57H174.38c-8.48,0-15.34-7.41-15.34-16.57V83.3c0-18.66,6.86-19.57,15.34-19.57h30.3c1.76,0,3.2,2,3.2,4.48v1.07c0,5.81,3.18,5.83,7.08,5.83H285c3.94,0,7.1,0,7.1-5.83V68.21c0-2.48,1.42-4.48,3.21-4.48h30.29c8.46,0,15.32,2.48,15.32,19.57Z" style="fill:#263238"></path>
        <path d="M340.94,83.3V407.36c0,9.16-6.86,16.57-15.32,16.57H174.38c-8.48,0-15.34-7.41-15.34-16.57V83.3c0-18.66,6.86-19.57,15.34-19.57h30.3c1.76,0,3.2,2,3.2,4.48v1.07c0,5.81,3.18,5.83,7.08,5.83H285c3.94,0,7.1,0,7.1-5.83V68.21c0-2.48,1.42-4.48,3.21-4.48h30.29C334.08,63.73,340.94,66.21,340.94,83.3Z" style="fill:#fff"></path>
        <path d="M340.94,83.3V407.36c0,9.16-6.86,16.57-15.32,16.57H174.38c-8.48,0-15.34-7.41-15.34-16.57V83.3c0-18.66,6.86-19.57,15.34-19.57h30.3c1.76,0,3.2,2,3.2,4.48v1.07c0,5.81,3.18,5.83,7.08,5.83H285c3.94,0,7.1,0,7.1-5.83V68.21c0-2.48,1.42-4.48,3.21-4.48h30.29C334.08,63.73,340.94,66.21,340.94,83.3Z" style="fill:#fff"></path>
        <path d="M340.94,83.3v28.85H159V83.3c0-18.66,6.86-19.57,15.34-19.57h30.3c1.76,0,3.2,2,3.2,4.48v1.07c0,5.81,3.18,5.83,7.08,5.83H285c3.94,0,7.1,0,7.1-5.83V68.21c0-2.48,1.42-4.48,3.21-4.48h30.29C334.08,63.73,340.94,66.21,340.94,83.3Z" style="fill:#9088E5"></path>
        <g id="freepik--u5Zjqx--inject-19">
            <path d="M199.45,71l-.29.29c-.06,0-.11.11-.17.17a4,4,0,0,0-5.64,0l-.16-.17L192.9,71h0l0,0,.37-.32a4.06,4.06,0,0,1,.86-.55,4.18,4.18,0,0,1,1.13-.38c.19,0,.38,0,.57-.08s.48,0,.5,0l.38,0a4.51,4.51,0,0,1,1,.25,4.58,4.58,0,0,1,.71.33,5.35,5.35,0,0,1,.67.47l.31.28Z" style="fill:#fff"></path>
            <path d="M194.27,72.39c-.15-.16-.3-.31-.46-.46a3.32,3.32,0,0,1,4.71,0l-.46.46a2.61,2.61,0,0,0-1.89-.78A2.66,2.66,0,0,0,194.27,72.39Z" style="fill:#fff"></path>
            <path d="M197.6,72.85l-.46.46a1.38,1.38,0,0,0-1.94,0l-.46-.46A2,2,0,0,1,197.6,72.85Z" style="fill:#fff"></path>
            <path d="M196.58,73.73a.41.41,0,0,1-.41.41.42.42,0,1,1,0-.83A.41.41,0,0,1,196.58,73.73Z" style="fill:#fff"></path>
        </g>
        <path d="M170.9,71.89a1.21,1.21,0,1,1,1.21,1.21A1.21,1.21,0,0,1,170.9,71.89Z" style="fill:#fff"></path>
        <path d="M174.7,71.89a1.21,1.21,0,1,1,1.21,1.21A1.21,1.21,0,0,1,174.7,71.89Z" style="fill:#fff"></path>
        <path d="M178.5,71.89a1.21,1.21,0,1,1,1.2,1.21A1.2,1.2,0,0,1,178.5,71.89Z" style="fill:#fff"></path>
        <path d="M182.3,71.89a1.21,1.21,0,1,1,1.2,1.21A1.2,1.2,0,0,1,182.3,71.89Z" style="fill:#fff"></path>
        <path d="M186.09,71.89a1.21,1.21,0,1,1,1.21,1.21A1.21,1.21,0,0,1,186.09,71.89Z" style="fill:#fff"></path>
        <path d="M327.3,74.52h-9.82V70h9.82ZM318,74h8.82V70.48H318Z" style="fill:#fff"></path>
        <rect x="318.3" y="70.75" width="6.33" height="3" style="fill:#fff"></rect>
        <rect x="327.3" y="71.04" width="0.87" height="2.43" style="fill:#fff"></rect>
        <polygon points="175.62 101.47 170.25 96.44 175.62 91.41 176.46 92.29 172.03 96.44 176.46 100.59 175.62 101.47" style="fill:#fff"></polygon>
        <polygon points="324.38 91.41 329.75 96.44 324.38 101.47 323.54 100.59 327.97 96.44 323.54 92.29 324.38 91.41" style="fill:#fff"></polygon>
        <path d="M223.46,96.24a3.3,3.3,0,0,1,3.3-3.24,3.39,3.39,0,0,1,2.08.7.54.54,0,0,1,.09.72.53.53,0,0,1-.72.1,2.28,2.28,0,0,0-1.45-.5,2.41,2.41,0,0,0-1.62.65,2.23,2.23,0,0,0-.66,1.57,2.19,2.19,0,0,0,.66,1.57,2.4,2.4,0,0,0,1.62.64,2.29,2.29,0,0,0,1.45-.49.55.55,0,0,1,.72.1.54.54,0,0,1-.09.72,3.39,3.39,0,0,1-2.08.7A3.28,3.28,0,0,1,223.46,96.24Z" style="fill:#fff"></path>
        <path d="M233.75,98h-2.19l-.44,1.18a.51.51,0,0,1-.46.31.52.52,0,0,1-.18,0,.51.51,0,0,1-.29-.65l2-5.3a.52.52,0,0,1,.95,0l2,5.3a.51.51,0,0,1-.3.65.43.43,0,0,1-.17,0,.5.5,0,0,1-.46-.31Zm-.37-1-.73-1.93L231.92,97Z" style="fill:#fff"></path>
        <path d="M239.31,94.18h-1.44V99a.49.49,0,0,1-.49.5.5.5,0,0,1-.5-.5v-4.8h-1.42a.5.5,0,0,1-.49-.51.48.48,0,0,1,.49-.49h3.85a.48.48,0,0,1,.49.49A.51.51,0,0,1,239.31,94.18Z" style="fill:#fff"></path>
        <path d="M243.64,98h-2.18L241,99.17a.51.51,0,0,1-.46.31.43.43,0,0,1-.17,0,.5.5,0,0,1-.3-.65l2-5.3a.52.52,0,0,1,1,0l2,5.3a.5.5,0,0,1-.3.65.4.4,0,0,1-.17,0,.51.51,0,0,1-.46-.31Zm-.37-1-.73-1.93L241.82,97Z" style="fill:#fff"></path>
        <path d="M246.24,99V93.67a.5.5,0,0,1,1,0v4.81h2.44a.51.51,0,0,1,.5.5.51.51,0,0,1-.5.5h-2.94A.5.5,0,0,1,246.24,99Z" style="fill:#fff"></path>
        <path d="M255.92,94a3.31,3.31,0,0,1,0,4.56,3,3,0,0,1-2.15,1,3.06,3.06,0,0,1-2.21-1,3.37,3.37,0,0,1,0-4.56,3,3,0,0,1,2.21-1A2.92,2.92,0,0,1,255.92,94Zm-.12,2.28a2.35,2.35,0,0,0-.61-1.58,2,2,0,0,0-1.42-.64,2,2,0,0,0-1.46.64,2.3,2.3,0,0,0-.61,1.58,2.26,2.26,0,0,0,.61,1.57,2,2,0,0,0,1.46.64,2,2,0,0,0,1.42-.64A2.3,2.3,0,0,0,255.8,96.24Z" style="fill:#fff"></path>
        <path d="M258.32,96.25A3.28,3.28,0,0,1,261.64,93a3.35,3.35,0,0,1,2.06.7.52.52,0,1,1-.64.81,2.3,2.3,0,0,0-1.42-.49,2.26,2.26,0,0,0-1.62.66,2.15,2.15,0,0,0,0,3.12,2.25,2.25,0,0,0,1.62.65,2.48,2.48,0,0,0,1.24-.34V96.88h-1.29a.52.52,0,0,1-.51-.51.51.51,0,0,1,.51-.51h1.79a.51.51,0,0,1,.52.51v2c0,.07,0,.1,0,.16l0,0h0a.44.44,0,0,1-.17.22,3.34,3.34,0,0,1-2.05.7A3.27,3.27,0,0,1,258.32,96.25Z" style="fill:#fff"></path>
        <path d="M268.54,99.48a2.6,2.6,0,0,1-2.61-2.6V93.67a.49.49,0,0,1,.5-.49.49.49,0,0,1,.5.49v3.21a1.61,1.61,0,0,0,3.21,0V93.67a.5.5,0,0,1,1,0v3.21A2.6,2.6,0,0,1,268.54,99.48Z" style="fill:#fff"></path>
        <path d="M272.8,99V93.67a.49.49,0,0,1,.5-.49h2.94a.5.5,0,0,1,.5.49.52.52,0,0,1-.5.51H273.8v1.64h2.1a.51.51,0,0,1,.49.5.49.49,0,0,1-.49.5h-2.1v1.66h2.44a.51.51,0,0,1,.5.5.51.51,0,0,1-.5.5h-2.92a0,0,0,0,1,0,0h0A.5.5,0,0,1,272.8,99Z" style="fill:#fff"></path>
        <path d="M259.55,67.85H240.44a1.18,1.18,0,0,1-1.18-1.18h0a1.18,1.18,0,0,1,1.18-1.18h19.11a1.18,1.18,0,0,1,1.18,1.18h0A1.18,1.18,0,0,1,259.55,67.85Z" style="fill:#fff"></path>
        <rect x="175.46" y="369.28" width="67.47" height="54.65" style="fill:#9088E5"></rect>
        <rect x="257.07" y="369.28" width="67.47" height="54.65" style="fill:#ebebeb"></rect>
        <rect x="175.46" y="268.19" width="67.47" height="67.47" style="fill:#ebebeb"></rect>
        <rect x="257.07" y="268.19" width="67.47" height="67.47" style="fill:#9088E5"></rect>
        <rect x="257.07" y="167.1" width="67.47" height="67.47" style="fill:#ebebeb"></rect>
        <rect x="175.46" y="167.1" width="67.47" height="67.47" style="fill:#9088E5"></rect>
        <rect x="175.47" y="241.08" width="7.38" height="7.38" style="fill:#9088E5"></rect>
        <rect x="185.77" y="241.08" width="7.38" height="7.38" style="fill:#455a64"></rect>
        <rect x="196.08" y="241.08" width="7.38" height="7.38" style="fill:#dbdbdb"></rect>
        <rect x="206.39" y="241.08" width="7.38" height="7.38" style="fill:#263238"></rect>
        <rect x="257.07" y="241.08" width="7.38" height="7.38" style="fill:#9088E5"></rect>
        <rect x="267.38" y="241.08" width="7.38" height="7.38" style="fill:#455a64"></rect>
        <rect x="277.69" y="241.08" width="7.38" height="7.38" style="fill:#dbdbdb"></rect>
        <rect x="287.99" y="241.08" width="7.38" height="7.38" style="fill:#263238"></rect>
        <path d="M178.49,253.64a.38.38,0,0,1,.39.38v.2a3.31,3.31,0,0,1,1.4.5.48.48,0,0,1,.27.43.5.5,0,0,1-.51.49.47.47,0,0,1-.27-.08,3.08,3.08,0,0,0-.93-.39v1.72c1.37.35,2,.9,2,1.86s-.78,1.65-1.92,1.75V261a.38.38,0,0,1-.39.39.39.39,0,0,1-.39-.39v-.55a4,4,0,0,1-1.85-.7.51.51,0,0,1-.24-.44.48.48,0,0,1,.49-.49.45.45,0,0,1,.3.1,3.26,3.26,0,0,0,1.33.6v-1.77c-1.31-.35-1.92-.84-1.92-1.86a1.81,1.81,0,0,1,1.89-1.72V254A.39.39,0,0,1,178.49,253.64Zm-.36,3.07v-1.6c-.57.06-.86.36-.86.76S177.44,256.48,178.13,256.71Zm.71,1.25v1.64c.58-.07.9-.36.9-.79S179.54,258.17,178.84,258Z" style="fill:#263238"></path>
        <path d="M185.14,256.68a2.16,2.16,0,0,1,.66,1.57,2.21,2.21,0,0,1-.66,1.59,2.23,2.23,0,0,1-1.58.66,2.27,2.27,0,0,1-1.58-.66.53.53,0,0,1,0-.72.51.51,0,0,1,.72,0,1.23,1.23,0,0,0,1.72,0,1.18,1.18,0,0,0,.36-.87,1.14,1.14,0,0,0-.36-.85,1.21,1.21,0,0,0-.85-.36.46.46,0,0,1-.37-.16h0a.51.51,0,0,1,0-.72l.92-.94h-1.46a.5.5,0,0,1-.5-.51.5.5,0,0,1,.5-.51h2.66a.51.51,0,0,1,.51.51.61.61,0,0,1-.06.24l-.09.13-1.14,1.17A2,2,0,0,1,185.14,256.68Z" style="fill:#263238"></path>
        <path d="M187.19,256.38a2.18,2.18,0,0,1,4.35-.22h0c0,.18,0,.35,0,.52a5.35,5.35,0,0,1-.31,1.84,3.16,3.16,0,0,1-1.17,1.54,2.49,2.49,0,0,1-1.35.43.51.51,0,0,1-.52-.48.52.52,0,0,1,.49-.52,1.58,1.58,0,0,0,.84-.26,1.75,1.75,0,0,0,.57-.63,1.67,1.67,0,0,0,.12-.23,2.08,2.08,0,0,1-.87.18A2.18,2.18,0,0,1,187.19,256.38Zm1,0a1.18,1.18,0,1,0,2.36,0,1.18,1.18,0,0,0-2.36,0Z" style="fill:#263238"></path>
        <path d="M193.68,259.23a.67.67,0,1,1,0,1.34.67.67,0,0,1,0-1.34Z" style="fill:#263238"></path>
        <path d="M194.94,256.38a2.19,2.19,0,0,1,4.36-.22h0c0,.18,0,.35,0,.52a5.13,5.13,0,0,1-.32,1.84,3.08,3.08,0,0,1-1.16,1.54,2.54,2.54,0,0,1-1.35.43A.51.51,0,0,1,196,260a.52.52,0,0,1,.49-.52,1.58,1.58,0,0,0,.84-.26,1.75,1.75,0,0,0,.57-.63l.12-.23a2.12,2.12,0,0,1-.87.18A2.19,2.19,0,0,1,194.94,256.38Zm1,0a1.19,1.19,0,1,0,2.37,0,1.19,1.19,0,0,0-2.37,0Z" style="fill:#263238"></path>
        <path d="M200.72,256.38a2.19,2.19,0,0,1,4.36-.22h0c0,.18,0,.35,0,.52a5.13,5.13,0,0,1-.32,1.84,3.08,3.08,0,0,1-1.16,1.54,2.54,2.54,0,0,1-1.35.43.5.5,0,0,1-.52-.48.51.51,0,0,1,.48-.52,1.58,1.58,0,0,0,.85-.26,1.94,1.94,0,0,0,.57-.63,1.63,1.63,0,0,0,.11-.23,2,2,0,0,1-.86.18A2.18,2.18,0,0,1,200.72,256.38Zm1,0a1.19,1.19,0,1,0,2.37,0,1.19,1.19,0,0,0-2.37,0Z" style="fill:#263238"></path>
        <path d="M260.1,253.64a.38.38,0,0,1,.39.38v.2a3.22,3.22,0,0,1,1.39.5.46.46,0,0,1,.27.43.49.49,0,0,1-.5.49.47.47,0,0,1-.27-.08,3.08,3.08,0,0,0-.93-.39v1.72c1.37.35,2,.9,2,1.86s-.78,1.65-1.92,1.75V261a.38.38,0,0,1-.39.39.39.39,0,0,1-.39-.39v-.55a4,4,0,0,1-1.85-.7.51.51,0,0,1-.24-.44.48.48,0,0,1,.49-.49.45.45,0,0,1,.3.1,3.26,3.26,0,0,0,1.33.6v-1.77c-1.31-.35-1.92-.84-1.92-1.86a1.81,1.81,0,0,1,1.89-1.72V254A.39.39,0,0,1,260.1,253.64Zm-.36,3.07v-1.6c-.57.06-.86.36-.86.76S259.05,256.48,259.74,256.71Zm.71,1.25v1.64c.58-.07.89-.36.89-.79S261.15,258.17,260.45,258Z" style="fill:#263238"></path>
        <path d="M268.16,258.83a.5.5,0,0,1-.51.5h-.09V260a.48.48,0,0,1-.49.49.49.49,0,0,1-.5-.49v-.68h-2.83a.45.45,0,0,1-.31-.11.49.49,0,0,1-.08-.7l3.33-4.14h0l0,0,0,0,0,0s0,0,.05,0,0,0,0,0l.05,0h.24l.05,0h0l0,0,.05,0h0s0,0,0,0l0,0s0,0,0,0l0,0s0,0,0,0l0,.06v.09s0,0,0,0v3.66h.09A.51.51,0,0,1,268.16,258.83Zm-1.59-2.72-1.79,2.22h1.79Z" style="fill:#263238"></path>
        <path d="M269.24,256.38a2.18,2.18,0,0,1,4.35-.22h0c0,.18,0,.35,0,.52a5.35,5.35,0,0,1-.31,1.84,3.16,3.16,0,0,1-1.17,1.54,2.49,2.49,0,0,1-1.35.43.5.5,0,1,1,0-1,1.58,1.58,0,0,0,.84-.26,1.75,1.75,0,0,0,.57-.63,1.67,1.67,0,0,0,.12-.23,2.08,2.08,0,0,1-.87.18A2.18,2.18,0,0,1,269.24,256.38Zm1,0a1.18,1.18,0,1,0,2.36,0,1.18,1.18,0,1,0-2.36,0Z" style="fill:#263238"></path>
        <path d="M275.73,259.23a.67.67,0,1,1,0,1.34.67.67,0,0,1,0-1.34Z" style="fill:#263238"></path>
        <path d="M277,256.38a2.19,2.19,0,0,1,4.36-.22h0c0,.18,0,.35,0,.52a5.13,5.13,0,0,1-.32,1.84,3.08,3.08,0,0,1-1.16,1.54,2.52,2.52,0,0,1-1.35.43A.51.51,0,0,1,278,260a.52.52,0,0,1,.49-.52,1.58,1.58,0,0,0,.84-.26,1.75,1.75,0,0,0,.57-.63l.12-.23a2.08,2.08,0,0,1-.87.18A2.19,2.19,0,0,1,277,256.38Zm1,0a1.2,1.2,0,0,0,1.19,1.19,1.18,1.18,0,0,0,1.18-1.19,1.17,1.17,0,0,0-1.18-1.18A1.18,1.18,0,0,0,278,256.38Z" style="fill:#263238"></path>
        <path d="M282.77,256.38a2.19,2.19,0,0,1,4.36-.22h0c0,.18,0,.35,0,.52a5.13,5.13,0,0,1-.32,1.84,3.08,3.08,0,0,1-1.16,1.54,2.54,2.54,0,0,1-1.35.43.5.5,0,1,1,0-1,1.58,1.58,0,0,0,.85-.26,1.84,1.84,0,0,0,.57-.63,1.63,1.63,0,0,0,.11-.23,2,2,0,0,1-.86.18A2.18,2.18,0,0,1,282.77,256.38Zm1,0a1.19,1.19,0,1,0,2.37,0,1.19,1.19,0,0,0-2.37,0Z" style="fill:#263238"></path>
        <path d="M314.61,313.42c-1,.31-46.59-.17-47.23-.59s-.93-7.21-1.06-14.83v-.32a2,2,0,0,0,0-.25l28.41.05V298s16.75,7.75,18.45,9.13S316.15,312.93,314.61,313.42Z" style="fill:#455a64"></path>
        <path d="M314.13,311.71c-7.42-.28-37.37-.7-44.72-.41-.06,0-.06,0,0,0,7.35.44,37.31.62,44.73.49C314.29,311.83,314.29,311.72,314.13,311.71Z" style="fill:#263238"></path>
        <path d="M297.88,297.6c-2.91-.58-6.49-.18-8.75,1.87-.08.08,0,.21.13.18a41.25,41.25,0,0,1,8.61-1.68A.19.19,0,0,0,297.88,297.6Z" style="fill:#263238"></path>
        <path d="M300,298.9c-2.92-.58-6.5-.18-8.75,1.87-.09.08,0,.2.12.17a41.23,41.23,0,0,1,8.61-1.67A.19.19,0,0,0,300,298.9Z" style="fill:#263238"></path>
        <path d="M302.07,300.2c-2.92-.59-6.49-.18-8.75,1.87-.09.08,0,.2.12.17a40.6,40.6,0,0,1,8.61-1.67A.19.19,0,0,0,302.07,300.2Z" style="fill:#263238"></path>
        <path d="M301.77,291.28c-1.13-1.59-3.28-.91-4.51.1a15.66,15.66,0,0,0-4.31,5.88l-.09.22a.5.5,0,0,1-.05.13s0,0,0,0l0,.06c0,.1-.07.2-.1.3a.08.08,0,0,0,.07.11.49.49,0,0,0,.19.35.31.31,0,0,0,.27,0c.5-.18,1-.35,1.52-.51l1.69-.58a14,14,0,0,0,4-2C301.62,294.5,302.83,292.79,301.77,291.28Zm-.59,1.8c-.31,1.77-3.17,2.81-4.58,3.35-.93.36-1.88.67-2.8,1h0l-.52.21-.19.08.12-.18,0,0,.06-.08a42.13,42.13,0,0,1,2.56-3.52,16.46,16.46,0,0,1,1.57-1.66C298.27,291.52,301.73,289.89,301.18,293.08Z" style="fill:#263238"></path>
        <path d="M293.38,297.89l-.13-.2a.61.61,0,0,0-.07-.1v0l-.06-.09c-.05-.07-.1-.15-.16-.22a15.63,15.63,0,0,0-5.56-4.77c-1.43-.7-3.68-.87-4.41.94s.88,3.1,2.28,3.72a8.11,8.11,0,0,0,.82.31,19.78,19.78,0,0,0,4.86.82c.67.06,1.34.11,2,.19H293a.36.36,0,0,0,.36-.46A.08.08,0,0,0,293.38,297.89Zm-.61-.18-.15,0c-.54-.09-1.07-.15-1.61-.22l-1.82-.22c-1.49-.2-4.52-.55-5.22-2.2-1.28-3,2.47-2.19,3.5-1.63a16.08,16.08,0,0,1,1.91,1.25,39.84,39.84,0,0,1,3.28,2.81l.15.13,0,0,.11.1Z" style="fill:#263238"></path>
        <rect x="175.47" y="342.17" width="7.38" height="7.38" style="fill:#9088E5"></rect>
        <rect x="185.77" y="342.17" width="7.38" height="7.38" style="fill:#455a64"></rect>
        <rect x="196.08" y="342.17" width="7.38" height="7.38" style="fill:#dbdbdb"></rect>
        <rect x="206.39" y="342.17" width="7.38" height="7.38" style="fill:#263238"></rect>
        <rect x="257.07" y="342.17" width="7.38" height="7.38" style="fill:#a6a6a6"></rect>
        <rect x="267.38" y="342.17" width="7.38" height="7.38" style="fill:#455a64"></rect>
        <rect x="277.69" y="342.17" width="7.38" height="7.38" style="fill:#dbdbdb"></rect>
        <rect x="287.99" y="342.17" width="7.38" height="7.38" style="fill:#263238"></rect>
        <path d="M178.49,354.73a.38.38,0,0,1,.39.39v.19a3.45,3.45,0,0,1,1.4.5.48.48,0,0,1,.27.43.5.5,0,0,1-.51.5.48.48,0,0,1-.27-.09,3.08,3.08,0,0,0-.93-.39V358c1.37.34,2,.89,2,1.85s-.78,1.65-1.92,1.76v.54a.38.38,0,0,1-.39.38.39.39,0,0,1-.39-.38v-.56a4,4,0,0,1-1.85-.7.51.51,0,0,1-.24-.44.48.48,0,0,1,.49-.49.51.51,0,0,1,.3.1,3.26,3.26,0,0,0,1.33.6v-1.77c-1.31-.34-1.92-.84-1.92-1.86a1.81,1.81,0,0,1,1.89-1.72v-.18A.39.39,0,0,1,178.49,354.73Zm-.36,3.07v-1.6c-.57.06-.86.36-.86.76S177.44,357.57,178.13,357.8Zm.71,1.25v1.64c.58-.07.9-.35.9-.79S179.54,359.26,178.84,359.05Z" style="fill:#263238"></path>
        <path d="M185.14,357.77a2.17,2.17,0,0,1,.66,1.58,2.2,2.2,0,0,1-.66,1.58,2.23,2.23,0,0,1-1.58.66,2.27,2.27,0,0,1-1.58-.66.53.53,0,0,1,0-.72.51.51,0,0,1,.72,0,1.23,1.23,0,0,0,1.72,0,1.17,1.17,0,0,0,.36-.86,1.14,1.14,0,0,0-.36-.86,1.21,1.21,0,0,0-.85-.36.43.43,0,0,1-.37-.16s0,0,0,0a.51.51,0,0,1,0-.72l.92-.94h-1.46a.51.51,0,0,1,0-1h2.66a.5.5,0,0,1,.51.5.61.61,0,0,1-.06.24l-.09.13-1.14,1.17A2,2,0,0,1,185.14,357.77Z" style="fill:#263238"></path>
        <path d="M187.19,357.47a2.18,2.18,0,0,1,4.35-.22v0c0,.17,0,.34,0,.51a5.45,5.45,0,0,1-.31,1.85,3.14,3.14,0,0,1-1.17,1.53,2.49,2.49,0,0,1-1.35.43.5.5,0,0,1-.52-.48.52.52,0,0,1,.49-.52,1.67,1.67,0,0,0,.84-.25,1.83,1.83,0,0,0,.57-.63c0-.08.08-.16.12-.24a2.08,2.08,0,0,1-.87.18A2.18,2.18,0,0,1,187.19,357.47Zm1,0a1.18,1.18,0,1,0,2.36,0,1.18,1.18,0,0,0-2.36,0Z" style="fill:#263238"></path>
        <path d="M193.68,360.32a.67.67,0,1,1,0,1.34.67.67,0,0,1,0-1.34Z" style="fill:#263238"></path>
        <path d="M194.94,357.47a2.19,2.19,0,0,1,4.36-.22v0c0,.17,0,.34,0,.51a5.23,5.23,0,0,1-.32,1.85,3.06,3.06,0,0,1-1.16,1.53,2.54,2.54,0,0,1-1.35.43.5.5,0,0,1-.52-.48.52.52,0,0,1,.49-.52,1.67,1.67,0,0,0,.84-.25,1.83,1.83,0,0,0,.57-.63l.12-.24a2.12,2.12,0,0,1-.87.18A2.19,2.19,0,0,1,194.94,357.47Zm1,0a1.19,1.19,0,1,0,2.37,0,1.19,1.19,0,0,0-2.37,0Z" style="fill:#263238"></path>
        <path d="M200.72,357.47a2.19,2.19,0,0,1,4.36-.22v0c0,.17,0,.34,0,.51a5.23,5.23,0,0,1-.32,1.85,3.06,3.06,0,0,1-1.16,1.53,2.54,2.54,0,0,1-1.35.43.5.5,0,0,1-.52-.48.51.51,0,0,1,.48-.52,1.67,1.67,0,0,0,.85-.25,2.05,2.05,0,0,0,.57-.63,2.56,2.56,0,0,0,.11-.24,2,2,0,0,1-.86.18A2.18,2.18,0,0,1,200.72,357.47Zm1,0a1.19,1.19,0,1,0,2.37,0,1.19,1.19,0,0,0-2.37,0Z" style="fill:#263238"></path>
        <path d="M260.1,354.73a.38.38,0,0,1,.39.39v.19a3.35,3.35,0,0,1,1.39.5.46.46,0,0,1,.27.43.5.5,0,0,1-.5.5.48.48,0,0,1-.27-.09,3.08,3.08,0,0,0-.93-.39V358c1.37.34,2,.89,2,1.85s-.78,1.65-1.92,1.76v.54a.38.38,0,0,1-.39.38.39.39,0,0,1-.39-.38v-.56a4,4,0,0,1-1.85-.7.51.51,0,0,1-.24-.44.48.48,0,0,1,.49-.49.51.51,0,0,1,.3.1,3.26,3.26,0,0,0,1.33.6v-1.77c-1.31-.34-1.92-.84-1.92-1.86a1.81,1.81,0,0,1,1.89-1.72v-.18A.39.39,0,0,1,260.1,354.73Zm-.36,3.07v-1.6c-.57.06-.86.36-.86.76S259.05,357.57,259.74,357.8Zm.71,1.25v1.64c.58-.07.89-.35.89-.79S261.15,359.26,260.45,359.05Z" style="fill:#263238"></path>
        <path d="M266.75,357.77a2.17,2.17,0,0,1,.66,1.58,2.2,2.2,0,0,1-.66,1.58,2.23,2.23,0,0,1-1.58.66,2.27,2.27,0,0,1-1.58-.66.53.53,0,0,1,0-.72.51.51,0,0,1,.72,0,1.23,1.23,0,0,0,.86.35,1.24,1.24,0,0,0,.86-.35,1.17,1.17,0,0,0,.36-.86,1.14,1.14,0,0,0-.36-.86,1.21,1.21,0,0,0-.85-.36.43.43,0,0,1-.37-.16s0,0,0,0a.51.51,0,0,1,0-.72l.92-.94h-1.46a.51.51,0,0,1,0-1h2.66a.5.5,0,0,1,.51.5.61.61,0,0,1-.06.24l-.09.13-1.14,1.17A2,2,0,0,1,266.75,357.77Z" style="fill:#263238"></path>
        <path d="M268.79,357.47a2.19,2.19,0,0,1,4.36-.22v0c0,.17,0,.34,0,.51a5.45,5.45,0,0,1-.31,1.85,3.14,3.14,0,0,1-1.17,1.53,2.49,2.49,0,0,1-1.35.43.5.5,0,0,1-.52-.48.52.52,0,0,1,.49-.52,1.67,1.67,0,0,0,.84-.25,1.83,1.83,0,0,0,.57-.63c0-.08.08-.16.12-.24a2.08,2.08,0,0,1-.87.18A2.19,2.19,0,0,1,268.79,357.47Zm1,0a1.2,1.2,0,0,0,1.19,1.19,1.19,1.19,0,1,0-1.19-1.19Z" style="fill:#263238"></path>
        <path d="M275.29,360.32a.67.67,0,1,1,0,1.34.67.67,0,0,1,0-1.34Z" style="fill:#263238"></path>
        <path d="M276.55,357.47a2.19,2.19,0,0,1,4.36-.22v0c0,.17,0,.34,0,.51a5.23,5.23,0,0,1-.32,1.85,3.06,3.06,0,0,1-1.16,1.53,2.54,2.54,0,0,1-1.35.43.5.5,0,0,1-.52-.48.51.51,0,0,1,.48-.52,1.67,1.67,0,0,0,.85-.25,1.94,1.94,0,0,0,.57-.63l.12-.24a2.12,2.12,0,0,1-.87.18A2.19,2.19,0,0,1,276.55,357.47Zm1,0a1.19,1.19,0,1,0,2.37,0,1.19,1.19,0,0,0-2.37,0Z" style="fill:#263238"></path>
        <path d="M282.33,357.47a2.19,2.19,0,0,1,4.36-.22v0c0,.17,0,.34,0,.51a5.21,5.21,0,0,1-.31,1.85,3.06,3.06,0,0,1-1.16,1.53,2.54,2.54,0,0,1-1.35.43.5.5,0,0,1-.52-.48.51.51,0,0,1,.48-.52,1.74,1.74,0,0,0,.85-.25,2.05,2.05,0,0,0,.57-.63,2.56,2.56,0,0,0,.11-.24,2.07,2.07,0,0,1-.86.18A2.18,2.18,0,0,1,282.33,357.47Zm1,0a1.19,1.19,0,1,0,2.37,0,1.19,1.19,0,0,0-2.37,0Z" style="fill:#263238"></path>
        <rect x="159.04" y="112.15" width="181.9" height="37.25" style="fill:#c7c7c7"></rect>
        <path d="M225.31,133.13a.79.79,0,0,1,1.1-.11,4.93,4.93,0,0,0,2.86,1.16,3.32,3.32,0,0,0,1.88-.55,1.37,1.37,0,0,0,.64-1.09.86.86,0,0,0-.13-.48,1.59,1.59,0,0,0-.45-.45,6,6,0,0,0-2.06-.7h0a8.91,8.91,0,0,1-1.93-.58,3.23,3.23,0,0,1-1.4-1.18,2.31,2.31,0,0,1-.34-1.22,2.76,2.76,0,0,1,1.2-2.19,4.42,4.42,0,0,1,2.59-.8,5.9,5.9,0,0,1,3.27,1.2.78.78,0,0,1,.21,1.07.76.76,0,0,1-1.06.22,4.37,4.37,0,0,0-2.42-1,2.89,2.89,0,0,0-1.68.51,1.21,1.21,0,0,0-.57,1,.71.71,0,0,0,.11.42,1.47,1.47,0,0,0,.4.38,5.18,5.18,0,0,0,1.88.67h0a8.67,8.67,0,0,1,2.07.62,3.61,3.61,0,0,1,1.5,1.25,2.47,2.47,0,0,1,.36,1.27,2.91,2.91,0,0,1-1.29,2.33,4.7,4.7,0,0,1-2.78.85,6.42,6.42,0,0,1-3.84-1.5A.8.8,0,0,1,225.31,133.13Z" style="fill:#fff"></path>
        <path d="M235.65,134.91v-8.85a.81.81,0,0,1,.82-.82.82.82,0,0,1,.84.82v3.6h3.89v-3.6a.81.81,0,0,1,.82-.82.82.82,0,0,1,.84.82v8.85a.82.82,0,0,1-.84.83.81.81,0,0,1-.82-.83v-3.6h-3.89v3.6a.82.82,0,0,1-.84.83A.81.81,0,0,1,235.65,134.91Z" style="fill:#fff"></path>
        <path d="M254.11,126.54a5.53,5.53,0,0,1,1.52,3.8,5.47,5.47,0,0,1-1.52,3.79,4.92,4.92,0,0,1-3.59,1.61,5,5,0,0,1-3.67-1.61,5.45,5.45,0,0,1-1.49-3.79,5.51,5.51,0,0,1,1.49-3.8,5,5,0,0,1,3.67-1.6A4.91,4.91,0,0,1,254.11,126.54Zm-.19,3.8a3.9,3.9,0,0,0-1-2.63,3.25,3.25,0,0,0-4.8,0,3.85,3.85,0,0,0-1,2.63,3.76,3.76,0,0,0,1,2.61,3.21,3.21,0,0,0,4.8,0A3.81,3.81,0,0,0,253.92,130.34Z" style="fill:#fff"></path>
        <path d="M258.58,134.91v-8.85a.81.81,0,0,1,.82-.82h4.91a.83.83,0,0,1,.82.82.85.85,0,0,1-.82.85h-4.07v2.74h3.5a.84.84,0,0,1,.82.83.83.83,0,0,1-.82.83h-3.5v2.76h4.07a.84.84,0,0,1,0,1.67h-4.86s0,0,0,0l0,0A.83.83,0,0,1,258.58,134.91Z" style="fill:#fff"></path>
        <path d="M267.14,133.13a.79.79,0,0,1,1.1-.11,4.93,4.93,0,0,0,2.86,1.16,3.32,3.32,0,0,0,1.88-.55,1.37,1.37,0,0,0,.64-1.09.86.86,0,0,0-.13-.48,1.59,1.59,0,0,0-.45-.45,6,6,0,0,0-2.06-.7h0a8.91,8.91,0,0,1-1.93-.58,3.23,3.23,0,0,1-1.4-1.18,2.31,2.31,0,0,1-.34-1.22,2.76,2.76,0,0,1,1.2-2.19,4.42,4.42,0,0,1,2.59-.8,5.9,5.9,0,0,1,3.27,1.2.77.77,0,0,1,.21,1.07.76.76,0,0,1-1.06.22,4.37,4.37,0,0,0-2.42-1,2.89,2.89,0,0,0-1.68.51,1.21,1.21,0,0,0-.57,1,.71.71,0,0,0,.11.42,1.47,1.47,0,0,0,.4.38,5.18,5.18,0,0,0,1.88.67h0a8.67,8.67,0,0,1,2.07.62,3.61,3.61,0,0,1,1.5,1.25,2.47,2.47,0,0,1,.36,1.27,2.91,2.91,0,0,1-1.29,2.33,4.7,4.7,0,0,1-2.78.85,6.42,6.42,0,0,1-3.84-1.5A.8.8,0,0,1,267.14,133.13Z" style="fill:#fff"></path>
        <path d="M233.23,212.28c-1.56.51-46.19.65-47.89-.44-.64-.41-1.24-7.74-.58-15.35l28.76.24s16.47,7.77,18.2,9.16S234.79,211.77,233.23,212.28Z" style="fill:#455a64"></path>
        <path d="M233.89,211.3a1.1,1.1,0,0,1-.66,1c-1.56.51-46.19.64-47.89-.45a2.8,2.8,0,0,1-.43-1.38h37.73a7.77,7.77,0,0,1,2.1-4.4,6.71,6.71,0,0,1,4.18-1.78,24.62,24.62,0,0,1,2.8,1.61,7.67,7.67,0,0,1,2.18,4.57A3.34,3.34,0,0,1,233.89,211.3Z" style="fill:#fff"></path>
        <path d="M232.6,210.49c-7.47-.23-37.66-.48-45.06-.15-.06,0-.06,0,0,0,7.4.39,37.58.4,45.06.23C232.76,210.61,232.76,210.5,232.6,210.49Z" style="fill:#263238"></path>
        <path d="M228.87,204.26a6,6,0,0,0-4.49,1.8,5.81,5.81,0,0,0-1.7,4s.08,0,.09,0a6.94,6.94,0,0,1,6.1-5.68A.05.05,0,0,0,228.87,204.26Z" style="fill:#263238"></path>
        <path d="M215.86,197.5c-3-.06-6.47,1-8.34,3.4-.08.1.06.2.15.15a41.56,41.56,0,0,1,8.24-3.18A.19.19,0,0,0,215.86,197.5Z" style="fill:#263238"></path>
        <path d="M218.17,198.42c-3-.07-6.47,1-8.35,3.4-.07.09.06.2.15.15a41.27,41.27,0,0,1,8.25-3.18A.19.19,0,0,0,218.17,198.42Z" style="fill:#263238"></path>
        <path d="M220.47,199.33c-3-.06-6.47,1-8.35,3.41-.07.09.07.19.16.15a41,41,0,0,1,8.24-3.19A.19.19,0,0,0,220.47,199.33Z" style="fill:#263238"></path>
        <path d="M222.78,200.25c-3-.06-6.47,1-8.35,3.41-.07.09.06.19.15.15a41.3,41.3,0,0,1,8.25-3.19A.19.19,0,0,0,222.78,200.25Z" style="fill:#263238"></path>
        <path d="M189.49,202c-3.36,0-3.39,5.2,0,5.22S192.86,202,189.49,202Z" style="fill:#fff"></path>
        <path d="M219.16,189.54c-1.51-1.27-3.43-.06-4.37,1.24a15.66,15.66,0,0,0-2.54,5.94c-.07.3-.12.6-.16.9,0,.13,0,.26-.05.38s0,0,0,0a.31.31,0,0,1,0,.1c0,.1,0,.2,0,.3s.05.09.1.09a.37.37,0,0,0,.3.29.28.28,0,0,0,.23,0c.59-.4,1.21-.8,1.83-1.2l.33-.21a16.3,16.3,0,0,0,4.09-3.42C219.84,192.71,220.58,190.73,219.16,189.54Zm-3.72,6.33c-.5.36-1,.7-1.51,1s-.87.61-1.29.93l-.15.11-.16.12.06-.17s0,0,0,0l.42-1.17a26.06,26.06,0,0,1,1.23-3.06,17,17,0,0,1,1.1-2c.66-1,3.62-3.47,3.89-.21C219.19,193.24,216.67,195,215.44,195.87Z" style="fill:#263238"></path>
        <path d="M212.66,198.24a.08.08,0,0,0,0-.12l-.18-.16-.07-.06s0,0,0,0a2.61,2.61,0,0,0-.31-.27,12.21,12.21,0,0,0-1.23-.91,15.23,15.23,0,0,0-5.41-2.32c-1.57-.32-3.8.09-4,2a1.41,1.41,0,0,0,0,.2c-.09,1.72,1.72,2.61,3.18,2.84a14.71,14.71,0,0,0,4.63-.14c1.08-.17,2.16-.38,3.21-.54h0A.37.37,0,0,0,212.66,198.24Zm-4.23.33c-1.51.18-4.55.61-5.66-.82a2.41,2.41,0,0,1-.55-1.11c-.23-1.52,2.59-1.6,3.55-1.37A16.9,16.9,0,0,1,208,196c.53.21,1.05.44,1.56.7.85.41,1.69.86,2.53,1.3h0l.16.08-.18,0-.43,0C210.54,198.27,209.49,198.44,208.43,198.57Z" style="fill:#263238"></path>
        <path d="M233.23,313.38c-1.56.51-46.19.64-47.89-.45-.64-.41-1.24-7.74-.58-15.34l28.76.24s16.47,7.76,18.2,9.15S234.79,312.87,233.23,313.38Z" style="fill:#9088E5"></path>
        <path d="M232.6,311.59c-7.47-.24-37.66-.49-45.06-.16-.06,0-.06.05,0,.05,7.4.4,37.58.4,45.06.23C232.76,311.71,232.76,311.59,232.6,311.59Z" style="fill:#263238"></path>
        <path d="M228.87,305.36a6,6,0,0,0-4.49,1.79,5.81,5.81,0,0,0-1.7,4c0,.05.08.05.09,0a7,7,0,0,1,6.1-5.68A0,0,0,0,0,228.87,305.36Z" style="fill:#263238"></path>
        <path d="M215.86,298.59c-3-.06-6.47,1-8.34,3.41-.08.09.06.19.15.15a41,41,0,0,1,8.24-3.19A.19.19,0,0,0,215.86,298.59Z" style="fill:#263238"></path>
        <path d="M218.17,299.51c-3-.06-6.47,1-8.35,3.4-.07.1.06.2.15.16a41.3,41.3,0,0,1,8.25-3.19A.19.19,0,0,0,218.17,299.51Z" style="fill:#263238"></path>
        <path d="M220.47,300.43c-3-.07-6.47,1-8.35,3.4-.07.1.07.2.16.15a41.56,41.56,0,0,1,8.24-3.18A.19.19,0,0,0,220.47,300.43Z" style="fill:#263238"></path>
        <path d="M222.78,301.34c-3-.06-6.47,1-8.35,3.41-.07.09.06.19.15.15a41.3,41.3,0,0,1,8.25-3.19A.19.19,0,0,0,222.78,301.34Z" style="fill:#263238"></path>
        <path d="M189.49,304.34c-3.36,0-3.39,5.21,0,5.22S192.86,304.36,189.49,304.34Z" style="fill:#263238"></path>
        <path d="M219.16,290.63c-1.51-1.27-3.43-.05-4.37,1.24a15.77,15.77,0,0,0-2.54,5.95c-.07.3-.12.6-.16.89,0,.13,0,.26-.05.38s0,0,0,0v.1l0,.31a.08.08,0,0,0,.1.08.37.37,0,0,0,.3.29.28.28,0,0,0,.23,0c.59-.4,1.21-.8,1.83-1.2l.32-.2a16.18,16.18,0,0,0,4.1-3.43C219.84,293.8,220.58,291.83,219.16,290.63ZM215.44,297,213.93,298l-1.27.91-.17.13-.16.12.06-.18v0c.14-.39.28-.77.41-1.16a29,29,0,0,1,1.24-3.07,17,17,0,0,1,1.1-2c.66-1,3.62-3.46,3.89-.2C219.19,294.33,216.67,296.08,215.44,297Z" style="fill:#263238"></path>
        <path d="M212.66,299.34a.08.08,0,0,0,0-.13,1.19,1.19,0,0,0-.18-.15.15.15,0,0,0-.07-.07s0,0,0,0a1.93,1.93,0,0,0-.31-.27,10.54,10.54,0,0,0-1.21-.9,15.63,15.63,0,0,0-5.43-2.33c-1.57-.32-3.8.09-4,2a1.48,1.48,0,0,0,0,.21c-.08,1.71,1.72,2.6,3.18,2.84a15.15,15.15,0,0,0,4.65-.15c1.07-.17,2.14-.38,3.19-.54h0A.36.36,0,0,0,212.66,299.34Zm-4.23.32c-1.51.19-4.55.61-5.66-.81a2.41,2.41,0,0,1-.55-1.11c-.23-1.52,2.59-1.6,3.55-1.37a16.85,16.85,0,0,1,2.18.72c.54.21,1.06.45,1.58.71.85.41,1.67.86,2.51,1.29h0l.16.08-.17,0-.44,0C210.54,299.36,209.49,299.53,208.43,299.66Z" style="fill:#263238"></path>
        <path d="M314.84,212.28c-1.56.51-46.19.65-47.89-.44-.64-.41-1.25-15.36-.58-23l28.76.24s.2,7.71.55,7.87c2.86,1.36,16.11,7.66,17.65,8.9C315.05,207.28,316.4,211.77,314.84,212.28Z" style="fill:#9088E5"></path>
        <path d="M314.21,210.49c-7.48-.23-37.66-.48-45.07-.15-.06,0-.06,0,0,0,7.41.4,37.59.4,45.07.23C314.37,210.61,314.37,210.5,314.21,210.49Z" style="fill:#263238"></path>
        <path d="M310.48,204.26a6,6,0,0,0-4.49,1.8,5.81,5.81,0,0,0-1.7,4s.08.05.09,0a6.94,6.94,0,0,1,6.1-5.68A.05.05,0,0,0,310.48,204.26Z" style="fill:#263238"></path>
        <path d="M297.47,197.5c-3-.06-6.47,1-8.35,3.4-.07.1.07.2.16.16a41,41,0,0,1,8.24-3.19A.19.19,0,0,0,297.47,197.5Z" style="fill:#263238"></path>
        <path d="M299.78,198.42c-3-.07-6.47,1-8.35,3.4-.07.1.06.2.15.15a41.88,41.88,0,0,1,8.25-3.18A.19.19,0,0,0,299.78,198.42Z" style="fill:#263238"></path>
        <path d="M302.08,199.34c-3-.07-6.47,1-8.35,3.4-.07.09.07.2.15.15a41.3,41.3,0,0,1,8.25-3.19A.18.18,0,0,0,302.08,199.34Z" style="fill:#263238"></path>
        <path d="M304.39,200.25c-3-.06-6.47,1-8.35,3.41-.08.09.06.19.15.15a41,41,0,0,1,8.24-3.19A.19.19,0,0,0,304.39,200.25Z" style="fill:#263238"></path>
        <path d="M271.1,191.68c-3.36,0-3.39,5.21,0,5.22S274.46,191.7,271.1,191.68Z" style="fill:#263238"></path>
        <path d="M300.76,189.54c-1.5-1.27-3.42-.06-4.36,1.24a13.36,13.36,0,0,0-1.15,1.92,16.07,16.07,0,0,0-1.54,4.92,2.58,2.58,0,0,0,0,.39.12.12,0,0,0,0,.1c0,.11,0,.21,0,.31a.08.08,0,0,0,.1.08.39.39,0,0,0,.3.29.28.28,0,0,0,.23,0c.59-.4,1.21-.8,1.83-1.2l.33-.21a16.43,16.43,0,0,0,4.08-3.42C301.45,192.71,302.19,190.73,300.76,189.54Zm-3.71,6.33-1.44,1c-.46.32-.92.64-1.36,1l-.15.11-.16.12.06-.17v0c.43-1.18.82-2.38,1.34-3.53.09-.23.2-.46.31-.69a17,17,0,0,1,1.1-2c.66-1,3.62-3.47,3.89-.21C300.8,193.24,298.28,195,297.05,195.87Z" style="fill:#263238"></path>
        <path d="M294.27,198.25a.09.09,0,0,0,0-.13l-.18-.16-.06-.06,0,0-.3-.26a15.82,15.82,0,0,0-6.65-3.23c-1.57-.32-3.8.09-4.05,2s1.65,2.8,3.17,3a14.71,14.71,0,0,0,4.63-.14c1.08-.17,2.16-.38,3.21-.54h0A.37.37,0,0,0,294.27,198.25Zm-4.24.32c-1.5.19-4.54.61-5.65-.81-2-2.59,1.85-2.77,3-2.49a16.9,16.9,0,0,1,2.18.73,42,42,0,0,1,4.1,2h0l.15.08-.16,0-.45,0C292.15,198.27,291.1,198.44,290,198.57Z" style="fill:#263238"></path>
        <path d="M233.23,414.53c-1.56.51-46.19.64-47.89-.45-.64-.41-1.24-15.35-.58-22.95l28.76.24s.2,7.7.55,7.87c2.86,1.35,16.11,7.65,17.65,8.89C233.44,409.53,234.79,414,233.23,414.53Z" style="fill:#455a64"></path>
        <path d="M232.6,412.74c-7.47-.24-37.66-.49-45.06-.15-.06,0-.06,0,0,0,7.4.4,37.58.41,45.06.23C232.76,412.86,232.76,412.74,232.6,412.74Z" style="fill:#263238"></path>
        <path d="M228.87,406.51a6,6,0,0,0-4.49,1.79,5.81,5.81,0,0,0-1.7,4c0,.05.08.05.09,0a7,7,0,0,1,6.1-5.68A0,0,0,0,0,228.87,406.51Z" style="fill:#263238"></path>
        <path d="M214.57,394.17c-2.75-1.18-6.37-1.52-9,0-.1.07,0,.21.09.2a41.48,41.48,0,0,1,8.84.12A.19.19,0,0,0,214.57,394.17Z" style="fill:#263238"></path>
        <path d="M214.86,396.55c-2.75-1.18-6.36-1.51-9,.05-.11.06,0,.2.08.19a41.48,41.48,0,0,1,8.84.12A.19.19,0,0,0,214.86,396.55Z" style="fill:#263238"></path>
        <path d="M215.15,398.93c-2.75-1.18-6.36-1.51-9,.05-.11.06,0,.2.08.19a41.48,41.48,0,0,1,8.84.12A.19.19,0,0,0,215.15,398.93Z" style="fill:#263238"></path>
        <path d="M190.71,391.49c.15,1.58.23,3.17.29,4.75s.07,3.18.08,4.76,0,3.17-.08,4.76-.14,3.17-.29,4.76c-.16-1.59-.23-3.17-.29-4.76s-.08-3.17-.09-4.76,0-3.17.09-4.76S190.55,393.07,190.71,391.49Z" style="fill:#263238"></path>
        <path d="M314.84,414.53c-1.56.51-46.19.64-47.89-.45-.64-.41-1.25-26-.58-33.65l28.76.24s.2,18.4.55,18.57c2.86,1.35,16.11,7.65,17.65,8.89C315.05,409.53,316.4,414,314.84,414.53Z" style="fill:#9088E5"></path>
        <path d="M314.21,412.74c-7.48-.24-37.66-.49-45.07-.15-.06,0-.06,0,0,0,7.41.4,37.59.41,45.07.23C314.37,412.86,314.37,412.74,314.21,412.74Z" style="fill:#263238"></path>
        <path d="M310.48,406.51A6,6,0,0,0,306,408.3a5.81,5.81,0,0,0-1.7,4c0,.05.08.05.09,0a7,7,0,0,1,6.1-5.68S310.54,406.51,310.48,406.51Z" style="fill:#263238"></path>
        <path d="M296.11,394.3c-2.72-1.25-6.32-1.69-9-.21-.11.06,0,.2.08.2a41.43,41.43,0,0,1,8.83.37A.19.19,0,0,0,296.11,394.3Z" style="fill:#263238"></path>
        <path d="M296.33,396.69c-2.71-1.25-6.32-1.69-9-.21-.1.06,0,.2.08.2a40.78,40.78,0,0,1,8.83.37A.19.19,0,0,0,296.33,396.69Z" style="fill:#263238"></path>
        <path d="M295.91,391.91c-2.72-1.25-6.32-1.69-9-.21-.1.06,0,.21.08.2a41.52,41.52,0,0,1,8.84.37A.19.19,0,0,0,295.91,391.91Z" style="fill:#263238"></path>
        <path d="M295.69,389.52c-2.71-1.25-6.32-1.69-9-.21-.1.06,0,.21.08.2a42.09,42.09,0,0,1,8.83.37A.19.19,0,0,0,295.69,389.52Z" style="fill:#263238"></path>
        <path d="M295.48,387.14c-2.72-1.26-6.32-1.7-9-.22-.11.06,0,.21.08.2a42.09,42.09,0,0,1,8.83.37A.18.18,0,0,0,295.48,387.14Z" style="fill:#263238"></path>
        <path d="M295.27,384.75c-2.72-1.25-6.32-1.7-9-.21-.1,0,0,.2.08.2a40.87,40.87,0,0,1,8.84.37A.19.19,0,0,0,295.27,384.75Z" style="fill:#263238"></path>
        <path d="M296.56,399.08c-2.72-1.25-6.32-1.7-9-.21-.1.05,0,.2.08.2a40.78,40.78,0,0,1,8.83.37A.19.19,0,0,0,296.56,399.08Z" style="fill:#263238"></path>
        <path d="M272.32,380.48c.15,2.51.23,5,.29,7.51s.05,5,.08,7.51,0,5-.08,7.51-.14,5-.29,7.51c-.16-2.51-.23-5-.29-7.51s-.06-5-.09-7.51,0-5,.09-7.51S272.16,383,272.32,380.48Z" style="fill:#263238"></path>
    </g>
    <g id="freepik--Character--inject-19">
        <path d="M340.31,129.43l-.4.1a.24.24,0,0,1,.07-.12h0Z" style="fill:#263238"></path>
        <path d="M371.34,178h0" style="fill:none;stroke:#ff98b9;stroke-linecap:round;stroke-linejoin:round;stroke-width:0px"></path>
        <path d="M371.34,178h0" style="fill:none;stroke:#ff98b9;stroke-linecap:round;stroke-linejoin:round;stroke-width:0px"></path>
        <path d="M351.82,418.33l-.18,0v-.13Z" style="fill:#f7a9a0"></path>
        <polygon points="348 349.74 345.63 363.97 329.56 450.78 326.96 450.78 338.65 363.97 340.38 349.74 348 349.74" style="fill:#dbdbdb"></polygon>
        <polygon points="340.38 349.74 348 349.74 345.63 363.97 338.65 363.97 340.38 349.74" style="fill:#a6a6a6"></polygon>
        <polygon points="398.49 450.78 395.9 450.78 379.82 363.97 377.45 349.74 385.07 349.74 386.8 363.97 398.49 450.78" style="fill:#dbdbdb"></polygon>
        <polygon points="385.07 349.74 386.8 363.97 379.82 363.97 377.45 349.74 385.07 349.74" style="fill:#a6a6a6"></polygon>
        <polygon points="446.71 450.78 444.12 450.78 428.04 363.97 425.67 349.74 433.29 349.74 435.02 363.97 446.71 450.78" style="fill:#dbdbdb"></polygon>
        <polygon points="435.02 363.97 428.04 363.97 425.67 349.74 433.29 349.74 435.02 363.97" style="fill:#a6a6a6"></polygon>
        <polygon points="442.6 356.42 324.8 356.42 324.8 344.01 368.9 344.01 383.72 279.36 438.11 279.36 442.6 356.42" style="fill:#dbdbdb"></polygon>
        <polygon points="442.6 356.42 436.18 356.42 431.99 279.36 438.11 279.36 442.6 356.42" style="fill:#a6a6a6"></polygon>
        <path d="M323.41,460.88c2.22.28,62.88-13.87,64.85-15.78.24-.21-1.9-11.94-1.9-11.94-.95-4.79-17.48-43.83-17.48-43.83l-39.65,9.79L346,435.37s-7.56,5.12-14,10l0,0a88.19,88.19,0,0,0-8.22,6.57C321.82,454.27,321.19,460.62,323.41,460.88Z" style="fill:#f7a9a0"></path>
        <path d="M388.26,445.1c-2,1.91-62.63,16.06-64.85,15.78s-1.59-6.61.33-8.92a88.19,88.19,0,0,1,8.22-6.57l0,0c6.49-4.88,14-10,14-10l-3.74-8.08,38.42-9.36c2.91,7.25,5.3,13.49,5.65,15.23C386.36,433.16,388.5,444.89,388.26,445.1Z" style="fill:#ebebeb"></path>
        <path d="M323.24,461.06c2.3.24,63.44-13.47,65.43-15.47.77-.74-.71-9.76-2.81-20.6,0-.11-.05-.22-.07-.33l-39.54,8.4.16.66s-21.05,15.7-23,18.13S320.94,460.83,323.24,461.06Z" style="fill:#9088E5"></path>
        <path d="M323.4,458.53c10.25-2.56,51.83-11.93,62.16-13.69.08,0,.1.05,0,.07-10.1,2.76-51.76,11.79-62.13,13.79C323.22,458.74,323.18,458.59,323.4,458.53Z" style="fill:#263238"></path>
        <path d="M341.88,434.15c3.89-1.66,9-2.15,12.73,0,.15.08,0,.29-.11.28a58,58,0,0,0-12.49.19A.27.27,0,0,1,341.88,434.15Z" style="fill:#263238"></path>
        <path d="M339.35,436.57c3.89-1.66,9-2.15,12.73,0,.15.08,0,.29-.12.27a58.52,58.52,0,0,0-12.48.2A.27.27,0,0,1,339.35,436.57Z" style="fill:#263238"></path>
        <path d="M336.82,439c3.88-1.67,9-2.16,12.73,0,.15.08,0,.28-.12.27a58.52,58.52,0,0,0-12.48.2A.27.27,0,0,1,336.82,439Z" style="fill:#263238"></path>
        <path d="M337.74,431.86c3.36,1.59,7.3,1.66,10.93,2.15a.51.51,0,0,0,.52-.65.12.12,0,0,0,.07-.17,22.3,22.3,0,0,0-8.34-7.88c-2-1-5.2-1.36-6.3,1.19S335.77,430.94,337.74,431.86Zm-1.77-3c-1.71-4.28,3.59-3,5-2.19a23.41,23.41,0,0,1,2.67,1.84,64.11,64.11,0,0,1,5,4.49c-1.77-.35-3.55-.54-5.33-.83C341.2,431.81,336.92,431.2,336,428.83Z" style="fill:#263238"></path>
        <path d="M361.41,424c-1.55-2.31-4.63-1.41-6.42,0a22.19,22.19,0,0,0-6.75,9.26.11.11,0,0,0,.09.15c0,.32.28.66.64.55,3.47-1.15,7.33-1.93,10.36-4.11C361.09,428.56,362.87,426.17,361.41,424Zm-7.53,7.13c-1.69.6-3.41,1.12-5.08,1.78,1.32-1.8,2.56-3.65,4.06-5.32a23.57,23.57,0,0,1,2.29-2.29c1.28-1.08,6.26-3.29,5.36,1.24C360,429,355.91,430.4,353.88,431.12Z" style="fill:#263238"></path>
        <path d="M341.07,457.54c-9.61,2.1-17.06,3.6-17.83,3.52-2.3-.23-1.79-6.79.16-9.21a87.51,87.51,0,0,1,8-6.7Z" style="opacity:0.2"></path>
        <path d="M343.39,434l42.09-9.92s-35.13-80.51-32-84.6c1.54-2.05,40.73-2.65,53.19-13.21,16.19-13.71,5.33-34.67,5.33-34.67l-43.77-1.3s.53,9.14-1.18,10.52c-1.12.92-53.27,5.3-59,22.87C301,345.27,343.39,434,343.39,434Z" style="fill:#37474f"></path>
        <path d="M343.4,427.52c1.1-.52,12-3.71,14.45-4.34,4.92-1.26,9.86-2.49,14.82-3.62,2.58-.59,8.12-1.88,8.46-1.82.16,0,.19.31,0,.35-4.8,1.59-9.67,2.93-14.54,4.28s-21.64,5.4-23.11,5.49C343.38,427.87,343.24,427.6,343.4,427.52Z" style="fill:#263238"></path>
        <path d="M346,335.89a6.55,6.55,0,0,1,3.3-1l18.95-3.18c5.92-1,11.86-1.87,17.74-3,4.87-.93,9.83-2.2,14-4.84a20.37,20.37,0,0,0,8.61-11.26,36.17,36.17,0,0,0,1.11-14.42c-.11-1.18-.33-2.35-.55-3.51,0-.09.13-.12.15,0,1.6,9,1.74,19.37-5,26.51C401,324.6,396.54,326.65,392,328a140.73,140.73,0,0,1-15.92,3.1l-18.95,3.16c-3,.5-6.13.9-9.14,1.53a3.07,3.07,0,0,0-1.65.73,2.36,2.36,0,0,0-.27,2.19c.31,1.48.71,2.95,1.13,4.41,3.45,11.77,28.91,71.81,29.59,73.1.08.13-.14.24-.21.11-5.8-10.33-24.85-57.58-28.68-68.71a72.47,72.47,0,0,1-2.48-8.66C345.15,337.87,345,336.68,346,335.89Z" style="fill:#263238"></path>
        <path d="M260.81,463.53c2.12.72,62.83-.14,65.14-1.62,2.53-2.4,3.6-59.67,3.6-59.67l-39.05-.33L288.06,443s-8.43,3.51-15.77,7v0a87.72,87.72,0,0,0-9.37,4.81C260.56,456.74,258.69,462.84,260.81,463.53Z" style="fill:#f7a9a0"></path>
        <path d="M328.49,436.11c-.58,12.87-1.41,24.74-2.54,25.8-2.31,1.48-63,2.34-65.14,1.62s-.25-6.79,2.1-8.67a87.72,87.72,0,0,1,9.37-4.81v0c7.34-3.49,15.77-7,15.77-7l.41-6.92Z" style="fill:#ebebeb"></path>
        <path d="M259.56,463.58c2.2.72,64.86.42,67.24-1.1.91-.57,1.4-9.69,1.67-20.73,0-.11,0-.23,0-.34l-40.43-.26,0,.69s-23.94,10.83-26.38,12.78S257.37,462.86,259.56,463.58Z" style="fill:#9088E5"></path>
        <path d="M260.26,461.15c10.56-.31,53.19-.57,63.66-.07.08,0,.08.06,0,.06-10.47.54-53.09.45-63.66.18C260,461.31,260,461.15,260.26,461.15Z" style="fill:#263238"></path>
        <path d="M283.55,441.29c4.15-.8,9.24-.18,12.43,2.76.12.11,0,.29-.18.24a58.59,58.59,0,0,0-12.23-2.48A.26.26,0,0,1,283.55,441.29Z" style="fill:#263238"></path>
        <path d="M280.56,443.11c4.15-.8,9.24-.18,12.43,2.76.12.11,0,.29-.18.24a58.56,58.56,0,0,0-12.24-2.48A.26.26,0,0,1,280.56,443.11Z" style="fill:#263238"></path>
        <path d="M277.56,444.93c4.16-.8,9.24-.18,12.43,2.76.13.11,0,.29-.17.24a58.56,58.56,0,0,0-12.24-2.48A.26.26,0,0,1,277.56,444.93Z" style="fill:#263238"></path>
        <path d="M280,438.16c2.95,2.27,6.78,3.19,10.22,4.44a.52.52,0,0,0,.65-.52.11.11,0,0,0,.1-.15,22.17,22.17,0,0,0-6.45-9.48c-1.74-1.45-4.79-2.44-6.41-.19S278.27,436.84,280,438.16Zm-1.07-3.33c-.76-4.55,4.15-2.18,5.39-1.07a23.58,23.58,0,0,1,2.21,2.37,66.65,66.65,0,0,1,3.89,5.45c-1.65-.72-3.35-1.29-5-1.94C283.39,438.85,279.33,437.34,278.92,434.83Z" style="fill:#263238"></path>
        <path d="M304.8,435.54c-1-2.59-4.21-2.37-6.26-1.39a22.15,22.15,0,0,0-8.58,7.6.11.11,0,0,0,.06.17.51.51,0,0,0,.5.66c3.64-.37,7.58-.31,11-1.79C303.51,439.93,305.77,438,304.8,435.54Zm-8.88,5.35c-1.78.23-3.57.37-5.35.66,1.68-1.48,3.29-3,5.11-4.33a23,23,0,0,1,2.73-1.75c1.48-.78,6.82-1.87,5,2.35C302.36,440.15,298.05,440.63,295.92,440.89Z" style="fill:#263238"></path>
        <path d="M285.89,441.62l44.05,0s-.56-79.47,2.89-83.88c4.6-5.88,69-5.74,82.81-24.91,12.4-17.21,1.93-41.58,1.93-41.58l-48.76-1.44a100.06,100.06,0,0,0,4.52,15.33S314.58,316,298.12,334C287,346.13,285.89,441.62,285.89,441.62Z" style="fill:#37474f"></path>
        <path d="M364.75,301.83a22.31,22.31,0,0,1,4.13,1.32c1.4.53,2.78,1.14,4.13,1.79a83.4,83.4,0,0,1,7.71,4.36c.08.05,0,.16-.07.12-2.64-1.37-5.37-2.6-8.1-3.78L368.61,304a42.91,42.91,0,0,1-4-1.76C364.46,302.1,364.56,301.79,364.75,301.83Z" style="fill:#263238"></path>
        <path d="M367.67,289.8c.56,2.23,1.05,4.47,1.69,6.67.29,1,.58,2,1,3,.32.83.81,1.77,1.77,2,1.11.21,1.42-.73,1.33-1.65s-.36-2-.56-3c-.23-1.16-.47-2.31-.68-3.47-.1-.58-.21-1.16-.31-1.74,0-.14-.13-1.25-.21-1.57,0,0,0,.05-.06.05h0a.07.07,0,0,1-.07-.06.13.13,0,0,1,.06-.16.08.08,0,0,1,.1,0c.21.11.22.4.29.62.18.56.37,1.12.53,1.69.31,1.06.61,2.12.88,3.19s.53,2.15.8,3.22a5.06,5.06,0,0,1,.21,2.47,1.89,1.89,0,0,1-1.75,1.42,1.55,1.55,0,0,1,.12.22c.1.22.17.45.25.67s.16.46.23.7a2,2,0,0,1,.06.34c0,.13,0,.26,0,.39s-.25.32-.35.12-.14-.2-.21-.31-.11-.25-.16-.37-.14-.45-.19-.68-.13-.45-.17-.67,0-.28,0-.41a2.56,2.56,0,0,1-1.28-.49,4.2,4.2,0,0,1-1.33-2c-.34-.93-.6-1.89-.86-2.83a41.73,41.73,0,0,1-1.42-7.17C367.25,289.64,367.61,289.54,367.67,289.8Z" style="fill:#263238"></path>
        <path d="M396.67,295.25c.21,1.1.33,2.21.59,3.31s.54,2.14.89,3.18a11.21,11.21,0,0,0,1.36,2.86,10.48,10.48,0,0,0,2.16,2.2,18.63,18.63,0,0,0,5.23,2.91,24.65,24.65,0,0,0,2.9.85c.51.11,1,.2,1.55.27a3.27,3.27,0,0,1,1.25.29.25.25,0,0,1,0,.43,4.4,4.4,0,0,1-2.31.07,16,16,0,0,1-2.47-.43,17.93,17.93,0,0,1-4.67-2,14.83,14.83,0,0,1-3.9-3.19,11.08,11.08,0,0,1-2.09-4.57,22.42,22.42,0,0,1-.68-6.21A.11.11,0,0,1,396.67,295.25Z" style="fill:#263238"></path>
        <path d="M323.6,386.5q.64-10.37,1.72-20.71c.18-1.7.35-3.4.56-5.1a15.49,15.49,0,0,1,.86-3.87c1-2.59,3.17-3.9,5.78-4.56,3.08-.78,6.27-1.24,9.4-1.75s6.42-1,9.64-1.43c6.51-.91,13-1.74,19.51-2.83a156.36,156.36,0,0,0,19.15-4.31c5.76-1.74,11.67-3.89,16.28-7.88,9.93-8.59,10.29-23,9.08-35-.17-1.7-.38-3.4-.59-5.1,0-.09.13-.12.14,0,.79,6.79,1.7,13.61,1,20.45a33.39,33.39,0,0,1-5.42,15.83c-3.36,4.81-8.34,7.92-13.71,10.09a108.1,108.1,0,0,1-18.27,5.26c-12.87,2.69-26,3.83-38.95,6.05-1.6.27-3.19.56-4.78.87a19.54,19.54,0,0,0-4.32,1.15c-2.94,1.32-3.75,4.18-4.11,7.13-.85,6.86-1.42,13.77-1.92,20.66-1,13.9-1.53,27.86-1.51,41.8,0,1.72,0,7.5,0,9.22,0,.15-.23.14-.23,0C322.54,418.44,322.72,400.43,323.6,386.5Z" style="fill:#263238"></path>
        <path d="M288,434.72c10.05-.69,38.66-.41,39-.27a.2.2,0,0,1,0,.36c-5.05.36-37.46.53-38.91.26C287.84,435,287.78,434.73,288,434.72Z" style="fill:#263238"></path>
        <path d="M373,305.29a164.3,164.3,0,0,0-26.6,5.45A185.41,185.41,0,0,0,320.75,320c-4.67,2.1-9.18,4.44-13.66,6.9-.09.05,0,.18.08.13a209.39,209.39,0,0,1,25-10.89,200.68,200.68,0,0,1,26-7.53c5-1.08,10-1.92,15-2.76C373.45,305.82,373.36,305.25,373,305.29Z" style="fill:#263238"></path>
        <path d="M330.12,375.53c.31-4.79.81-9.57,1.59-14.3.32-1.92.41-4.39,2.41-5.34.93-.44,19.6-3.68,22.27-3.63a.12.12,0,0,1,.06.23c-.24.11-18,3.47-20.23,4a3.57,3.57,0,0,0-2.5,1.29,9.22,9.22,0,0,0-.75,3.07,197.41,197.41,0,0,0-2.48,28.1c-.07,2.6-.11,5.21-.13,7.81s.09,5.38-.11,8.05a.22.22,0,0,1-.44,0c-.2-2.43-.13-4.89-.14-7.33s0-4.88,0-7.32C329.68,385.27,329.8,380.39,330.12,375.53Z" style="fill:#263238"></path>
        <path d="M331.27,214.39l10.85,26.69a1,1,0,0,1-.7,1.6l-14.28,2a2.33,2.33,0,0,1-2.18-1.19L314.1,216.8a1,1,0,0,1,.71-1.6l14.27-2A2.34,2.34,0,0,1,331.27,214.39Z" style="fill:#37474f"></path>
        <path d="M329.57,214.62l10.85,26.68c.41.77.1,1.49-.7,1.6l-14.27,2a2.32,2.32,0,0,1-2.19-1.19L312.41,217c-.41-.77-.1-1.49.7-1.6l14.27-2A2.35,2.35,0,0,1,329.57,214.62Z" style="fill:#455a64"></path>
        <path d="M325.83,216.43a1.23,1.23,0,1,0,1-1.41A1.24,1.24,0,0,0,325.83,216.43Z" style="fill:#263238"></path>
        <path d="M383.16,249.82c-5.5,18.38-20.28,43.4-27.76,44.62-3.56.58-9.8,2.38-15.09-1-11.54-7.42-22.63-23.24-25.84-32.77-1.14-3.39,14.68-13.46,17.6-11,6.85,5.76,15.6,17.77,16.63,17.54,3.79-.87,16.92-15.6,26.08-26C385.89,228.67,385.35,242.49,383.16,249.82Z" style="fill:#f7a9a0"></path>
        <path d="M311.37,242.73c.73-7.33,2.05-9.1-.62-15.63-1.75-4.28.23-7.23,3.91-4.14,6,5.06,7.06,14.73,6.46,18.18Z" style="fill:#f7a9a0"></path>
        <path d="M315.75,263.57s-4.62-9.38-4.61-17.27c0-5.46,1.35-17.34,15.39-25.6,3.34-2,9.47-2.39,5.19,2.79-3,3.67-6.07,5.09-7.45,7.55,0,0,7.87.38,9.7,3.79a70.89,70.89,0,0,1,4.15,9.27,15.47,15.47,0,0,1-1.66.93s1.62,3.25-.19,8.47Z" style="fill:#f7a9a0"></path>
        <path d="M312,241.09c1.88-2.16,5.95-6.65,10.56-9.17,5.12-2.8,15.74-6.81,17.77-3,1.49,2.78-2.43,4.67-2.43,4.67s4.73-.73,5.53,2.08c.72,2.56-2.4,3.84-2.4,3.84s2.95.05,3.17,2.65c.26,3.13-6,2.51-8.43,5.92C335.19,248.83,312,241.09,312,241.09Z" style="fill:#f7a9a0"></path>
        <path d="M324.6,237.82a23.2,23.2,0,0,1,13.17-4.3c.12,0,.19.09.08.11a56.91,56.91,0,0,0-13.22,4.24A0,0,0,0,1,324.6,237.82Z" style="fill:#263238"></path>
        <path d="M327.57,242.91A26.11,26.11,0,0,1,341,239.4c.12,0,.18.1.07.12A60.66,60.66,0,0,0,327.6,243S327.55,242.92,327.57,242.91Z" style="fill:#263238"></path>
        <path d="M315.38,267.86s18,25.32,26.54,27.28,13.27.53,16.2-.37a8.05,8.05,0,0,0,2.94-2c7.27-7,18.74-29.74,22.92-42.17,3.14-9.34,1.46-17.12-4.88-13.58a22.84,22.84,0,0,0-5.61,4.89c-10.8,12.21-23.67,24.23-24.4,24s-9.54-10.44-9.54-10.44Z" style="fill:#9088E5"></path>
        <path d="M315.38,267.86s18,25.32,26.54,27.28,13.27.53,16.2-.37a8.05,8.05,0,0,0,2.94-2c7.27-7,18.74-29.74,22.92-42.17,3.14-9.34,1.46-17.12-4.88-13.58a22.84,22.84,0,0,0-5.61,4.89c-10.8,12.21-23.67,24.23-24.4,24s-9.54-10.44-9.54-10.44Z" style="opacity:0.2"></path>
        <path d="M319.57,272.33c.84-.65,9-5.34,10.84-6.32s9.13-5.06,11.07-5.92a.07.07,0,1,1,.07.13c-1.74,1.2-9.12,5.34-10.94,6.37s-10,5.5-11,5.87C319.54,272.49,319.51,272.38,319.57,272.33Z" style="fill:#263238"></path>
        <path d="M363.34,301.48c1.29,1.43,59.78,11.71,60.1,11.34.86-1-6.26-57.09-28.52-77.8-3.92-3.65-11-2.73-14.24-.93-1.64.9-7.3,8.86-9,15.84S362.54,300.57,363.34,301.48Z" style="fill:#9088E5"></path>
        <path d="M412.58,264.67,369.29,262c.19-1.06.37-2.07.55-3l41.53,2.59C411.79,262.56,412.19,263.61,412.58,264.67Z" style="fill:#37474f"></path>
        <path d="M414.79,271l-46.58-2.92c.19-1,.36-2.05.54-3l45,2.82C414.1,268.87,414.45,269.92,414.79,271Z" style="fill:#37474f"></path>
        <path d="M398.84,236.38c19.84,10.07,42.61,32.81,41.28,40.37-1.49,8.43-30-5.81-29.71-7.07.25-1.08-5.74-10.13-14.3-23.1C387.4,233.39,393.93,233.89,398.84,236.38Z" style="fill:#9088E5"></path>
        <g style="opacity:0.2">
            <path d="M398.84,236.38c19.84,10.07,42.61,32.81,41.28,40.37-1.49,8.43-30-5.81-29.71-7.07.25-1.08-5.74-10.13-14.3-23.1C387.4,233.39,393.93,233.89,398.84,236.38Z"></path>
        </g>
        <path d="M440.12,276.75c-1.74,5.89-10.52,9.83-31.68,21.84-2.93,1.66-20.22-15.86-17.18-17.79,3.83-2.44,19.2-11.07,20.4-11.56C421.81,265.12,441.3,272.76,440.12,276.75Z" style="fill:#f7a9a0"></path>
        <path d="M395.45,278.25s-9.11,4.66-13.14,8.58a36.21,36.21,0,0,0-8.77,14.92c-1.82,6.05-2.05,21.93,2.52,22.79,4.12.79,3.54-15.46,3.54-15.46s-2.14,16.66,3,16.69S386,307,386,307s-1.81,17.17,3.5,16.35c4-.61,3.39-17.74,3.39-17.74s-1.45,14.76,2.7,14.31c4.59-.5,5-16.35,5-16.35,10.37-2.93,14.11-8.57,16.29-12.89C417.41,289.61,395.45,278.25,395.45,278.25Z" style="fill:#f7a9a0"></path>
        <path d="M380,303.27c-.32,2-.66,3.92-.81,5.89s-.23,3.95-.19,5.92a34,34,0,0,0,.87,7.67c-.7-4.54-.29-11.6-.14-13.57s.2-3.94.34-5.91C380.05,303.22,380,303.22,380,303.27Z" style="fill:#263238"></path>
        <path d="M387.09,303.67c-.3,2.51-.69,5-.89,7.5s-.15,4.91-.17,7.42c0,.19.1.13.11-.06.12-2.51.43-4.83.57-7.34s.2-5,.44-7.51A0,0,0,0,0,387.09,303.67Z" style="fill:#263238"></path>
        <path d="M393.27,302.92a56,56,0,0,0-.48,11.57c0,.19.13.1.13-.1.09-3.85.13-6.87.48-11.45C393.4,302.87,393.28,302.84,393.27,302.92Z" style="fill:#263238"></path>
        <path d="M390.9,278.75s24.38,18.57,24.64,18.47,24.2-14.15,24.58-20.47-19.44-11-28.44-7.55S390.9,278.75,390.9,278.75Z" style="fill:#9088E5"></path>
        <path d="M390.9,278.75s24.38,18.57,24.64,18.47,24.2-14.15,24.58-20.47-19.44-11-28.44-7.55S390.9,278.75,390.9,278.75Z" style="opacity:0.2"></path>
        <path d="M399.16,276.06c.95.58,8.65,6.78,10.29,8.16s8.42,7,10,8.54a.08.08,0,0,1-.1.12c-1.83-1.24-8.68-6.86-10.38-8.24s-9.18-7.67-9.9-8.47C399,276.1,399.1,276,399.16,276.06Z" style="fill:#263238"></path>
        <path d="M422.52,268.26c-2.09-.33-7.85-.81-12.52,1.53-.05,0,0,.09,0,.07a38.59,38.59,0,0,1,12.47-1.53C422.55,268.34,422.57,268.27,422.52,268.26Z" style="fill:#263238"></path>
        <path d="M378.53,234.94c-2.48,2.21-3.39,9.56,1.38,11s11.36-6.31,12.13-10.53S384,230,378.53,234.94Z" style="fill:#37474f"></path>
        <path d="M379.92,244c3.41.75,9.14-4.53,11.37-8.76.16-.29-1.23-11.78-1.27-14.09,0-.47-14.42,3.76-14.42,3.76a37.05,37.05,0,0,1,1.55,8.82C377.15,234.11,376.63,243.32,379.92,244Z" style="fill:#f7a9a0"></path>
        <path d="M389.57,221.19c-.67,3.73-3.16,13.43-11,13.75a9.16,9.16,0,0,1-1.41-.06c0-.63,0-1,0-1.11A37.05,37.05,0,0,0,375.6,225h0l.24-.07h0c.1,0,.24-.07.4-.12l.16-.05.32-.09.4-.12.67-.19.25-.07.52-.15,2-.58.78-.22,1-.28,1-.27.13,0,1.68-.46.56-.15,1.07-.28.72-.18,1.41-.33.31-.06Z" style="fill:#263238"></path>
        <path d="M389.67,203.44c2.25,4.87,1.58,19.91-1.59,23.68-4.59,5.46-13.11,7.09-18,1.35-4.75-5.56-3.54-25.15.09-28.68C375.51,194.59,386.34,196.25,389.67,203.44Z" style="fill:#f7a9a0"></path>
        <path d="M376.3,214.33s.08,0,.07.09c-.07,1,0,2.18.92,2.56,0,0,0,.06,0,.05C376.17,216.83,376.07,215.27,376.3,214.33Z" style="fill:#263238"></path>
        <path d="M377.25,213.31c1.63-.06,1.63,3.21.11,3.26S375.87,213.36,377.25,213.31Z" style="fill:#263238"></path>
        <path d="M370.69,214.48s-.08.05-.08.09c0,1-.1,2.18-1,2.52,0,0,0,.06,0,0C370.72,217,370.88,215.43,370.69,214.48Z" style="fill:#263238"></path>
        <path d="M369.78,213.42c-1.63-.12-1.76,3.15-.25,3.26S371.15,213.52,369.78,213.42Z" style="fill:#263238"></path>
        <path d="M378.54,211.81a11.26,11.26,0,0,1-1.27-.45,2.22,2.22,0,0,1-1.21-.7.7.7,0,0,1,.11-.84,1.77,1.77,0,0,1,1.74-.18,2.54,2.54,0,0,1,1.45,1.1A.74.74,0,0,1,378.54,211.81Z" style="fill:#263238"></path>
        <path d="M368.52,212.87c.45-.08.86-.22,1.3-.34a2.11,2.11,0,0,0,1.26-.6.68.68,0,0,0,0-.84,1.7,1.7,0,0,0-1.71-.32,2.5,2.5,0,0,0-1.54,1A.74.74,0,0,0,368.52,212.87Z" style="fill:#263238"></path>
        <path d="M377.5,223.73c-.24.23-.48.56-.85.59a2.75,2.75,0,0,1-1.09-.25,0,0,0,0,0-.05.05,1.38,1.38,0,0,0,1.29.55,1.08,1.08,0,0,0,.8-.9C377.62,223.71,377.54,223.69,377.5,223.73Z" style="fill:#263238"></path>
        <path d="M376.44,220.69a3.5,3.5,0,0,1-2.31,1.54,4.34,4.34,0,0,1-1.25.05l-.23,0-.23,0a.26.26,0,0,1-.2-.23h0a.41.41,0,0,1,0-.11h0v-.09c0-.78.06-2,.06-2-.29.14-1.74.8-1.72.39a52.11,52.11,0,0,1,1.34-10.45c0-.11.2-.09.19,0-.07,3.26-.71,6.48-.83,9.74a6.3,6.3,0,0,1,1.64-.49c.11,0-.19,2.29-.15,2.64v0a4.78,4.78,0,0,0,3.58-1.11C376.42,220.54,376.5,220.61,376.44,220.69Z" style="fill:#263238"></path>
        <path d="M373.35,221.89a4.11,4.11,0,0,0,1.64,1.27,1.93,1.93,0,0,0,1.12.07c.81-.21.83-1,.68-1.59a4.42,4.42,0,0,0-.36-1A5.34,5.34,0,0,1,373.35,221.89Z" style="fill:#263238"></path>
        <path d="M375,223.16a1.93,1.93,0,0,0,1.12.07c.81-.21.83-1,.68-1.59A1.9,1.9,0,0,0,375,223.16Z" style="fill:#ff99ba"></path>
        <path d="M368.33,205.88c5.31,3.33,12.15-2.31,12.15-2.31a5.63,5.63,0,0,0,5.84,3.32s1.37,8.68,3.67,8.57c3.51-.17,4.11-12.11,2.91-14.4s-4.21-2.77-4.21-2.77a5.69,5.69,0,0,0-2.53-3.37c-2.47-1.74-10.64,1.07-10.64,1.07a7.65,7.65,0,0,0-2.23-2.77,2.19,2.19,0,0,0-3.12.41,5.15,5.15,0,0,1,.93,2.12c.52,2.54-1.57,2.62-1.64.3a3.62,3.62,0,0,1,.71-2.42c-1.09-1.47-2.79-1.89-3.78-1C364.59,194.14,363.92,203.12,368.33,205.88Z" style="fill:#263238"></path>
        <path d="M388.17,215.83s2.78-5.15,5.08-4.21.6,8.12-1.83,9.36a2.6,2.6,0,0,1-3.62-1Z" style="fill:#f7a9a0"></path>
        <path d="M392.71,213.66a0,0,0,0,1,0,.07c-1.7.93-2.44,2.69-2.9,4.47a1.45,1.45,0,0,1,2.09-.64.05.05,0,0,1,0,.1,1.61,1.61,0,0,0-1.68.76,7.31,7.31,0,0,0-.67,1.51c-.06.17-.36.12-.32-.07v-.05C388.91,217.55,390.3,214.18,392.71,213.66Z" style="fill:#263238"></path>
    </g>
    <g id="freepik--Plant--inject-19">
        <path d="M101.37,375.86c6.35-13.05,17.46-19.75,30-16.05s14.46,21.16,5.11,25.57-18.69-8.46-23.63-11.11S101.37,375.86,101.37,375.86Z" style="fill:#9088E5"></path>
        <path d="M95.23,410.6c0-1.58.09-3.15.15-4.72.11-3.14.21-6.28.33-9.42.21-5.75.83-11.39,3.21-16.69A25.93,25.93,0,0,1,109,368.17a21.21,21.21,0,0,1,5.3-2.29,12.43,12.43,0,0,1,6.18-3.39,25.07,25.07,0,0,1,8.81-.22c.1,0,.1.18,0,.16a21.1,21.1,0,0,0-8.33.6,15.09,15.09,0,0,0-5.3,2.53,17.2,17.2,0,0,1,10.31.95,7.73,7.73,0,0,1,2.08-.17,12.47,12.47,0,0,1,2.72.38A20.71,20.71,0,0,1,135.9,369a.08.08,0,0,1-.09.14,19.58,19.58,0,0,0-5-1.89,17.26,17.26,0,0,0-2.58-.38,13.83,13.83,0,0,0-1.44,0,16.64,16.64,0,0,1,8.1,8.07c0,.1-.1.18-.15.08a15.23,15.23,0,0,0-10.32-8.27c-.27-.07-.55-.11-.83-.16a11,11,0,0,1,.13,1.26c.08.64.19,1.27.32,1.89a31.14,31.14,0,0,0,1,3.82,27.78,27.78,0,0,0,1.52,3.71,17.56,17.56,0,0,0,2.11,3.57c.08.09-.07.2-.13.1-.75-1.18-1.63-2.26-2.31-3.49a25.63,25.63,0,0,1-1.7-3.64,24.52,24.52,0,0,1-1.12-3.91q-.21-1.06-.33-2.13a5.06,5.06,0,0,1-.08-1.29,16.92,16.92,0,0,0-4.44-.09c.55,3.11,1.15,6.35,2.89,9.06.06.09-.09.17-.14.08a35.71,35.71,0,0,1-2.15-4.45,16.85,16.85,0,0,1-1.08-4.64,20.48,20.48,0,0,0-7.35,2.46,24.39,24.39,0,0,0-9.79,10.71,40.28,40.28,0,0,0-3.62,15.35c-.42,6.67-.51,13.38-1.17,20,0,.44-.74.58-.82.09A23.73,23.73,0,0,1,95.23,410.6Z" style="fill:#263238"></path>
        <path d="M109.9,367.12a7.3,7.3,0,0,1,1.44-1.33c.52-.43,1.06-.85,1.62-1.23a12.05,12.05,0,0,1,3.6-1.67.08.08,0,1,1,0,.16A9.64,9.64,0,0,0,113,364.8c-.53.39-1,.81-1.53,1.24a9.58,9.58,0,0,1-1.46,1.24A.12.12,0,0,1,109.9,367.12Z" style="fill:#263238"></path>
        <path d="M130.17,371.85a38.86,38.86,0,0,1,2.91,3.85,23.08,23.08,0,0,1,2.16,4.3s-.05.07-.07,0a51.58,51.58,0,0,0-5.12-8.06C130,371.88,130.1,371.77,130.17,371.85Z" style="fill:#263238"></path>
        <path d="M116.51,370.56a9.31,9.31,0,0,0,.71,2.36,16,16,0,0,0,1.21,2.09c0,.05,0,.09-.07.06a8.46,8.46,0,0,1-2-4.47C116.33,370.5,116.49,370.45,116.51,370.56Z" style="fill:#263238"></path>
        <path d="M96.11,376.18s-9-11.3-26.34-7.29c-16.49,3.8-24.1,34-7.44,37.66s13.73-24.37,19.8-29.11C86.59,374,93,374.7,96.11,376.18Z" style="fill:#9088E5"></path>
        <path d="M56.37,385.4a33.79,33.79,0,0,1,3.57-2.74,15.49,15.49,0,0,1,3.82-1.9,22,22,0,0,1,7.5-7.09c-.17,0-.34,0-.52,0a25.23,25.23,0,0,0-2.75,0A15.26,15.26,0,0,0,62.63,375c-.1,0-.17-.11-.07-.15a24.44,24.44,0,0,1,5.35-1.61,15,15,0,0,1,4.17-.15l.27,0a23.87,23.87,0,0,1,5-1.84l-.49-.13a25,25,0,0,0-2.57-.42,20,20,0,0,0-5.19.08c-.11,0-.14-.15,0-.16a32.85,32.85,0,0,1,5.25-.22,22.37,22.37,0,0,1,4.36.57,22.29,22.29,0,0,1,3.17-.36c6-.26,12.64,2,16.37,7s4.45,11.61,5.11,17.62a132.88,132.88,0,0,1,.66,25.22c0,.5-.73.41-.75-.06-.23-7.14-.48-14.27-1.16-21.37-.32-3.29-.67-6.6-1.21-9.86a28.94,28.94,0,0,0-2.4-8.11,14.83,14.83,0,0,0-5.85-6.3,19.76,19.76,0,0,0-8.3-2.55,22.15,22.15,0,0,0-7.78.73,4.9,4.9,0,0,1,0,1.53,8.21,8.21,0,0,1-.38,1.9,9.55,9.55,0,0,1-.72,1.68c-.33.6-.73,1.13-1.09,1.7-.05.09-.2,0-.13-.1a7.78,7.78,0,0,0,1.34-3.42,13,13,0,0,0,.21-1.77c0-.44,0-.89,0-1.34a23.07,23.07,0,0,0-7.57,4c-.42.34-.83.7-1.23,1.06A8.34,8.34,0,0,1,68.49,380,17.76,17.76,0,0,1,70,382.73a23.73,23.73,0,0,1,1.6,6c0,.1-.15.13-.16,0a17.37,17.37,0,0,0-2-5.72A24.23,24.23,0,0,0,68,380.53c-.3-.41-.6-.83-.92-1.23-.17-.21-.35-.43-.51-.66a23.83,23.83,0,0,0-4.92,6.93h0a11.71,11.71,0,0,1,2,2.93A26.11,26.11,0,0,1,65.31,392a59.64,59.64,0,0,1,2.07,7.07.09.09,0,0,1-.17,0,29.28,29.28,0,0,0-2.46-7c-.51-1.09-1.06-2.16-1.64-3.22a29.45,29.45,0,0,1-1.63-3,22.36,22.36,0,0,0-2,8,.08.08,0,1,1-.16,0,28,28,0,0,1,3.89-12.33c-1.06.45-2.13.88-3.15,1.43a17.47,17.47,0,0,0-3.6,2.54C56.4,385.6,56.29,385.47,56.37,385.4Z" style="fill:#263238"></path>
        <path d="M69.09,386c.53,1.72,1.18,3.38,1.65,5.11a20,20,0,0,1,.77,5.1c0,.05-.08.05-.09,0a49.42,49.42,0,0,0-2.48-10.16A.08.08,0,1,1,69.09,386Z" style="fill:#263238"></path>
        <path d="M58.1,381.79a9.83,9.83,0,0,1,2.3-1.64,16.81,16.81,0,0,1,2.66-.94c.1,0,.14.14,0,.16a10.19,10.19,0,0,0-2.56,1.06,20.38,20.38,0,0,0-2.36,1.44C58.12,381.92,58.05,381.84,58.1,381.79Z" style="fill:#263238"></path>
        <path d="M87.57,361.09s-1.66-20.3-16.75-26.88c-12.6-5.49-19.82,8.67-10.91,17.33C67.12,358.56,78.67,355.39,87.57,361.09Z" style="fill:#9088E5"></path>
        <path d="M62.7,338.14a63.29,63.29,0,0,1,6.71,3.18,47.54,47.54,0,0,1,5.21,3.46c-.25-.52-.46-1-.72-1.55a24.53,24.53,0,0,0-1.28-2.3,21.84,21.84,0,0,0-3.32-4.21c-.08-.07,0-.19.12-.11a34.78,34.78,0,0,1,3.5,4.07,25.93,25.93,0,0,1,1.43,2.3,9,9,0,0,1,1,2.34l.17.12a49,49,0,0,1,7.21,7.05c0-.2-.09-.4-.14-.58-.28-1-.59-2-.91-3A25.06,25.06,0,0,0,79,343c-.06-.09.09-.17.15-.08a48.13,48.13,0,0,1,3.16,5.77,22.63,22.63,0,0,1,1,3,13.83,13.83,0,0,1,.49,2c.66.83,1.3,1.68,1.91,2.54,6.48,9.23,9.73,20.38,10.51,31.54a95.34,95.34,0,0,1,.17,10,62.44,62.44,0,0,1-.88,10c0,.21-.37.15-.37-.06.08-2.93.38-5.85.44-8.79s0-5.88-.29-8.81A81.81,81.81,0,0,0,92,373a61.79,61.79,0,0,0-7.67-16.24c-.64-.13-1.27-.3-1.89-.46s-1.51-.39-2.26-.6A22.59,22.59,0,0,1,76,354.12c-.09-.05,0-.2.09-.14a13.7,13.7,0,0,0,4.27,1.47c1.18.23,2.4.39,3.59.66-1.1-1.59-2.26-3.14-3.51-4.61a26.42,26.42,0,0,1-8.59-.64,35.42,35.42,0,0,1-4.39-1.37c-1.51-.58-2.94-1.33-4.44-2-.11,0,0-.21.07-.15a24.94,24.94,0,0,0,8.71,2.85,54.18,54.18,0,0,0,8.14.68c-1.08-1.23-2.18-2.43-3.36-3.56-4-3.77-8.68-7.24-13.9-9.05C62.55,338.26,62.6,338.1,62.7,338.14Z" style="fill:#263238"></path>
        <path d="M75,338.2a22.36,22.36,0,0,1,1.85,2.71,14.32,14.32,0,0,1,1.33,3.15,0,0,0,0,1-.06,0c-.5-1-.93-2-1.44-3a14.56,14.56,0,0,0-1.8-2.74C74.79,338.24,74.92,338.12,75,338.2Z" style="fill:#263238"></path>
        <path d="M61,345A15.18,15.18,0,0,0,64,346.25a26.8,26.8,0,0,0,3.16.85s0,.09,0,.09a15.2,15.2,0,0,1-3.26-.72,27,27,0,0,1-3.06-1.37C60.77,345.06,60.86,344.91,61,345Z" style="fill:#263238"></path>
        <path d="M99.3,357.43c.09.88,2.28-7.36,15-14.69,11.59-6.65,25.42-23.94,14.06-34.86C119.23,299.06,95.07,318.28,99.3,357.43Z" style="fill:#9088E5"></path>
        <path d="M90.52,404.71a226.91,226.91,0,0,1,2-25.65,116,116,0,0,1,5.39-23c.95-2.68,2-5.32,3.21-7.92a18.1,18.1,0,0,1,.06-3c.06-1.29.18-2.59.3-3.89s.25-2.59.4-3.88.43-2.58.48-3.87c0-.12.19-.09.17,0a25.6,25.6,0,0,0-.46,4.1c-.1,1.26-.17,2.51-.21,3.76s0,2.51,0,3.77c0,.45,0,.93,0,1.42,1.2-2.54,2.48-5,3.88-7.46-.87-5.3.25-10.83,1.33-16a.08.08,0,0,1,.16.05,45.08,45.08,0,0,0-.84,8.2c0,2.17,0,4.34.06,6.52.31-.52.61-1.05.93-1.56,1.65-2.7,3.42-5.35,5.3-7.92a12.54,12.54,0,0,1,.12-3.77,29.2,29.2,0,0,1,.93-4.12,40,40,0,0,1,1.41-4c.55-1.34,1.29-2.61,1.82-4a.08.08,0,1,1,.15.07,19.54,19.54,0,0,0-1.6,4,38.59,38.59,0,0,0-1,4c-.27,1.34-.49,2.69-.68,4.05-.12.89-.2,1.83-.36,2.73A99.6,99.6,0,0,1,122.4,317c.07-.07.18.05.11.12a117.83,117.83,0,0,0-13,17.65c-.14.24-.27.48-.41.71.7-.44,1.51-.79,2.17-1.15,1.24-.69,2.47-1.38,3.72-2.05s2.41-1.31,3.61-2c.62-.34,1.23-.7,1.86-1a13.91,13.91,0,0,0,2.17-1.2c.09-.07.2.08.09.14-1.22.67-2.31,1.67-3.5,2.43s-2.4,1.49-3.64,2.19c-2.27,1.26-4.73,2.17-7,3.48q-2.33,4.06-4.3,8.33,2-1.31,4.15-2.48c.9-.51,1.81-1,2.72-1.49a13.15,13.15,0,0,0,2.57-1.56c.08-.06.2.05.12.12a24.47,24.47,0,0,1-4.9,3.42c-1.64,1-3.3,1.88-5,2.71q-2.06,4.49-3.7,9.14C94.94,369.7,93,385.85,92,401.88c-.29,4.78-.43,9.56-.49,14.35s.19,9.55.18,14.33c0,.14-.23.17-.25,0-.57-4.24-.67-8.55-.86-12.82S90.42,409.06,90.52,404.71Z" style="fill:#263238"></path>
        <path d="M113.7,335.87a60.42,60.42,0,0,0,6.78-3.51,68.6,68.6,0,0,0,6.44-4.09s.08,0,0,.06a55.23,55.23,0,0,1-6.18,4.33,61.57,61.57,0,0,1-7,3.35C113.68,336.06,113.6,335.91,113.7,335.87Z" style="fill:#263238"></path>
        <path d="M110,318.68c.19-.75.43-1.47.68-2.2a.06.06,0,0,1,0-.08c.16-.41.33-.82.5-1.23l.06-.15c0-.07.07-.15.1-.23s0,0,0,0-.08.28-.13.42a1.68,1.68,0,0,1-.06.24,61.08,61.08,0,0,0-1.9,8.66c0,.09-.15.1-.15,0A30.28,30.28,0,0,1,110,318.68Z" style="fill:#263238"></path>
        <polygon points="77.03 407.8 77.94 418.59 80.73 451.51 110.59 451.51 113.38 418.59 114.29 407.8 77.03 407.8" style="fill:#455a64"></polygon>
        <polygon points="77.03 407.8 77.94 418.59 113.38 418.59 114.29 407.8 77.03 407.8" style="fill:#263238"></polygon>
        <rect x="74.11" y="403.47" width="43.11" height="10.35" transform="translate(191.32 817.29) rotate(180)" style="fill:#455a64"></rect>
    </g>
</svg>